<svg width="174" height="129" viewBox="0 0 174 129" fill="none" xmlns="http://www.w3.org/2000/svg">
<path d="M42.7701 56.2C42.6701 55.86 42.4601 55.55 42.1901 55.32V53.62C42.8001 53.09 43.5201 53.47 44.2001 53.36C44.4001 53.54 44.6201 53.72 44.8501 53.92H46.0101C46.2101 53.74 46.4201 53.56 46.6301 53.39C46.8401 53.56 47.0401 53.74 47.3201 53.97C47.5401 52.73 48.5401 51.82 49.9301 51.42C49.4201 50.9 48.8901 51.2 48.3701 51.08C48.1401 50.84 47.8701 50.56 47.5501 50.22V49.06C48.4501 48.63 48.6301 47.54 49.3201 46.77V45.12C49.9001 44.57 50.4601 44.03 51.0501 43.47V40.74C51.5301 40.1267 51.5401 39.42 51.0801 38.62C51.1901 38.26 51.3901 37.98 51.6701 37.72C51.6901 37.43 51.4601 37.01 51.1101 36.58V34.94C51.3201 34.69 51.4701 34.5 51.6201 34.32C51.3501 34.06 51.1401 33.86 50.8601 33.6C49.4701 34.54 47.8001 34.73 45.9101 34.59C45.7501 34.01 45.5201 33.53 45.1301 33.13C45.1301 32.66 45.1301 32.19 45.1301 31.7C46.0401 29.38 47.3501 29.38 49.5901 29.54C49.7801 29.72 49.9201 29.86 50.1301 30.06C50.3101 29.93 50.5001 29.78 50.7501 29.6C50.9201 29.74 51.1201 29.89 51.3701 30.09H52.3901C53.4201 31.08 54.3901 32.01 55.4001 32.98C55.6801 32.76 55.8801 32.6 56.1201 32.41C57.4301 32.05 57.7301 33.18 58.9201 33.55C60.2901 32.58 61.3401 31.2 62.7001 30.12C63.2301 30.1 63.3001 30.33 64.1001 30.69C64.5001 30.69 65.7101 30.69 66.3301 30.69C66.4101 30.4 66.4801 30.14 66.6601 29.47C67.0001 29.17 67.6501 28.6 68.2501 28.07V26.52C67.9101 26.13 67.6701 25.84 67.4301 25.57C67.1701 25.78 66.9701 25.95 66.6801 26.18C66.5901 25.85 66.5201 25.59 66.4401 25.26C68.7101 25.13 66.6901 22.53 69.3101 23.43C69.4301 23.76 69.5601 24.09 69.6701 24.39C69.9201 24.41 70.1101 24.42 70.3301 24.44C70.5301 24.26 70.7501 24.07 70.9601 23.89C71.2801 24.41 71.6101 24.94 71.7801 25.22C72.4601 25.86 73.1801 25.26 73.6201 25.83C74.0601 26.4 74.6701 26.11 75.2201 26.06C75.3267 25.58 75.2101 25.1234 74.8701 24.69C75.1501 24.42 75.4301 24.16 75.7101 23.89C75.9201 24.07 76.1301 24.25 76.3401 24.43C76.7101 23.66 77.3501 23 77.2001 21.91C77.0201 21.72 76.8201 21.52 76.6201 21.32V18.49C77.1101 18.02 77.6001 17.55 78.0901 17.09C78.3001 17.27 78.5101 17.45 78.7101 17.63C78.8601 17.49 79.0001 17.35 79.1601 17.2C79.6601 17.23 79.8301 17.69 80.2901 18.03C79.6501 18.14 79.1001 18.23 78.5701 18.32C78.2601 18.76 78.4401 19.22 78.4501 19.74C78.6901 19.81 78.9601 19.88 79.2801 19.97C80.0401 21.86 81.9601 22.3 84.1201 22.11C84.4801 21.71 85.0901 21.44 84.9501 20.75C85.5901 20.5 85.3801 19.77 85.7801 19.38C85.9801 19.37 86.1701 19.35 86.3601 19.34C87.6801 20.64 84.5901 20.52 87.3001 22.46V23.08C88.1901 23.25 88.7601 23.8 89.3701 24.43H91.3301C92.0301 23.58 92.9401 22.74 94.0701 22.31C94.4901 21.89 95.4601 22.45 95.8701 21.64H99.6001C99.8501 21.95 100.21 22.4 100.49 22.74H101.86C102.08 22.55 102.29 22.36 102.51 22.16H103.57C103.96 21.9 104.26 21.7 104.45 21.58C105.89 21.92 106.25 23.61 106.36 24.7C106.14 24.91 106 25.04 105.8 25.23V28.21C107.02 28.7 108.32 28.3 109.61 28.41C110.16 27.88 110.71 27.34 111.31 26.76C112.81 26.63 113.82 26.66 114.33 28.39H116.72C117 29.33 117.78 29.79 118.24 30.63C118.01 31.08 117.77 31.54 117.5 32.04C118.41 32.48 119.22 32.86 120.01 33.24C119.69 35.01 117.91 36.01 117.61 37.78C117.88 38.01 118.18 38.26 118.61 38.63C118.9 38.23 119.22 37.78 119.48 37.43C120.16 37.57 120.68 37.28 121.14 37.71C120.98 37.9 120.82 38.09 120.63 38.31C120.79 38.49 120.97 38.68 121.17 38.9V40.01C120.98 40.2 120.78 40.41 120.58 40.62V41.23C120.25 41.34 119.9 41.45 119.49 41.59C119.46 41.82 119.43 42.07 119.41 42.31C119.9 42.7 120.57 42.51 121.04 42.76C121.37 42.99 121.64 43.21 122.07 43.14C122.73 44.09 124.05 44.24 124.76 45.16V46.34C125.01 46.42 125.27 46.51 125.64 46.63C125.87 47.03 126.16 47.54 126.41 47.97C126.2 48.31 126.02 48.61 125.76 49.04C126.3 49.42 126.77 49.76 127.13 50.01V51.33C127.34 51.54 127.53 51.75 127.74 51.96V53.07C128.12 53.55 128.66 53.26 129.21 53.36C129.81 53.99 130.47 54.69 131.27 55.52V58.22C130.84 58.58 130.32 59 129.66 59.55H127.44C127.15 59.85 126.82 60.19 126.55 60.47C126.42 61.27 127.13 61.45 127.49 61.87H128.64C129.17 62.5 128.61 63.34 129.48 63.84C129.57 63.9 129.49 64.2 129.49 64.4C129.06 64.85 128.24 64.77 127.88 65.39C127.52 66 126.55 65.71 126.24 66.39C125.65 66.39 125.05 66.39 124.46 66.39C124.18 66.76 123.66 66.94 123.55 67.53C123.75 67.86 123.97 68.24 124.25 68.72C124.03 68.99 123.8 69.27 123.49 69.65C123.61 69.9 123.76 70.22 123.71 70.12C124.49 71.13 123.77 71.98 124.43 72.61C124.85 72.23 125.26 71.86 125.69 71.47H129.82C130.19 71.12 130.54 70.79 130.92 70.42C131.35 70.38 131.82 70.33 132.26 70.28C132.66 69.88 132.08 69.86 132.06 69.71C131.74 69.02 131.89 68.38 131.93 67.75C132.21 67.48 132.49 67.21 132.77 66.95C133.46 66.95 134.16 66.95 134.85 66.95V68.35C134.66 68.55 134.46 68.75 134.28 68.94C135.33 69.49 134.3 70.42 135.39 70.8V68.46C135.67 68.15 135.84 67.96 136.07 67.7C135.54 67.56 135.46 66.91 134.85 66.95V66.1C134.57 65.84 134.29 65.58 133.89 65.2C133.59 65.66 133.29 66.13 133.12 66.39H131.58C131.09 65.92 130.6 65.46 130.1 64.98V63.86C131.19 62.46 132.67 61.57 134.57 61.86C135.02 62.31 135.49 62.79 136 63.29C136 63.42 136.02 63.6 136.04 63.79C136.69 64.1 137.4 64.35 137.8 65C137.033 66.12 136.673 67.3 136.72 68.54C136.97 68.59 137.24 68.65 137.59 68.72C138 69.12 138.48 69.59 138.98 70.08C138.8 70.26 138.61 70.46 138.42 70.67C138.42 70.94 138.42 71.22 138.42 71.51C137.47 71.64 136.26 71.21 135.49 71.74V72.99C135.8 73.27 136.07 73.52 136.4 73.82C136.54 73.44 136.66 73.11 136.78 72.78C137.54 72.61 138.19 72.31 138.42 71.51H139.97C140.08 71.82 140.2 72.15 140.34 72.54C140.57 72.59 140.84 72.64 141.2 72.71C141.3 72.98 141.42 73.31 141.55 73.66C142.06 73.62 142.24 73.17 142.55 72.92C142.37 72.72 142.19 72.53 142.01 72.33C142.43 71.87 142.96 72.17 143.44 72.07C143.85 71.7 144.27 71.32 144.66 70.96H146.41C146.87 71.39 147.29 71.63 147.91 71.7V72.39C149 72.91 149.05 74.24 150 74.91C150.3 76.06 151.35 76.65 152.07 77.48V78.61C151.78 78.89 151.5 79.15 151.2 79.44H150.03C149.55 78.95 149.6 78.07 148.73 77.82C148.3 78.16 148.6 78.67 148.49 79.2C149.27 79.73 150.09 80.28 150.91 80.84C150.55 81.18 150.27 81.45 150.38 81.35C149.53 81.81 149.14 82.02 148.55 82.34C148.2 82.01 147.79 81.62 147.28 81.12C147.09 81.23 146.78 81.42 146.38 81.65H144.45C144.56 80.99 145.16 80.79 145.46 80.38C145.12 79.78 144.78 79.17 144.43 78.55C144.56 78.41 144.76 78.21 144.94 78.02V76.31C144.45 75.83 144.37 76.5 144.03 76.59C143.62 76.61 143.15 76.63 142.59 76.66V78.75C142.23 78.82 141.96 78.87 141.64 78.93C141.15 79.88 140.81 80.87 139.23 80.58C139.1 80.33 138.88 79.9 138.66 79.47C138.58 79.55 138.49 79.62 138.41 79.7V77.97C137.69 77.6 136.95 77.71 136.21 77.83C136.07 78.2 135.95 78.52 135.79 78.98C135.55 78.48 135.36 78.11 135.21 77.8C134.46 78.18 133.73 78.55 133.07 78.89C132.42 78.77 132.02 77.77 131.31 78.61C131.94 79.21 132.57 79.81 133.2 80.41C134.11 80.58 134.8 81.39 135.82 81.21C136.25 81.6 135.94 82.1 136.07 82.63C136.36 82.72 136.7 82.83 137.04 82.94C137.49 83.58 137.12 84.63 137.23 85.36C136.76 85.79 136.5 86.18 136.46 86.79H134.51C134.1 86.36 133.64 85.87 133.1 85.3V84.27C132.27 84.03 131.63 83.52 131.04 82.87C130.83 83.04 130.63 83.2 130.39 83.39H129.26C129.04 83.59 128.82 83.78 128.61 83.96C128.4 83.77 128.19 83.58 128 83.42H126.83C126.59 83.61 126.39 83.78 126.19 83.94C125.81 83.57 125.46 83.24 125.1 82.9C124.42 83.12 124.87 83.66 124.71 84.1C125.06 84.75 125.74 85.14 126.19 85.61C126.54 85.7 126.81 85.77 127.21 85.88C126.43 86.25 125.73 86.49 125.34 87.11V87.68C126.07 87.98 126.84 88.65 127.89 88.5C128.31 88.65 128.41 89.17 128.87 89C128.97 89.36 128.92 89.8 129.44 89.42C129.28 89.29 129.12 89.16 128.87 89C129.13 88.42 129.47 87.9 130.36 87.94C131.12 88.95 131.38 90.22 131.23 91.7C130.43 92.05 129.68 92.37 128.94 92.69C128.93 92.89 128.84 93.13 128.91 93.27C129.57 93.71 129.42 94.62 130.06 95.06C129.67 95.52 129.14 95.22 128.62 95.32C128.43 94.95 128.24 94.57 128.04 94.18H127.37C126.88 95.08 125.8 95.27 124.95 95.79C124.7 95.33 124.65 94.77 124.18 94.42C124.46 94.15 124.74 93.89 125.03 93.61H125.7C125.77 92.81 126.71 92.36 126.46 91.53C125.33 91.06 123.86 91.46 122.66 91.33C121.73 92.66 120.66 91.37 119.45 91.33C119.36 92.27 119.39 93.09 119.42 93.91C123.38 95.12 118.94 96.64 119.39 98.99C118.81 99.56 118.08 99.16 117.43 99.27C116.82 98.65 115.64 98.75 115.33 97.75C117.32 97.19 116.75 98.14 117.15 95.94C116.5 95.9 116.12 95.87 115.63 95.84C114.5 94.75 112.92 94.21 111.45 93.49C111.1 93.86 110.83 94.14 110.5 94.48C110.79 96.33 110.25 97.51 108.22 98.09C108 97.77 107.69 97.31 107.48 97.02H106.47C106.41 96.72 106.34 96.4 106.3 96.17C107.1 95.36 107.37 96.26 107.92 96.41C107.99 96.15 108.06 95.9 108.13 95.63C106.66 94.76 104.72 94.43 103.73 93.05H102.43C102.28 93.19 102.14 93.33 101.92 93.53C101.53 93.57 101.06 93.61 100.6 93.66C99.0301 94.8 98.3401 96.4 96.9101 97.59C96.0701 97.39 95.4701 96.91 95.5701 95.91H92.9901C92.3401 96.58 91.6301 96.48 91.1501 95.89C90.4201 95.86 90.0501 95.15 89.3301 95.34C88.8101 96.03 89.1601 97.16 89.0701 97.86C89.3601 98.14 89.5001 98.27 89.6501 98.41V99.61C88.4101 99.77 88.5301 100.36 88.3001 101.43C87.8301 101.55 86.6401 101.51 85.8101 101.58C85.6001 101.76 85.3201 102.01 84.9801 102.32V103.63C85.3201 103.76 85.6601 103.89 86.0101 104.02C85.8401 104.31 85.6701 104.59 85.4301 105C85.6001 105.24 85.8201 105.53 86.0701 105.88C85.8201 106.07 85.5101 106.29 85.1201 106.58C84.1501 106.4 83.4801 107.36 82.5901 107.41C82.4301 108.45 83.3101 108.41 83.0901 109.39C82.7601 109.44 82.4901 109.48 82.2501 109.51C81.9301 109.21 81.6501 108.94 81.3601 108.66V107.3C80.8101 106.88 80.1301 106.35 79.5201 105.88V104.64C79.3401 104.47 79.2001 104.33 79.0501 104.19C79.2001 103.7 79.7501 103.81 80.0901 103.59C80.7101 103.09 81.3101 101.64 81.3601 100.7C81.5001 100.57 81.6401 100.43 81.8501 100.24C81.6001 99.75 81.3401 99.24 81.0801 98.73H80.4501C80.1001 99.37 79.9601 99.9 79.3101 100.39H76.9301C76.2001 101.09 75.5701 101.69 74.9201 102.31C75.3801 103.16 76.2701 103.72 75.9701 105.18C76.1801 105.4 76.3701 105.6 76.5801 105.83V108.13C76.3201 108.34 76.0301 108.59 75.6701 108.88C75.4501 108.69 75.1901 108.45 74.8601 108.17C75.0701 106.36 74.6701 104.75 73.6101 103.34C74.2301 102.09 74.7001 100.65 75.9301 99.66V98.38C75.7767 98.2334 75.3067 98.16 74.5201 98.16C74.3001 97.97 74.0901 97.78 73.8701 97.58H69.1401C67.6701 96.04 68.7701 93.74 68.0001 91.93H66.1201C65.8801 90.98 64.9101 90.35 65.3401 89.42C64.8601 88.88 64.3301 89.18 63.7801 89.06C63.3901 88.43 61.1801 86.88 60.5701 87.64C60.7601 87.84 60.9501 88.04 61.1401 88.24V89.37C60.8401 89.7 60.8401 89.7 58.3401 89.52C58.2201 89.19 58.1001 88.87 57.9501 88.48C57.4801 88.9 57.0601 89.27 56.6701 89.63H54.8901C54.3801 89.25 54.7301 88.74 54.5601 88.32C54.7801 88.09 54.9701 87.88 55.1901 87.65V85.41C55.0101 85.22 54.8101 85.02 54.6001 84.81C54.7301 83.22 53.6101 82.12 52.6201 81.13H50.1301C49.7201 80.62 48.9101 80.38 49.3201 79.49H47.4201C47.0301 79.24 46.7201 79.05 46.3601 78.82C45.1601 79.42 44.0401 80.24 42.4301 80C41.4001 79.28 41.4401 77.84 40.3301 77.45C40.3701 76.33 41.4601 76.22 41.5801 75.36C41.6701 74.71 42.2401 74.12 42.6301 73.44C41.8601 72.77 42.0301 72.2 43.0201 71.56C43.1801 71.69 43.3801 71.85 43.5601 71.99C44.4401 71.14 45.3401 70.28 46.2801 69.38C46.1901 68.68 46.9701 68.43 47.4201 67.85C47.5401 66.13 47.2601 65.28 46.6101 63.57C46.5301 63.52 46.0601 63.18 45.7101 62.93V61.59C46.6201 60.92 46.2201 59.69 46.3001 58.76C46.0801 58.53 45.8901 58.32 45.6801 58.1V57.01C45.0701 56.44 44.2301 57.06 43.6101 56.18H42.7301L42.7701 56.2ZM112.27 86.14C113.49 86.08 113.94 87.05 114.68 87.7C114.49 87.88 114.35 88.01 114.15 88.2C115.18 88.86 114.23 89.99 114.99 90.78C116.13 90.93 116.84 90.32 117.6 89.99C117.38 89.62 117.16 89.25 116.94 88.88C117.03 88.81 117.12 88.74 117.21 88.68C116.57 88.12 115.92 87.55 115.24 86.95V85.34C114.4 85.24 113.99 84.42 113.17 84.6C112.92 84.96 112.36 85.12 112.27 86.14ZM120.94 85.7H119.54C119.29 85.38 118.95 84.94 118.62 84.51C118.05 84.99 118.36 85.49 118.22 86.09C119.51 86.09 118.12 87.43 119.97 87.59C120.06 87.96 120.12 88.22 120.19 88.5C120.53 88.48 120.8 88.47 121.04 88.46C121.34 87.78 121.62 87.16 121.87 86.59C121.49 86.22 121.22 85.95 120.95 85.69L120.94 85.7ZM130.14 79.69C129.57 79.41 128.98 79.38 128.64 78.92C128.44 79.09 128.24 79.26 127.85 79.59C127.55 79.13 127.25 78.69 126.99 78.3C126.53 78.68 126.25 78.91 126.04 79.08C126.32 79.6 126.57 80.06 126.78 80.46C127.4 80.73 127.97 80.98 128.16 81.07C128.93 80.53 129.52 80.12 130.13 79.69H130.14ZM119.4 76.92C118.94 77.46 118.65 77.81 118.28 78.25V79.19C119.38 80.79 119.77 79.56 120.68 79.26C120.64 78.62 120.61 78.26 120.6 77.97C120.23 77.65 119.95 77.4 119.41 76.92H119.4ZM112.35 70.25C112.22 69.66 112.5 69.18 112.13 68.78C111.58 68.68 111.03 68.47 110.54 68.95V69.37C110.87 69.8 111.15 70.16 111.35 70.42C111.75 70.36 111.93 70.33 112.35 70.26V70.25ZM103.95 67.25C103.62 66.92 103.37 66.66 103.28 66.57C102.86 66.81 102.45 67.03 102.24 67.15C102.14 68.07 102.54 68.16 103.12 68.1C103.35 67.86 103.61 67.6 103.94 67.25H103.95ZM124.24 81.44C123.68 81.18 123.14 80.93 122.54 80.65C122.49 80.93 122.44 81.18 122.39 81.44C122.95 81.7 123.49 81.95 124.09 82.23C124.14 81.95 124.19 81.7 124.24 81.44ZM127.77 76.89C128.1 77.15 128.29 77.57 128.69 77.65C129.01 77.39 129.29 77.15 129.58 76.91C128.95 76.44 128.36 76.43 127.77 76.89ZM116.3 92.27C117.73 92.53 117.73 92.51 118.15 92.12C117.62 91.84 117.1 91.84 116.3 92.27ZM114.69 73.5C114.29 73.09 113.9 73.09 113.5 73.5C113.9 73.91 114.29 73.91 114.69 73.5ZM130.44 76.05C130.87 75.67 130.87 75.29 130.44 74.91C130.01 75.29 130.01 75.67 130.44 76.05ZM110.44 86.06C110.37 85.94 110.3 85.82 110.23 85.69C109.92 85.86 110.11 86.03 110.23 86.26C110.3 86.2 110.36 86.13 110.44 86.06ZM118.76 91.17C118.69 91.05 118.62 90.93 118.55 90.8C118.24 90.97 118.43 91.14 118.55 91.37C118.62 91.31 118.68 91.24 118.76 91.17Z" fill="url(#paint0_linear_2051_3873)"/>
<path d="M105.76 114.37V116.63C105.15 117.17 104.43 116.79 103.74 116.9C103.48 116.66 103.2 116.41 102.89 116.13C103.03 114.65 101.49 113.64 101.58 112.07C101.44 111.92 101.24 111.71 101.02 111.48C101.42 111.3 101.82 111.13 102.22 110.95C101.84 110.59 101.49 110.26 101.06 109.84C101.04 109.56 101.02 109.2 100.99 108.76C100.38 108.28 99.6999 107.75 99.2399 107.39V103.6C98.8299 103.19 98.4299 102.79 98.0199 102.38V101.27C96.7699 100.34 97.6699 99.67 98.9499 99.85C99.1799 100.11 99.4399 100.4 99.7799 100.79V101.9C100.18 102.19 100.64 102.52 100.98 102.77C101.03 103.19 100.97 103.27 101.01 103.53C101.66 103.88 101.48 104.71 102.14 105.23V107.48C102.38 107.71 102.52 107.84 102.73 108.04V109.53C103.66 111.35 104.53 112.85 105.75 114.37H105.76Z" fill="url(#paint1_linear_2051_3873)"/>
<path d="M38.01 87.15V89.95C36.98 92.56 34.95 91.88 32.43 91.92C30.89 90.49 30.26 87.65 31.67 85.84C32.01 85.71 32.43 85.54 32.27 85.6C33.39 84.89 34.28 85.19 34.82 85.13C36.44 85.6 37.3 86.29 38.01 87.15Z" fill="url(#paint2_linear_2051_3873)"/>
<path d="M164.02 76.88C164.23 77.09 164.42 77.29 164.6 77.48C164.41 77.69 164.24 77.88 164.07 78.07C164.45 78.43 164.79 78.76 165.15 79.11C164.75 79.77 164.34 80.43 163.92 81.11H160.03C159.76 80.71 159.34 80.08 158.93 79.45C158.88 79.51 158.83 79.57 158.79 79.63C158.13 78.75 158.09 77.64 158.16 76.27C158.59 76.01 158.68 75.57 158.77 75.12C159.13 74.67 160.12 75.28 160.05 74.36C162.25 74.08 163.56 74.91 165.21 75.76V76.36C164.84 76.53 164.43 76.71 164.02 76.89V76.88Z" fill="url(#paint3_linear_2051_3873)"/>
<path d="M83.19 12.52C83.22 13.23 83.7 13.11 84.26 12.99C84.31 12.76 84.36 12.51 84.43 12.2C85.36 11.29 85.56 12.62 86.37 12.72C86 13.36 85.77 13.64 85.57 14.22H84.61C84.43 15.32 83.62 15.77 82.77 16.61C82.67 16.17 82.61 15.92 82.54 15.6C81.92 15.02 81.37 14.24 80.28 14.06V12.26C80.34 12.19 80.51 11.98 80.69 11.74C80.31 11.02 79.91 10.27 79.48 9.45999C79.99 9.05999 80.45 8.70999 80.81 8.42999V7.07999C81.04 6.98999 81.29 6.89999 81.7 6.73999C82.1 7.23999 82.51 7.75999 83.12 8.53999V10.36C83.31 10.59 83.48 10.8 83.78 11.19C83.71 11.61 83.91 12.38 83.22 12.61C83.12 12.25 83.17 11.81 82.65 12.19C82.81 12.32 82.97 12.45 83.19 12.53V12.52Z" fill="url(#paint4_linear_2051_3873)"/>
<path d="M134.9 45.14V43.9C134.38 43.81 133.83 43.71 133.3 43.61C132.84 42.39 133.26 40.78 133.12 39.51C133.66 38.99 134.15 38.53 134.64 38.06H136.39C136.75 38.4 137.1 38.74 137.45 39.07C137.72 39.14 137.99 39.2 138.25 39.27C138.52 39.83 138.8 40.38 139.06 40.92C138.66 41.92 137.43 42.55 136.61 43.51V45.29C135.95 45.42 135.38 45.65 134.9 45.14Z" fill="url(#paint5_linear_2051_3873)"/>
<path d="M35.6401 66.22V64.43C36.3101 63.65 36.9401 64.54 37.4401 65.03V66.12C37.8301 66.72 38.4401 66.96 39.1501 67.14V70.14C38.8801 70.4 38.6001 70.66 38.3201 70.93H37.7401C37.5301 71.12 37.3101 71.31 37.1001 71.5C36.3201 71.5 35.5301 71.5 34.7401 71.5C34.2301 70.63 33.7001 69.76 33.8901 68.46C34.5801 67.79 34.5601 66.57 35.6401 66.21V66.22Z" fill="url(#paint6_linear_2051_3873)"/>
<path d="M73.38 128.24C72.99 128.24 72.6 128.24 72.2 128.24C71.81 127.77 71.38 127.54 70.74 127.54V125.64C71.62 124.91 72.34 123.8 73.68 123.38C73.54 122.35 74.05 121.83 74.44 121.04C74.79 120.87 75.28 120.63 75.84 120.36C76.01 120.56 76.26 120.84 76.55 121.17C76.44 121.3 76.28 121.49 76.12 121.67C76.61 122.64 77.43 123.34 77.24 124.67C76.73 124.76 76.19 124.84 75.66 124.93C75.15 126.1 74.63 127.29 73.38 128.24Z" fill="url(#paint7_linear_2051_3873)"/>
<path d="M9.81003 54.47C7.71003 54.55 6.17003 54.8 5.43003 52.54C5.21003 52.3 5.25003 51.53 5.50003 51.27C6.15003 49.18 7.45003 49.33 9.44003 49.43C10.27 50.23 11.02 50.94 11.87 51.75C11.87 52.34 10.83 52.52 10.74 53.08C10.63 53.74 10.2 54.03 9.82003 54.46L9.81003 54.47Z" fill="url(#paint8_linear_2051_3873)"/>
<path d="M161.94 60.17C161.69 59.7 161.44 59.23 161.15 58.7C161.25 58.59 161.43 58.39 161.63 58.17V57.08C162.18 56.76 162.16 56.15 162.48 55.66C163.9 55.59 165.09 55.6 166.33 56.41V59.38C165.94 59.79 165.41 59.5 164.94 59.6C164.74 59.78 164.53 59.97 164.31 60.16H161.94V60.17Z" fill="url(#paint9_linear_2051_3873)"/>
<path d="M147.68 51.09H147.08C146.81 50.83 146.54 50.56 146.14 50.18C146.59 49.87 147.05 49.55 147.38 49.31V47.99C148.02 47.46 148.05 47.27 148.17 46.3C149.04 47.78 149.36 48.73 149.16 50.25C149.82 50.86 150.46 51.38 150.61 52.27C151.04 51.62 152.59 51.22 152.74 52.22C152.47 53.19 151.32 53.44 151.39 54.47H149.47C149.27 54.29 148.99 54.04 148.63 53.73C148.6 53.16 148.56 52.53 148.53 51.91C148.24 51.63 147.96 51.37 147.68 51.1V51.09Z" fill="url(#paint10_linear_2051_3873)"/>
<path d="M31.3 74.79C30.24 74.32 29.42 73.94 28.54 73.55C28.71 73.35 28.88 73.16 29.08 72.93V71.86C29.49 71.45 29.89 71.05 30.3 70.64V70.09C30.88 69.81 31.45 69.53 32.02 69.25C33.17 69.36 33.09 70.6 33.83 71.2C33.65 71.4 33.48 71.59 33.28 71.81C33.67 73.63 32.61 74.1 31.3 74.79Z" fill="url(#paint11_linear_2051_3873)"/>
<path d="M30.5301 99.36C30.9301 98.99 31.5101 98.52 31.6301 97.74C32.2101 97.5 32.7901 97.26 33.4901 96.97C33.9301 97.78 34.6301 98.49 34.4501 99.59C33.5801 100.12 33.9201 101.06 33.8401 101.93C33.1601 102.01 32.5701 102.52 31.9501 102.75C31.1601 102.31 30.8001 101.4 29.8401 101.46C30.0401 100.86 30.2201 100.31 30.5301 99.36Z" fill="url(#paint12_linear_2051_3873)"/>
<path d="M42.04 105.74C42.42 105.03 42.66 104.57 42.95 104.02C43.65 103.7 44.38 103.13 45.54 103.28C45.85 103.63 46.22 104.05 46.45 104.32C46.94 104.43 47.2 104.49 47.48 104.56C48.07 106.59 45.83 106.41 44.98 107.78C43.08 108.3 43.05 106.66 42.03 105.74H42.04Z" fill="url(#paint13_linear_2051_3873)"/>
<path d="M66.25 103.85H70C70.07 103.25 70.12 102.8 70.17 102.37C70.78 101.88 71.5 102.35 72.15 102.06C72.44 102.39 72.69 102.67 73.03 103.05C71.41 104.37 71.14 106.08 68.89 106.76C68.63 106.59 68.33 106.39 67.95 106.13H66.8C66.6 105.88 66.36 105.59 65.94 105.09C65.92 104.89 65.87 104.1 66.24 103.84L66.25 103.85Z" fill="url(#paint14_linear_2051_3873)"/>
<path d="M146.74 6.25C146.74 6.25 146.52 6.19 146.27 6.12V4.82C146.43 4.63 146.59 4.44 146.75 4.26C146.56 4.08 146.42 3.95 146.24 3.77V2.15C146.04 1.92 145.86 1.72 145.67 1.5V0C147.14 1.13 148.98 1.11 150.36 2.08C150.34 2.28 150.33 2.46 150.31 2.64C149.92 2.85 149.68 2.93 149.19 3.07C149.36 3.28 149.51 3.46 149.57 3.54C148.7 4.37 147.83 5.2 146.74 6.24V6.25Z" fill="url(#paint15_linear_2051_3873)"/>
<path d="M40.9901 38.07C40.9101 37.4 40.3801 36.25 39.8101 35.45V33.76C41.3601 32.74 42.2301 32.86 43.9001 33.68V36.11C43.6301 36.37 43.3501 36.63 43.0801 36.9H42.4101C42.3101 37.2 42.2001 37.53 42.0401 37.97C41.7301 38 41.3601 38.03 41.0001 38.06L40.9901 38.07Z" fill="url(#paint16_linear_2051_3873)"/>
<path d="M106.1 110.6C105.56 110.13 105.07 109.69 104.58 109.26C104.8 109.03 105 108.82 105.2 108.61V107.51C106.27 106.7 106.7 105.52 107.18 104.34C107.77 104.9 108.26 105.37 108.74 105.83C108.54 106.03 108.35 106.23 108.15 106.43C108.02 107.34 109.05 107.54 109.38 108.29C109.29 108.47 109.1 108.91 109.08 108.9C108.29 108.63 108.05 109.83 107.27 109.52C106.87 109.89 106.46 110.27 106.1 110.6Z" fill="url(#paint17_linear_2051_3873)"/>
<path d="M59.4699 108.44C58.7899 108.11 58.2199 107.83 57.6399 107.55V106.91C57.9399 106.81 58.2799 106.7 58.7599 106.54C59.0899 105.66 58.1099 103.57 59.8799 103.83C60.5899 103.77 60.9699 102.91 61.7199 103.46V107.03C61.4599 107.28 61.1799 107.55 61.3099 107.43C60.4299 107.92 60.0399 108.13 59.4699 108.44Z" fill="url(#paint18_linear_2051_3873)"/>
<path d="M1.66 52.8H3.25C3.52 53.06 3.79 53.33 4.1 53.64V55.91C3.89 56.12 3.63 56.39 3.32 56.71H1.31C1.03 56.31 0.6 55.7 0 54.83V53.63C0.52 53.37 1 53.13 1.66 52.8Z" fill="url(#paint19_linear_2051_3873)"/>
<path d="M52.5999 92.06C53.0499 92.28 53.53 92.51 54.02 92.75C54.03 92.93 54.05 93.11 54.07 93.43C54.4399 93.72 54.88 94.07 55.25 94.36V95.63C54.98 95.89 54.7 96.15 54.38 96.45H53.27C53.04 96.64 52.83 96.81 52.61 96.99C52.23 96.62 51.71 96.48 51.2 96.31C51.04 95.68 50.86 95.05 51.63 94.56V92.72C51.9 92.54 52.2799 92.28 52.5999 92.06Z" fill="url(#paint20_linear_2051_3873)"/>
<path d="M32.6299 48.3C32.8399 47.94 33.0499 47.57 33.3399 47.08C33.1499 46.83 32.9399 46.55 32.6899 46.22C32.9399 46.02 33.2299 45.79 33.5399 45.54C34.0099 45.85 34.5799 46.09 35.3999 45.97C35.6999 46.34 36.0599 46.77 36.3399 47.12H37.6699C38.0099 47.78 38.0099 47.78 37.9399 48.62C37.5399 49.03 37.0199 48.73 36.5599 48.83C36.3499 48.64 36.1399 48.45 35.9299 48.26H34.6899C34.5799 48.56 34.4699 48.88 34.3399 49.25C33.3499 49.72 33.0499 48.96 32.6299 48.3Z" fill="url(#paint21_linear_2051_3873)"/>
<path d="M65.9601 96.19C66.1501 96.39 66.3501 96.59 66.5401 96.78C66.6701 97.49 66.0201 97.73 65.6801 98.15C64.7101 98.02 64.4901 99 63.6601 99.34C62.9701 99.21 62.4801 98.76 62.3201 97.92C63.1701 97.52 63.9701 97.13 64.8901 96.7C64.6301 96.2 64.3901 95.74 64.1301 95.25C64.4901 94.57 65.1601 94.18 65.6801 93.66C65.9701 93.93 66.2401 94.2 66.5401 94.48V95.61C66.3601 95.79 66.1601 95.99 65.9701 96.19H65.9601Z" fill="url(#paint22_linear_2051_3873)"/>
<path d="M35.3399 73.22C36.0399 73.9 37.2899 74.5 38.3099 74.35C38.6399 74.67 38.9199 74.93 39.1999 75.2V76.32C38.7199 76.81 38.1699 76.76 37.1399 76.08H35.2799C34.9199 75.64 34.4899 75.13 33.8999 74.41V73.44C34.3599 73.02 34.8699 73.31 35.3299 73.21L35.3399 73.22Z" fill="url(#paint23_linear_2051_3873)"/>
<path d="M116.48 103.7V101.89C117.41 101.64 118.1 100.65 119.25 101.1C119.38 101.42 119.52 101.73 119.65 102.05C119.65 102.05 121.06 101.7 121.07 101.69C121.39 102.3 121.18 102.94 121.21 103.57C120.76 104 120.66 103.98 119.76 103.3H118.46C118.2 103.61 117.85 104.05 117.5 104.47C117.11 104.17 116.83 103.96 116.47 103.69L116.48 103.7Z" fill="url(#paint24_linear_2051_3873)"/>
<path d="M127.77 42.87C128.05 42.6 128.33 42.34 128.64 42.04H130.45C130.68 42.25 130.96 42.51 131.29 42.8V44.57C130.77 45.48 129.59 45.54 128.62 45.37C128.34 45.1 128.06 44.83 127.78 44.57C127.78 44 127.78 43.43 127.78 42.87H127.77Z" fill="url(#paint25_linear_2051_3873)"/>
<path d="M52.59 88.53C52.38 88.34 52.1799 88.16 51.9799 87.98C51.7599 88.17 51.5499 88.36 51.3699 88.51H50.11C50.03 88.27 49.95 88.02 49.95 88.03C51.02 87.01 51.96 86.11 52.99 85.13C53.76 85.26 54 86.2 54.81 86.56C54.45 87.34 54.02 87.75 53.84 88.52H52.5999L52.59 88.53Z" fill="url(#paint26_linear_2051_3873)"/>
<path d="M123.61 106.97C123.8 105.79 122.96 104.99 122.49 104.09C123.18 103.9 122.72 102.84 123.54 102.72C124.13 102.72 124.84 103.46 125.73 104.99C125.92 104.99 126.11 105.01 126.37 105.02C126.45 105.24 126.53 105.49 126.6 105.7C126.03 106.72 124.91 106.78 124.12 107.31C123.9 107.17 123.75 107.08 123.59 106.99L123.61 106.97Z" fill="url(#paint27_linear_2051_3873)"/>
<path d="M77.5101 113.48H76.2701C76.1601 113.16 76.0401 112.84 75.8901 112.42H74.0401C73.6701 112.06 73.3901 111.8 73.0701 111.5C73.1001 111.27 73.1401 111.02 73.1901 110.68H75.7201C75.9501 110.46 76.0901 110.33 76.2301 110.19C77.0801 110.45 77.7301 111.57 78.4001 112.05C78.5401 112.91 77.8301 113.08 77.5001 113.48H77.5101Z" fill="url(#paint28_linear_2051_3873)"/>
<path d="M77.25 116.8V118.57C76.84 119.09 76.56 119.45 76.28 119.81C75.28 119.53 74.84 118.79 74.25 118.2C74.74 117.04 75.24 115.92 76.41 115.26C76.66 115.72 76.91 116.17 77.25 116.8Z" fill="url(#paint29_linear_2051_3873)"/>
<path d="M112.75 98.98C113.21 100.4 115.1 100.69 113.27 102.1H111.34C110.87 101.13 111.42 100.08 110.51 99.45C110.58 98.74 111.13 98.58 111.37 98.23C111.76 98.44 112.15 98.65 112.75 98.98Z" fill="url(#paint30_linear_2051_3873)"/>
<path d="M11.27 73.48C11.53 73.26 11.82 73.01 12.18 72.69H13.99C14.56 73.32 14.1 74.34 14.24 75.24C14 75.43 13.7 75.66 13.23 76.02C13.09 76.02 12.71 76.04 12.07 76.08C11.91 75.83 11.67 75.44 11.26 74.8V73.48H11.27Z" fill="url(#paint31_linear_2051_3873)"/>
<path d="M114.71 106.94V105.82C114.79 105.74 114.88 105.61 114.93 105.62C115.85 105.83 116.49 105.06 117.31 104.94C117.87 105.92 118.43 106.44 118.26 107.64C118.03 107.83 117.67 108.12 117.29 108.44C116.31 108.06 115.31 107.81 114.71 106.94Z" fill="url(#paint32_linear_2051_3873)"/>
<path d="M108.8 116.26C109.11 116.49 109.57 116.84 109.9 117.09V118.36C109.25 118.87 108.53 118.4 107.91 118.68C107.59 118.35 107.33 118.07 107 117.73V116.11C107.37 115.75 107.58 115.26 107.75 114.69H108.51C108.95 115.11 108.64 115.61 108.8 116.26Z" fill="url(#paint33_linear_2051_3873)"/>
<path d="M138.47 63.77V62.62C138.7 62.46 139.09 62.19 139.55 61.87H141.23C141.69 62.72 141.29 63.63 141.48 64.44C140.74 64.9 140.05 64.63 139.35 64.71C139.12 64.46 138.86 64.18 138.48 63.77H138.47Z" fill="url(#paint34_linear_2051_3873)"/>
<path d="M141.12 94.76H139.96C139.45 94.28 138.96 93.82 138.48 93.36V92.68C139 92.59 139.54 92.49 140.08 92.39C140.21 92.06 140.33 91.73 140.45 91.43C140.69 91.41 140.88 91.39 141.09 91.37C141.4 91.88 141.72 92.4 142.05 92.94C142.01 93.59 141.39 94.17 141.13 94.77L141.12 94.76Z" fill="url(#paint35_linear_2051_3873)"/>
<path d="M134.66 91.32C134.82 90.99 135 90.6 135.26 90.08C136.69 90.71 139.01 91.64 137.08 92.99C136.54 92.66 135.98 92.4 135.26 92.51C135.08 92.66 134.86 92.84 134.63 93.04C134.36 92.55 134.09 92.06 133.78 91.49C134.07 91.44 134.34 91.38 134.67 91.32H134.66Z" fill="url(#paint36_linear_2051_3873)"/>
<path d="M42.7701 56.2V58.2C42.5001 58.44 42.2201 58.7 41.9101 58.97H40.6001C40.1301 58.33 40.7901 57.4 39.8701 57.01C40.1501 56.72 40.4201 56.45 40.6801 56.19H42.7801L42.7701 56.2Z" fill="url(#paint37_linear_2051_3873)"/>
<path d="M41.28 31.24H40.02C39.99 30.43 39.13 30.09 39.22 29.26C39.44 29.04 39.71 28.77 40.02 28.46H41.35C41.64 29.07 41.91 29.62 42.17 30.17C42.08 30.7 41.55 30.88 41.27 31.25L41.28 31.24Z" fill="url(#paint38_linear_2051_3873)"/>
<path d="M132.26 102.71H131.06C130.34 102.31 131.1 101.45 130.46 101.01C129.88 100.61 130.19 100.03 130.23 99.51C130.64 99.12 131.16 99.41 131.62 99.31C132.09 100.25 133.05 101.42 132.25 102.72L132.26 102.71Z" fill="url(#paint39_linear_2051_3873)"/>
<path d="M153.92 49.92H151.18C150.64 49.16 151.06 48.15 150.94 47.31C151.25 47.22 151.43 47.17 151.6 47.12C152.53 47.54 153.16 48.46 153.91 49.07V49.91L153.92 49.92Z" fill="url(#paint40_linear_2051_3873)"/>
<path d="M128.97 107.56C128.66 108.83 127.85 108.91 127.46 110.15C127.02 109.63 126.62 109.13 126.14 108.57C126.17 108.53 126.33 108.35 126.52 108.11C126.38 107.94 126.21 107.76 125.96 107.46C126.25 107.17 126.56 106.87 126.76 106.67C127.87 106.48 128.43 106.96 128.97 107.55V107.56Z" fill="url(#paint41_linear_2051_3873)"/>
<path d="M104.79 118.65H106.14C106.42 118.92 106.7 119.18 106.97 119.44V120.6C106.71 120.83 106.42 121.07 106.07 121.38H104.71C104.61 120.44 104.39 119.59 104.79 118.65Z" fill="url(#paint42_linear_2051_3873)"/>
<path d="M52.8699 114.28C52.7599 115.17 53.1299 116.1 52.6599 116.82H51.3099C51.0599 116.5 50.5899 116.29 50.3999 115.69C50.8199 115.05 51.4499 114.53 52.1299 114C52.3899 114.1 52.6399 114.19 52.8699 114.28Z" fill="url(#paint43_linear_2051_3873)"/>
<path d="M133.68 55.06C133.58 55.01 133.34 54.91 133.03 54.77C133.28 53.71 134.43 53.34 134.54 52.23H135.86C135.95 52.45 136.05 52.69 136.08 52.77C135.25 53.56 134.5 54.27 133.68 55.05V55.06Z" fill="url(#paint44_linear_2051_3873)"/>
<path d="M49.9001 39.47C49.0901 40.46 48.4301 40.57 47.5801 39.53V38.25C48.1301 38.04 48.6701 37.91 49.0701 37.53C49.5301 37.91 49.2101 38.41 49.3201 38.88C49.5001 39.07 49.7001 39.27 49.9001 39.48V39.47Z" fill="url(#paint45_linear_2051_3873)"/>
<path d="M69.2201 99.31C69.4901 99.57 69.7601 99.83 70.0701 100.12V101.38C69.8401 101.51 69.4301 101.75 68.7601 102.14C69.0001 102.14 68.8101 102.14 68.6201 102.14C68.4268 101.953 68.3534 101.267 68.4001 100.08C68.6701 99.82 68.9401 99.56 69.2101 99.3L69.2201 99.31Z" fill="url(#paint46_linear_2051_3873)"/>
<path d="M142.63 30.41C142.37 30.64 142.09 30.89 141.65 31.28C141.55 30.96 141.45 30.61 141.34 30.26C140.69 29.96 140.92 29.31 140.85 28.64C141.08 28.55 141.32 28.45 141.76 28.28C142 28.63 142.26 29.01 142.64 29.57V30.41H142.63Z" fill="url(#paint47_linear_2051_3873)"/>
<path d="M47.15 45.43C46.86 45.43 47.05 45.43 47.27 45.43C47.69 46.1 47.5199 46.8 47.4399 47.49C46.9999 47.88 46.5 47.6 46.04 47.69C45.53 47.36 45.81 46.85 45.7 46.22C46.01 46.05 46.4199 45.82 47.1399 45.43H47.15Z" fill="url(#paint48_linear_2051_3873)"/>
<path d="M132.08 23.28C131.8 23.63 131.59 23.91 131.37 24.18C132.59 25.09 131.69 25.77 130.45 25.58C129.95 24.93 130.18 24.2 130.23 23.51C130.77 23.12 131.38 23.38 132.08 23.28Z" fill="url(#paint49_linear_2051_3873)"/>
<path d="M126.36 111.86C126.61 112.1 126.82 112.3 127.13 112.59C127.15 112.86 127.17 113.22 127.21 113.86C126.96 114.01 126.55 114.24 126.13 114.48C125.98 114.34 125.7 114.07 125.4 113.79V112.59C125.64 112.41 125.95 112.17 126.35 111.87L126.36 111.86Z" fill="url(#paint50_linear_2051_3873)"/>
<path d="M126.34 66.97C127.62 67.06 126.87 67.93 127.77 68.42C127.49 68.65 127.2 68.89 126.89 69.15C126.46 68.74 125.66 68.87 125.39 68.27C125.383 67.9766 125.7 67.5433 126.34 66.97Z" fill="url(#paint51_linear_2051_3873)"/>
<path d="M106.32 101.53C106.35 102.13 106.36 102.48 106.39 103.08C106.13 103.24 105.74 103.48 105.34 103.72C105.19 103.57 104.91 103.31 104.64 103.05V101.79C105.12 101.4 105.62 101.66 106.32 101.52V101.53Z" fill="url(#paint52_linear_2051_3873)"/>
<path d="M55.25 121.15C55.25 120.97 55.25 120.79 55.25 120.85C55.62 120.33 55.88 119.96 56.02 119.77C57.01 119.63 57.18 120.3 57.62 120.59C57.35 120.85 57.08 121.11 56.81 121.36C56.28 121.39 55.7 121.67 55.25 121.15Z" fill="url(#paint53_linear_2051_3873)"/>
<path d="M46.0201 17.49C46.3401 17.82 46.6401 18.14 46.9001 18.41C46.3401 18.94 45.8701 19.4 45.3901 19.85C45.1401 19.61 44.8601 19.35 44.5701 19.07C45.3701 18.49 44.8101 17.82 46.0201 17.49Z" fill="url(#paint54_linear_2051_3873)"/>
<path d="M78.3901 14.17V15.7C77.9301 16.12 77.4201 15.83 76.9601 15.93C76.3301 15.5 76.8801 14.91 76.6201 14.53C77.1601 14.03 77.6701 14.32 78.3901 14.17Z" fill="url(#paint55_linear_2051_3873)"/>
<path d="M87.3999 109.58V108.05C87.8599 107.63 88.3699 107.92 88.8299 107.82C89.3899 108.26 89.0999 108.81 89.0399 109.33C88.6299 109.71 88.1099 109.42 87.3999 109.57V109.58Z" fill="url(#paint56_linear_2051_3873)"/>
<path d="M35.53 105.9C36.03 105.45 36.31 105.2 36.55 104.99C37.35 104.88 37.57 105.51 37.99 105.85C36.97 106.86 36.8 106.98 35.52 105.91L35.53 105.9Z" fill="url(#paint57_linear_2051_3873)"/>
<path d="M43.07 82.29H43.65C44.23 82.72 43.91 83.27 43.88 83.79C43.48 84.19 42.97 83.89 42.52 83.99C42.24 83.5033 42.4233 82.9366 43.07 82.29Z" fill="url(#paint58_linear_2051_3873)"/>
<path d="M36.78 77.19V78.66C36.33 79.09 35.82 78.8 35.37 78.9C34.33 77.95 35.77 77.77 35.82 77.2H36.78V77.19Z" fill="url(#paint59_linear_2051_3873)"/>
<path d="M150.91 37.77V39.53C150.54 39.84 150.12 39.91 149.89 39.55C149.58 39.08 149 39.32 148.68 39.02C149.08 38.32 150.01 38.45 150.91 37.77Z" fill="url(#paint60_linear_2051_3873)"/>
<path d="M153.09 64.14C152.64 64.14 152.26 64.14 151.87 64.14C151.26 63.73 151.62 63.16 151.62 62.58C151.86 62.52 152.12 62.46 152.24 62.43C152.69 62.79 153.05 63.07 153.41 63.37C153.28 63.69 153.18 63.92 153.09 64.14Z" fill="url(#paint61_linear_2051_3873)"/>
<path d="M116.92 25H117.97C118.24 25.26 118.52 25.53 118.78 25.79V27.18C118.44 27.21 118.18 27.23 117.95 27.25C117.4 26.4 117.89 25.71 116.92 25Z" fill="url(#paint62_linear_2051_3873)"/>
<path d="M41.3901 72.65H40.1101C39.5301 72.22 39.8501 71.67 39.8801 71.07C40.1201 71.02 40.3801 70.96 40.6301 70.91C41.0201 71.41 41.8901 71.62 41.3901 72.65Z" fill="url(#paint63_linear_2051_3873)"/>
<path d="M55.5601 2.30999H54.3801C53.5601 1.71999 54.4801 1.07999 54.9101 0.609985H55.5501C56.0401 1.17999 56.0401 1.73999 55.5501 2.30999H55.5601Z" fill="url(#paint64_linear_2051_3873)"/>
<path d="M122.12 34.64H123.3C124.12 35.23 123.2 35.87 122.77 36.34H122.13C121.64 35.77 121.64 35.21 122.13 34.64H122.12Z" fill="url(#paint65_linear_2051_3873)"/>
<path d="M23.3101 19.36C23.2301 18.98 23.1901 18.81 23.1101 18.41C23.4001 18.25 23.8101 18.02 24.2301 17.79C24.3301 17.88 24.6001 18.14 24.8901 18.42V19.1C24.4301 19.5 23.9301 19.23 23.3201 19.36H23.3101Z" fill="url(#paint66_linear_2051_3873)"/>
<path d="M96.0699 102.8C96.4899 103.19 96.2599 103.71 96.1699 104.22C95.7099 104.47 95.0799 104.45 94.7499 105.03C94.6399 104.75 94.5399 104.52 94.3899 104.16C94.9499 103.71 95.5099 103.25 96.0699 102.79V102.8Z" fill="url(#paint67_linear_2051_3873)"/>
<path d="M143.36 42.84C143.62 42.54 143.86 42.26 144.18 41.89C144.24 42.93 145.17 43.14 144.93 44.18C144.64 44.23 144.38 44.27 144.12 44.32C143.87 43.84 143.64 43.39 143.36 42.85V42.84Z" fill="url(#paint68_linear_2051_3873)"/>
<path d="M86.1299 5.76001H87.1099C87.5399 6.20001 87.2499 6.68001 87.3599 7.16001C87.0299 7.35001 86.7499 7.97001 86.3199 7.86001C85.9899 7.26001 86.2299 6.62001 86.1299 5.76001Z" fill="url(#paint69_linear_2051_3873)"/>
<path d="M35.34 38.65C35.06 38.11 34.8 37.6 34.54 37.09C34.99 36.71 35.49 37.05 35.9 36.88C36.46 37.37 36.21 37.91 36.12 38.51C35.88 38.55 35.62 38.6 35.34 38.65Z" fill="url(#paint70_linear_2051_3873)"/>
<path d="M143.6 83.34C143.94 83.47 144.19 83.57 144.42 83.65C144.42 83.89 144.42 84.07 144.42 83.98C144.02 84.49 143.74 84.85 143.45 85.21C143.1 85.08 142.86 84.98 142.63 84.9C142.63 84.66 142.63 84.48 142.63 84.57C143.03 84.06 143.31 83.7 143.6 83.34Z" fill="url(#paint71_linear_2051_3873)"/>
<path d="M41.25 98.69C42.59 99.74 42.51 100.62 40.69 100.44C39.9 99.84 40.78 99.16 41.25 98.69Z" fill="url(#paint72_linear_2051_3873)"/>
<path d="M114.46 113.49H113.25C112.79 112.74 112.77 112.72 113.69 111.89C114.08 112.14 114.46 112.39 114.82 112.62C114.65 113.03 114.55 113.27 114.46 113.48V113.49Z" fill="url(#paint73_linear_2051_3873)"/>
<path d="M33.6801 20.91C33.5801 21 33.3101 21.26 33.0201 21.54H32.3101C31.8901 21.1 32.1701 20.62 32.0601 20.14C32.2901 20.04 32.5301 19.94 32.9801 19.75C33.2001 20.12 33.4401 20.51 33.6801 20.91Z" fill="url(#paint74_linear_2051_3873)"/>
<path d="M146.2 85.85V86.57C145.95 86.79 145.67 87.03 145.36 87.29C144.94 87.22 144.76 86.78 144.42 86.54C144.69 86.28 144.96 86.03 145.32 85.68C145.57 85.73 145.9 85.79 146.2 85.85Z" fill="url(#paint75_linear_2051_3873)"/>
<path d="M167.05 60.23V59.27C167.51 58.85 168.02 59.14 168.61 59.01C168.68 59.33 168.74 59.65 168.79 59.89C168.27 60.36 167.76 60.08 167.05 60.23Z" fill="url(#paint76_linear_2051_3873)"/>
<path d="M41.6399 45.77C41.6399 45.77 41.3399 45.48 40.9099 45.07C41.2799 44.85 41.6499 44.62 42.1999 44.29C42.0899 44.29 42.2799 44.29 42.5299 44.29C42.6199 44.5 42.7199 44.74 42.8899 45.14C42.4899 45.34 42.0699 45.55 41.6399 45.76V45.77Z" fill="url(#paint77_linear_2051_3873)"/>
<path d="M60.3099 30.06C59.9399 29.74 59.6699 29.49 59.4199 29.27C59.3599 28.71 59.4599 28.33 60.4199 28.43C60.5399 28.63 60.7799 29.02 61.0299 29.42C60.9299 29.51 60.6599 29.75 60.3199 30.06H60.3099Z" fill="url(#paint78_linear_2051_3873)"/>
<path d="M155.66 57.28V58.24C155.2 58.66 154.69 58.37 154.1 58.5C154.03 58.18 153.97 57.86 153.92 57.62C154.44 57.15 154.95 57.43 155.66 57.28Z" fill="url(#paint79_linear_2051_3873)"/>
<path d="M100.51 112.31H98.7601C98.7001 112.02 98.6501 111.77 98.6001 111.54C99.1001 110.99 99.6701 111.25 100.3 111.33C100.35 111.56 100.4 111.81 100.5 112.31H100.51Z" fill="url(#paint80_linear_2051_3873)"/>
<path d="M139.12 58.09V56.99C139.58 56.55 140.11 56.93 140.67 56.65C140.75 57.07 140.81 57.38 140.86 57.63C140.34 58.13 139.81 57.75 139.12 58.1V58.09Z" fill="url(#paint81_linear_2051_3873)"/>
<path d="M25.24 45.43C25.51 45.69 25.78 45.94 26.19 46.34C25.83 46.58 25.47 46.81 25 47.12H24.6C23.83 46.22 24.84 45.93 25.24 45.43Z" fill="url(#paint82_linear_2051_3873)"/>
<path d="M27.9099 54.91V54.19C28.1599 53.97 28.4399 53.73 28.7699 53.45C29.2199 53.48 29.2999 54.04 29.7399 54.17C29.4199 54.47 29.1599 54.73 28.7899 55.08C28.5399 55.03 28.2099 54.97 27.9099 54.91Z" fill="url(#paint83_linear_2051_3873)"/>
<path d="M170.52 61.01C170.18 61.36 169.93 61.62 169.7 61.86C169.12 61.92 168.71 61.82 168.82 60.91C169.03 60.79 169.44 60.56 169.86 60.33C169.95 60.42 170.21 60.68 170.53 61.01H170.52Z" fill="url(#paint84_linear_2051_3873)"/>
<path d="M164.33 53.93H163.74C163.17 53.49 163.47 52.94 163.53 52.34C163.77 52.29 164.04 52.24 164.29 52.19C164.83 52.79 164.82 53.36 164.33 53.93Z" fill="url(#paint85_linear_2051_3873)"/>
<path d="M147.53 43.85C147.77 43.64 148.03 43.41 148.32 43.16C148.4 43.35 148.95 45.32 148.89 45.53C148.43 44.96 148.02 44.46 147.53 43.85Z" fill="url(#paint86_linear_2051_3873)"/>
<path d="M62.6799 26.7C63.0199 27.17 63.8499 27.39 63.4599 28.29C63.2399 28.33 62.9799 28.39 62.6999 28.44C62.4399 28.16 62.1899 27.89 61.9099 27.58C61.9699 27.18 62.4399 27.02 62.6899 26.69L62.6799 26.7Z" fill="url(#paint87_linear_2051_3873)"/>
<path d="M117.09 25C116.52 24.94 115.95 25.13 115.36 24.81C115.34 24.6 115.32 24.35 115.29 24.13C115.81 23.68 116.35 23.85 117 24C117.03 24.31 117.05 24.65 117.08 25H117.09Z" fill="url(#paint88_linear_2051_3873)"/>
<path d="M85.5701 14.22C86.1801 14.29 86.4101 14.78 86.8401 15.24C86.6301 15.63 86.3901 16.06 86.1601 16.49C85.0701 16.47 85.7301 14.9 85.5701 14.22Z" fill="url(#paint89_linear_2051_3873)"/>
<path d="M169.19 82.96C169.57 83.36 169.29 83.84 169.38 84.27C168.99 84.7 168.59 84.64 168.19 84.31V83.73C168.52 83.47 168.71 83.04 169.19 82.96Z" fill="url(#paint90_linear_2051_3873)"/>
<path d="M75.18 6.38999C74.75 6.22999 74.51 6.14999 74.22 6.03999C74.78 5.69999 74.83 5.14999 75.05 4.67999C75.54 4.73999 75.7 5.18999 75.91 5.32999C75.67 5.67999 75.41 6.04999 75.18 6.38999Z" fill="url(#paint91_linear_2051_3873)"/>
<path d="M67.79 109.57V108.51C68.07 108.45 68.33 108.4 68.57 108.35C68.89 108.69 69.32 108.88 69.42 109.33C69 109.7 68.5 109.42 67.79 109.57Z" fill="url(#paint92_linear_2051_3873)"/>
<path d="M170.27 91.94C169.82 91.85 169.32 92.11 168.89 91.76C168.96 91.29 169.43 91.13 169.69 90.8C170.69 90.91 170.73 90.96 170.27 91.94Z" fill="url(#paint93_linear_2051_3873)"/>
<path d="M130.26 49.77C128.49 50.53 128.76 48.61 129.96 48.35C130.36 48.76 129.99 49.25 130.26 49.77Z" fill="url(#paint94_linear_2051_3873)"/>
<path d="M148.28 11.95H147.56C147.5 11.67 147.42 11.35 147.36 11.09C147.98 10.7 148.51 10.75 149.05 10.99C149 11.47 148.51 11.62 148.27 11.96L148.28 11.95Z" fill="url(#paint95_linear_2051_3873)"/>
<path d="M136.39 54.5H137.11C137.17 54.79 137.24 55.1 137.33 55.5C136.94 55.57 136.68 55.63 136.44 55.67C135.95 55.26 135.96 54.89 136.39 54.5Z" fill="url(#paint96_linear_2051_3873)"/>
<path d="M17.16 44.21V45.31C16.86 45.36 16.59 45.41 16.19 45.49C16.12 45.14 16.06 44.82 15.98 44.43C16.37 44.36 16.64 44.31 17.15 44.22L17.16 44.21Z" fill="url(#paint97_linear_2051_3873)"/>
<path d="M129.25 68.68H129.97C130.03 68.97 130.1 69.28 130.19 69.68C129.8 69.75 129.54 69.81 129.3 69.85C128.81 69.44 128.82 69.07 129.25 68.68Z" fill="url(#paint98_linear_2051_3873)"/>
<path d="M96.81 100.96V101.92C96.24 102.25 95.72 102.22 95.05 101.89C95.61 101.59 96.11 101.33 96.81 100.95V100.96Z" fill="url(#paint99_linear_2051_3873)"/>
<path d="M108.07 101.06H109.22C109.28 101.35 109.33 101.6 109.4 101.98C109.03 102.05 108.7 102.11 108.29 102.18C108.22 101.81 108.16 101.55 108.07 101.06Z" fill="url(#paint100_linear_2051_3873)"/>
<path d="M17.5101 72.08H18.2301C18.2901 72.37 18.3601 72.68 18.4501 73.08C18.0601 73.15 17.8001 73.21 17.5601 73.25C17.0701 72.84 17.0801 72.47 17.5101 72.08Z" fill="url(#paint101_linear_2051_3873)"/>
<path d="M151.84 44.29H152.56C152.62 44.58 152.69 44.89 152.78 45.29C152.39 45.36 152.13 45.42 151.89 45.46C151.4 45.05 151.41 44.68 151.84 44.29Z" fill="url(#paint102_linear_2051_3873)"/>
<path d="M120.69 111.27V110.36C120.82 110.22 120.88 110.15 120.94 110.09C121.15 110.73 122.1 110.4 122.3 111.05C121.88 111.39 121.38 111.13 120.68 111.27H120.69Z" fill="url(#paint103_linear_2051_3873)"/>
<path d="M156.3 77.47V78.16C156 78.22 155.67 78.29 155.26 78.37C155.18 78 155.13 77.75 155.08 77.52C155.5 77.05 155.9 77.07 156.3 77.47Z" fill="url(#paint104_linear_2051_3873)"/>
<path d="M172.05 42.02H171.33C171.27 41.73 171.2 41.42 171.11 41.02C171.5 40.95 171.76 40.89 172 40.85C172.49 41.26 172.48 41.63 172.05 42.02Z" fill="url(#paint105_linear_2051_3873)"/>
<path d="M109.04 26.14H109.76C109.82 26.43 109.89 26.74 109.98 27.14C109.59 27.21 109.33 27.27 109.09 27.31C108.6 26.9 108.61 26.53 109.04 26.14Z" fill="url(#paint106_linear_2051_3873)"/>
<path d="M157.49 29.22V29.94C157.19 30 156.86 30.07 156.45 30.15C156.37 29.78 156.32 29.53 156.27 29.3C156.7 28.83 157.09 28.89 157.49 29.22Z" fill="url(#paint107_linear_2051_3873)"/>
<path d="M41.5801 65.84C41.5801 65.28 42.1701 65.14 42.4401 64.72C42.7801 64.98 43.1101 65.23 43.4701 65.5C42.7401 66.01 42.1401 65.76 41.5701 65.84H41.5801Z" fill="url(#paint108_linear_2051_3873)"/>
<path d="M86.76 108.1V108.79C86.46 108.85 86.13 108.92 85.72 109C85.64 108.63 85.59 108.38 85.54 108.15C85.96 107.68 86.36 107.7 86.76 108.1Z" fill="url(#paint109_linear_2051_3873)"/>
<path d="M78.98 104.9V106C78.68 106.06 78.41 106.1 78.01 106.18C77.94 105.83 77.88 105.51 77.8 105.12C78.19 105.05 78.46 105 78.97 104.91L78.98 104.9Z" fill="url(#paint110_linear_2051_3873)"/>
<path d="M157.41 50.98C157.14 51.03 156.88 51.08 156.63 51.12C156.3 50.81 156 50.52 155.56 50.1C156.05 50.01 156.31 49.96 156.55 49.92C156.84 50.27 157.29 50.45 157.4 50.98H157.41Z" fill="url(#paint111_linear_2051_3873)"/>
<path d="M51.74 100.53V99.43C52.04 99.37 52.31 99.33 52.71 99.25C52.78 99.6 52.84 99.92 52.92 100.31C52.53 100.38 52.26 100.43 51.75 100.52L51.74 100.53Z" fill="url(#paint112_linear_2051_3873)"/>
<path d="M50.7899 83.99H51.5099C51.5699 84.28 51.6399 84.59 51.7299 84.99C51.3399 85.06 51.0799 85.12 50.8399 85.16C50.3499 84.75 50.3599 84.38 50.7899 83.99Z" fill="url(#paint113_linear_2051_3873)"/>
<path d="M118.35 116.84H117.2C117.14 116.55 117.09 116.3 117.02 115.92C117.39 115.85 117.72 115.79 118.13 115.72C118.2 116.09 118.26 116.35 118.35 116.84Z" fill="url(#paint114_linear_2051_3873)"/>
<path d="M94.25 14.58C93.57 14.7 93.24 14.75 92.97 14.8C92.59 14.38 92.59 14.07 92.88 13.74C93.4 13.78 93.49 14.33 94.25 14.58Z" fill="url(#paint115_linear_2051_3873)"/>
<path d="M127.68 85.8C127.8 85.17 127.87 84.86 127.94 84.47C128.37 84.85 128.66 85.15 129.1 85.55C128.59 85.64 128.33 85.69 127.68 85.8Z" fill="url(#paint116_linear_2051_3873)"/>
<path d="M144.78 12.06C144.16 11.37 144.61 10.87 144.1 9.95001C145.01 10.71 145.03 10.71 144.78 12.06Z" fill="url(#paint117_linear_2051_3873)"/>
<path d="M29.1001 81.68C29.6301 81.76 29.9601 81.81 30.4001 81.87C29.9401 82.31 29.8101 82.57 29.3001 82.76C29.0901 82.28 29.0801 82.39 29.1001 81.67V81.68Z" fill="url(#paint118_linear_2051_3873)"/>
<path d="M78.4299 4.54003C78.9599 4.62003 79.2899 4.67003 79.7299 4.73003C79.2699 5.17003 79.1399 5.43003 78.6299 5.62003C78.4199 5.14003 78.4099 5.25003 78.4299 4.53003V4.54003Z" fill="url(#paint119_linear_2051_3873)"/>
<path d="M172.54 46.13C172.45 45.7 172.38 45.39 172.33 45.13C172.75 44.75 173.08 44.77 173.43 45.02C173.36 45.49 172.89 45.66 172.54 46.13Z" fill="url(#paint120_linear_2051_3873)"/>
<path d="M61.6899 93.29C62.0699 93.06 62.4399 92.84 62.8499 92.6C62.8899 92.82 62.9399 93.13 62.9799 93.39C62.5299 93.72 62.2099 93.75 61.6899 93.29Z" fill="url(#paint121_linear_2051_3873)"/>
<path d="M73.2601 10.37C73.1801 9.95 73.1201 9.64 73.0801 9.38C73.5201 9.01 73.8401 9.02 74.1801 9.29C74.0901 9.75 73.6401 9.93 73.2601 10.37Z" fill="url(#paint122_linear_2051_3873)"/>
<path d="M59.41 96.47C59.13 96.47 58.86 96.47 58.58 96.47C58.07 96.17 58.1 95.81 58.44 95.4C58.9 95.65 59.32 95.92 59.41 96.47Z" fill="url(#paint123_linear_2051_3873)"/>
<path d="M153.88 55.06C153.96 54.55 154.01 54.24 154.08 53.82C154.54 54.26 154.81 54.38 155.02 54.87C154.52 55.07 154.63 55.08 153.88 55.06Z" fill="url(#paint124_linear_2051_3873)"/>
<path d="M149.12 41.45C149.2 40.94 149.25 40.63 149.32 40.21C149.78 40.65 150.05 40.77 150.26 41.26C149.76 41.46 149.87 41.47 149.12 41.45Z" fill="url(#paint125_linear_2051_3873)"/>
<path d="M32.1801 65.2C31.7601 64.01 32.9901 63.89 32.5601 65.18C32.4301 65.18 32.3101 65.19 32.1801 65.2Z" fill="url(#paint126_linear_2051_3873)"/>
<path d="M139.25 82.42C139.75 82.72 139.77 83.03 139.45 83.36C138.66 83.16 139.37 82.7 139.25 82.42Z" fill="url(#paint127_linear_2051_3873)"/>
<path d="M149.17 84.84C149.57 84.43 149.96 84.43 150.36 84.84C149.96 85.25 149.57 85.25 149.17 84.84Z" fill="url(#paint128_linear_2051_3873)"/>
<path d="M172.65 57.33C173.08 57.71 173.08 58.09 172.65 58.47C172.22 58.09 172.22 57.71 172.65 57.33Z" fill="url(#paint129_linear_2051_3873)"/>
<path d="M172.65 90.8C172.22 90.42 172.22 90.04 172.65 89.66C173.08 90.04 173.08 90.42 172.65 90.8Z" fill="url(#paint130_linear_2051_3873)"/>
<path d="M86.1601 17.63C86.0501 17.99 86.4501 18.51 85.8101 18.72C85.6368 18.22 85.7535 17.8567 86.1601 17.63Z" fill="url(#paint131_linear_2051_3873)"/>
<path d="M122.37 93.35C122.86 92.98 123.19 92.96 123.53 93.27C123.28 93.89 122.91 93.72 122.37 93.35Z" fill="url(#paint132_linear_2051_3873)"/>
<path d="M59.4099 96.47C59.7899 96.57 60.3299 96.2 60.5499 96.8C60.0232 96.9667 59.6432 96.8567 59.4099 96.47Z" fill="url(#paint133_linear_2051_3873)"/>
<path d="M61.01 18.07C60.51 17.77 60.49 17.46 60.81 17.13C61.6 17.33 60.89 17.79 61.01 18.07Z" fill="url(#paint134_linear_2051_3873)"/>
<path d="M86.1599 16.49C87.0099 16.36 86.9399 17.78 86.1599 17.62V16.49Z" fill="url(#paint135_linear_2051_3873)"/>
<path d="M35.6399 52.51C36.0399 52.1 36.4299 52.1 36.8299 52.51C36.4299 52.92 36.0399 52.92 35.6399 52.51Z" fill="url(#paint136_linear_2051_3873)"/>
<path d="M54.58 102.6C53.34 103 53.21 101.83 54.56 102.24C54.56 102.36 54.57 102.48 54.58 102.6Z" fill="url(#paint137_linear_2051_3873)"/>
<path d="M43.96 51.38C44.36 50.97 44.75 50.97 45.15 51.38C44.75 51.79 44.36 51.79 43.96 51.38Z" fill="url(#paint138_linear_2051_3873)"/>
<path d="M134.82 106.01C133.58 106.41 133.45 105.24 134.8 105.65C134.8 105.77 134.81 105.89 134.82 106.01Z" fill="url(#paint139_linear_2051_3873)"/>
<path d="M122.42 108.95C122.187 109.337 121.807 109.447 121.28 109.28C121.5 108.67 122.04 109.05 122.42 108.95Z" fill="url(#paint140_linear_2051_3873)"/>
<path d="M123.31 111.22C123.74 111.6 123.74 111.98 123.31 112.36C122.88 111.98 122.88 111.6 123.31 111.22Z" fill="url(#paint141_linear_2051_3873)"/>
<path d="M155.11 45.71C154.71 46.12 154.32 46.12 153.92 45.71C154.32 45.3 154.71 45.3 155.11 45.71Z" fill="url(#paint142_linear_2051_3873)"/>
<path d="M64.8801 116.81C64.4601 115.62 65.6901 115.5 65.2601 116.79C65.1301 116.79 65.0101 116.8 64.8801 116.81Z" fill="url(#paint143_linear_2051_3873)"/>
<path d="M60.5999 117.74C60.1999 118.15 59.8099 118.15 59.4099 117.74C59.8099 117.33 60.1999 117.33 60.5999 117.74Z" fill="url(#paint144_linear_2051_3873)"/>
<path d="M115.29 117.74C114.89 118.15 114.5 118.15 114.1 117.74C114.5 117.33 114.89 117.33 115.29 117.74Z" fill="url(#paint145_linear_2051_3873)"/>
<path d="M84.6799 122.56C85.1099 122.94 85.1099 123.32 84.6799 123.7C84.2499 123.32 84.2499 122.94 84.6799 122.56Z" fill="url(#paint146_linear_2051_3873)"/>
<path d="M93.4101 10.18C92.9901 8.99 94.2201 8.87 93.7901 10.16C93.6601 10.16 93.5401 10.17 93.4101 10.18Z" fill="url(#paint147_linear_2051_3873)"/>
<path d="M30.96 37.02C32.21 36.62 32.33 37.79 30.98 37.38L30.96 37.02Z" fill="url(#paint148_linear_2051_3873)"/>
<path d="M41.0301 37.97C40.7634 38.41 40.3668 38.5466 39.8401 38.38C40.0701 37.79 40.6101 38.19 41.0301 37.97Z" fill="url(#paint149_linear_2051_3873)"/>
<path d="M154.01 37.02C155.25 36.62 155.38 37.79 154.03 37.38C154.03 37.26 154.02 37.14 154.01 37.02Z" fill="url(#paint150_linear_2051_3873)"/>
<path d="M50.2 40.32C50.32 40.54 50.51 40.72 50.2 40.89C50.08 40.67 49.89 40.49 50.2 40.32Z" fill="url(#paint151_linear_2051_3873)"/>
<path d="M146.71 46.19C146.64 46.31 146.57 46.43 146.5 46.56C146.19 46.39 146.38 46.22 146.5 45.99C146.57 46.05 146.63 46.12 146.71 46.19Z" fill="url(#paint152_linear_2051_3873)"/>
<path d="M141.23 51.01C141.11 50.94 140.98 50.88 140.85 50.81C141.02 50.51 141.21 50.7 141.44 50.81C141.37 50.87 141.31 50.94 141.23 51.01Z" fill="url(#paint153_linear_2051_3873)"/>
<path d="M55.17 25.2C55.1 25.32 55.03 25.44 54.96 25.57C54.65 25.4 54.84 25.23 54.96 25C55.03 25.06 55.09 25.13 55.17 25.2Z" fill="url(#paint154_linear_2051_3873)"/>
<path d="M169.97 59.32C169.74 59.43 169.55 59.62 169.38 59.32C169.61 59.21 169.8 59.02 169.97 59.32Z" fill="url(#paint155_linear_2051_3873)"/>
<path d="M172.86 59.97C172.78 60.05 172.71 60.11 172.65 60.17C172.53 59.95 172.34 59.77 172.65 59.6C172.72 59.72 172.79 59.85 172.86 59.97Z" fill="url(#paint156_linear_2051_3873)"/>
<path d="M35.5501 24.64C35.4801 24.76 35.4101 24.88 35.3401 25.01C35.0301 24.84 35.2201 24.67 35.3401 24.44C35.4101 24.5 35.4701 24.57 35.5501 24.64Z" fill="url(#paint157_linear_2051_3873)"/>
<path d="M169.59 63.65C169.71 63.72 169.84 63.78 169.97 63.85C169.8 64.15 169.61 63.96 169.38 63.85C169.45 63.79 169.51 63.72 169.59 63.65Z" fill="url(#paint158_linear_2051_3873)"/>
<path d="M64.68 23.67C64.6 23.75 64.53 23.81 64.47 23.87C64.35 23.65 64.16 23.47 64.47 23.3C64.54 23.42 64.61 23.55 64.68 23.67Z" fill="url(#paint159_linear_2051_3873)"/>
<path d="M131.76 23.36C132 23.09 132.14 22.94 132.28 22.78C132.68 23.28 132.22 23.23 131.76 23.36Z" fill="url(#paint160_linear_2051_3873)"/>
<path d="M131.84 21.8C131.77 21.92 131.7 22.04 131.63 22.17C131.32 22 131.51 21.83 131.63 21.6C131.7 21.66 131.76 21.73 131.84 21.8Z" fill="url(#paint161_linear_2051_3873)"/>
<path d="M102.59 98.26C102.67 98.34 102.74 98.4 102.8 98.46C102.57 98.57 102.38 98.76 102.21 98.46C102.34 98.39 102.47 98.32 102.59 98.26Z" fill="url(#paint162_linear_2051_3873)"/>
<path d="M94.4799 99.03C94.2499 99.14 94.0599 99.33 93.8899 99.03C94.1199 98.92 94.3099 98.73 94.4799 99.03Z" fill="url(#paint163_linear_2051_3873)"/>
<path d="M77.2499 103C77.0199 103.11 76.8299 103.3 76.6599 103C76.8899 102.89 77.0799 102.7 77.2499 103Z" fill="url(#paint164_linear_2051_3873)"/>
<path d="M116.64 103.78C116.4 104.05 116.26 104.2 116.12 104.36C115.72 103.86 116.18 103.91 116.64 103.78Z" fill="url(#paint165_linear_2051_3873)"/>
<path d="M58.14 105.91C58.06 105.99 57.99 106.05 57.93 106.11C57.81 105.89 57.62 105.71 57.93 105.54C58 105.66 58.07 105.79 58.14 105.91Z" fill="url(#paint166_linear_2051_3873)"/>
<path d="M122.85 108.45C123.09 108.18 123.23 108.03 123.37 107.87C123.77 108.37 123.31 108.32 122.85 108.45Z" fill="url(#paint167_linear_2051_3873)"/>
<path d="M123.01 108.38C123.03 108.77 122.83 108.96 122.42 108.95C122.4 108.56 122.6 108.37 123.01 108.38Z" fill="url(#paint168_linear_2051_3873)"/>
<path d="M66.16 109.03C66.28 109.1 66.41 109.16 66.54 109.23C66.37 109.53 66.18 109.34 65.95 109.23C66.02 109.17 66.08 109.1 66.16 109.03Z" fill="url(#paint169_linear_2051_3873)"/>
<path d="M80.3 112.15C80.37 112.03 80.44 111.91 80.51 111.78C80.82 111.95 80.63 112.12 80.51 112.35C80.44 112.29 80.38 112.22 80.3 112.15Z" fill="url(#paint170_linear_2051_3873)"/>
<path d="M41.75 65.78C41.51 66.05 41.37 66.2 41.23 66.36C40.83 65.86 41.29 65.91 41.75 65.78Z" fill="url(#paint171_linear_2051_3873)"/>
<defs>
<linearGradient id="paint0_linear_2051_3873" x1="40.3301" y1="17.09" x2="154.508" y2="21.1761" gradientUnits="userSpaceOnUse">
<stop stop-color="#FF6E05"/>
<stop offset="1" stop-color="#F83C27"/>
</linearGradient>
<linearGradient id="paint1_linear_2051_3873" x1="97.4209" y1="99.8207" x2="105.951" y2="99.9437" gradientUnits="userSpaceOnUse">
<stop stop-color="#FF6E05"/>
<stop offset="1" stop-color="#F83C27"/>
</linearGradient>
<linearGradient id="paint2_linear_2051_3873" x1="30.884" y1="85.1166" x2="38.1678" y2="85.3407" gradientUnits="userSpaceOnUse">
<stop stop-color="#FF6E05"/>
<stop offset="1" stop-color="#F83C27"/>
</linearGradient>
<linearGradient id="paint3_linear_2051_3873" x1="158.135" y1="74.3046" x2="165.367" y2="74.5272" gradientUnits="userSpaceOnUse">
<stop stop-color="#FF6E05"/>
<stop offset="1" stop-color="#F83C27"/>
</linearGradient>
<linearGradient id="paint4_linear_2051_3873" x1="79.48" y1="6.73999" x2="86.5263" y2="6.88559" gradientUnits="userSpaceOnUse">
<stop stop-color="#FF6E05"/>
<stop offset="1" stop-color="#F83C27"/>
</linearGradient>
<linearGradient id="paint5_linear_2051_3873" x1="133.078" y1="38.06" x2="139.195" y2="38.2064" gradientUnits="userSpaceOnUse">
<stop stop-color="#FF6E05"/>
<stop offset="1" stop-color="#F83C27"/>
</linearGradient>
<linearGradient id="paint6_linear_2051_3873" x1="33.8506" y1="64.1221" x2="39.2702" y2="64.2374" gradientUnits="userSpaceOnUse">
<stop stop-color="#FF6E05"/>
<stop offset="1" stop-color="#F83C27"/>
</linearGradient>
<linearGradient id="paint7_linear_2051_3873" x1="70.74" y1="120.36" x2="77.415" y2="120.524" gradientUnits="userSpaceOnUse">
<stop stop-color="#FF6E05"/>
<stop offset="1" stop-color="#F83C27"/>
</linearGradient>
<linearGradient id="paint8_linear_2051_3873" x1="5.28638" y1="49.3809" x2="12.0126" y2="49.636" gradientUnits="userSpaceOnUse">
<stop stop-color="#FF6E05"/>
<stop offset="1" stop-color="#F83C27"/>
</linearGradient>
<linearGradient id="paint9_linear_2051_3873" x1="161.15" y1="55.6331" x2="166.444" y2="55.812" gradientUnits="userSpaceOnUse">
<stop stop-color="#FF6E05"/>
<stop offset="1" stop-color="#F83C27"/>
</linearGradient>
<linearGradient id="paint10_linear_2051_3873" x1="146.14" y1="46.3" x2="152.889" y2="46.4614" gradientUnits="userSpaceOnUse">
<stop stop-color="#FF6E05"/>
<stop offset="1" stop-color="#F83C27"/>
</linearGradient>
<linearGradient id="paint11_linear_2051_3873" x1="28.54" y1="69.25" x2="33.948" y2="69.4029" gradientUnits="userSpaceOnUse">
<stop stop-color="#FF6E05"/>
<stop offset="1" stop-color="#F83C27"/>
</linearGradient>
<linearGradient id="paint12_linear_2051_3873" x1="29.8401" y1="96.97" x2="34.5837" y2="97.0827" gradientUnits="userSpaceOnUse">
<stop stop-color="#FF6E05"/>
<stop offset="1" stop-color="#F83C27"/>
</linearGradient>
<linearGradient id="paint13_linear_2051_3873" x1="42.03" y1="103.255" x2="47.6989" y2="103.457" gradientUnits="userSpaceOnUse">
<stop stop-color="#FF6E05"/>
<stop offset="1" stop-color="#F83C27"/>
</linearGradient>
<linearGradient id="paint14_linear_2051_3873" x1="65.926" y1="102.06" x2="73.1798" y2="102.385" gradientUnits="userSpaceOnUse">
<stop stop-color="#FF6E05"/>
<stop offset="1" stop-color="#F83C27"/>
</linearGradient>
<linearGradient id="paint15_linear_2051_3873" x1="145.67" y1="0" x2="150.466" y2="0.106529" gradientUnits="userSpaceOnUse">
<stop stop-color="#FF6E05"/>
<stop offset="1" stop-color="#F83C27"/>
</linearGradient>
<linearGradient id="paint16_linear_2051_3873" x1="39.8101" y1="33.0299" x2="43.9922" y2="33.1304" gradientUnits="userSpaceOnUse">
<stop stop-color="#FF6E05"/>
<stop offset="1" stop-color="#F83C27"/>
</linearGradient>
<linearGradient id="paint17_linear_2051_3873" x1="104.58" y1="104.34" x2="109.489" y2="104.451" gradientUnits="userSpaceOnUse">
<stop stop-color="#FF6E05"/>
<stop offset="1" stop-color="#F83C27"/>
</linearGradient>
<linearGradient id="paint18_linear_2051_3873" x1="57.6399" y1="103.277" x2="61.812" y2="103.375" gradientUnits="userSpaceOnUse">
<stop stop-color="#FF6E05"/>
<stop offset="1" stop-color="#F83C27"/>
</linearGradient>
<linearGradient id="paint19_linear_2051_3873" x1="0" y1="52.8" x2="4.19077" y2="52.9301" gradientUnits="userSpaceOnUse">
<stop stop-color="#FF6E05"/>
<stop offset="1" stop-color="#F83C27"/>
</linearGradient>
<linearGradient id="paint20_linear_2051_3873" x1="51.0596" y1="92.06" x2="55.3441" y2="92.1678" gradientUnits="userSpaceOnUse">
<stop stop-color="#FF6E05"/>
<stop offset="1" stop-color="#F83C27"/>
</linearGradient>
<linearGradient id="paint21_linear_2051_3873" x1="32.6299" y1="45.54" x2="38.0912" y2="45.7641" gradientUnits="userSpaceOnUse">
<stop stop-color="#FF6E05"/>
<stop offset="1" stop-color="#F83C27"/>
</linearGradient>
<linearGradient id="paint22_linear_2051_3873" x1="62.3201" y1="93.66" x2="66.6529" y2="93.7557" gradientUnits="userSpaceOnUse">
<stop stop-color="#FF6E05"/>
<stop offset="1" stop-color="#F83C27"/>
</linearGradient>
<linearGradient id="paint23_linear_2051_3873" x1="33.8999" y1="73.204" x2="39.3112" y2="73.4507" gradientUnits="userSpaceOnUse">
<stop stop-color="#FF6E05"/>
<stop offset="1" stop-color="#F83C27"/>
</linearGradient>
<linearGradient id="paint24_linear_2051_3873" x1="116.47" y1="100.984" x2="121.353" y2="101.182" gradientUnits="userSpaceOnUse">
<stop stop-color="#FF6E05"/>
<stop offset="1" stop-color="#F83C27"/>
</linearGradient>
<linearGradient id="paint25_linear_2051_3873" x1="127.77" y1="42.04" x2="131.368" y2="42.1501" gradientUnits="userSpaceOnUse">
<stop stop-color="#FF6E05"/>
<stop offset="1" stop-color="#F83C27"/>
</linearGradient>
<linearGradient id="paint26_linear_2051_3873" x1="49.95" y1="85.13" x2="54.9135" y2="85.34" gradientUnits="userSpaceOnUse">
<stop stop-color="#FF6E05"/>
<stop offset="1" stop-color="#F83C27"/>
</linearGradient>
<linearGradient id="paint27_linear_2051_3873" x1="122.49" y1="102.72" x2="126.692" y2="102.831" gradientUnits="userSpaceOnUse">
<stop stop-color="#FF6E05"/>
<stop offset="1" stop-color="#F83C27"/>
</linearGradient>
<linearGradient id="paint28_linear_2051_3873" x1="73.0701" y1="110.19" x2="78.5292" y2="110.453" gradientUnits="userSpaceOnUse">
<stop stop-color="#FF6E05"/>
<stop offset="1" stop-color="#F83C27"/>
</linearGradient>
<linearGradient id="paint29_linear_2051_3873" x1="74.25" y1="115.26" x2="77.3182" y2="115.32" gradientUnits="userSpaceOnUse">
<stop stop-color="#FF6E05"/>
<stop offset="1" stop-color="#F83C27"/>
</linearGradient>
<linearGradient id="paint30_linear_2051_3873" x1="110.51" y1="98.23" x2="114.132" y2="98.3281" gradientUnits="userSpaceOnUse">
<stop stop-color="#FF6E05"/>
<stop offset="1" stop-color="#F83C27"/>
</linearGradient>
<linearGradient id="paint31_linear_2051_3873" x1="11.26" y1="72.69" x2="14.3518" y2="72.7716" gradientUnits="userSpaceOnUse">
<stop stop-color="#FF6E05"/>
<stop offset="1" stop-color="#F83C27"/>
</linearGradient>
<linearGradient id="paint32_linear_2051_3873" x1="114.71" y1="104.94" x2="118.37" y2="105.051" gradientUnits="userSpaceOnUse">
<stop stop-color="#FF6E05"/>
<stop offset="1" stop-color="#F83C27"/>
</linearGradient>
<linearGradient id="paint33_linear_2051_3873" x1="107" y1="114.69" x2="109.966" y2="114.754" gradientUnits="userSpaceOnUse">
<stop stop-color="#FF6E05"/>
<stop offset="1" stop-color="#F83C27"/>
</linearGradient>
<linearGradient id="paint34_linear_2051_3873" x1="138.47" y1="61.87" x2="141.547" y2="61.9663" gradientUnits="userSpaceOnUse">
<stop stop-color="#FF6E05"/>
<stop offset="1" stop-color="#F83C27"/>
</linearGradient>
<linearGradient id="paint35_linear_2051_3873" x1="138.48" y1="91.37" x2="142.129" y2="91.4834" gradientUnits="userSpaceOnUse">
<stop stop-color="#FF6E05"/>
<stop offset="1" stop-color="#F83C27"/>
</linearGradient>
<linearGradient id="paint36_linear_2051_3873" x1="133.78" y1="90.08" x2="137.902" y2="90.2463" gradientUnits="userSpaceOnUse">
<stop stop-color="#FF6E05"/>
<stop offset="1" stop-color="#F83C27"/>
</linearGradient>
<linearGradient id="paint37_linear_2051_3873" x1="39.8701" y1="56.19" x2="42.8446" y2="56.2822" gradientUnits="userSpaceOnUse">
<stop stop-color="#FF6E05"/>
<stop offset="1" stop-color="#F83C27"/>
</linearGradient>
<linearGradient id="paint38_linear_2051_3873" x1="39.2134" y1="28.46" x2="42.2354" y2="28.5548" gradientUnits="userSpaceOnUse">
<stop stop-color="#FF6E05"/>
<stop offset="1" stop-color="#F83C27"/>
</linearGradient>
<linearGradient id="paint39_linear_2051_3873" x1="130.112" y1="99.299" x2="132.613" y2="99.3519" gradientUnits="userSpaceOnUse">
<stop stop-color="#FF6E05"/>
<stop offset="1" stop-color="#F83C27"/>
</linearGradient>
<linearGradient id="paint40_linear_2051_3873" x1="150.896" y1="47.12" x2="153.987" y2="47.2188" gradientUnits="userSpaceOnUse">
<stop stop-color="#FF6E05"/>
<stop offset="1" stop-color="#F83C27"/>
</linearGradient>
<linearGradient id="paint41_linear_2051_3873" x1="125.96" y1="106.628" x2="129.038" y2="106.706" gradientUnits="userSpaceOnUse">
<stop stop-color="#FF6E05"/>
<stop offset="1" stop-color="#F83C27"/>
</linearGradient>
<linearGradient id="paint42_linear_2051_3873" x1="104.559" y1="118.65" x2="107.024" y2="118.714" gradientUnits="userSpaceOnUse">
<stop stop-color="#FF6E05"/>
<stop offset="1" stop-color="#F83C27"/>
</linearGradient>
<linearGradient id="paint43_linear_2051_3873" x1="50.3999" y1="114" x2="52.9616" y2="114.067" gradientUnits="userSpaceOnUse">
<stop stop-color="#FF6E05"/>
<stop offset="1" stop-color="#F83C27"/>
</linearGradient>
<linearGradient id="paint44_linear_2051_3873" x1="133.03" y1="52.23" x2="136.147" y2="52.3294" gradientUnits="userSpaceOnUse">
<stop stop-color="#FF6E05"/>
<stop offset="1" stop-color="#F83C27"/>
</linearGradient>
<linearGradient id="paint45_linear_2051_3873" x1="47.5801" y1="37.53" x2="49.9522" y2="37.5896" gradientUnits="userSpaceOnUse">
<stop stop-color="#FF6E05"/>
<stop offset="1" stop-color="#F83C27"/>
</linearGradient>
<linearGradient id="paint46_linear_2051_3873" x1="68.3865" y1="99.3" x2="70.1085" y2="99.3302" gradientUnits="userSpaceOnUse">
<stop stop-color="#FF6E05"/>
<stop offset="1" stop-color="#F83C27"/>
</linearGradient>
<linearGradient id="paint47_linear_2051_3873" x1="140.85" y1="28.28" x2="142.681" y2="28.3124" gradientUnits="userSpaceOnUse">
<stop stop-color="#FF6E05"/>
<stop offset="1" stop-color="#F83C27"/>
</linearGradient>
<linearGradient id="paint48_linear_2051_3873" x1="45.7" y1="45.43" x2="47.584" y2="45.4752" gradientUnits="userSpaceOnUse">
<stop stop-color="#FF6E05"/>
<stop offset="1" stop-color="#F83C27"/>
</linearGradient>
<linearGradient id="paint49_linear_2051_3873" x1="130.134" y1="23.28" x2="132.124" y2="23.3292" gradientUnits="userSpaceOnUse">
<stop stop-color="#FF6E05"/>
<stop offset="1" stop-color="#F83C27"/>
</linearGradient>
<linearGradient id="paint50_linear_2051_3873" x1="125.4" y1="111.86" x2="127.251" y2="111.898" gradientUnits="userSpaceOnUse">
<stop stop-color="#FF6E05"/>
<stop offset="1" stop-color="#F83C27"/>
</linearGradient>
<linearGradient id="paint51_linear_2051_3873" x1="125.39" y1="66.97" x2="127.822" y2="67.0486" gradientUnits="userSpaceOnUse">
<stop stop-color="#FF6E05"/>
<stop offset="1" stop-color="#F83C27"/>
</linearGradient>
<linearGradient id="paint52_linear_2051_3873" x1="104.64" y1="101.52" x2="106.429" y2="101.562" gradientUnits="userSpaceOnUse">
<stop stop-color="#FF6E05"/>
<stop offset="1" stop-color="#F83C27"/>
</linearGradient>
<linearGradient id="paint53_linear_2051_3873" x1="55.25" y1="119.751" x2="57.6707" y2="119.85" gradientUnits="userSpaceOnUse">
<stop stop-color="#FF6E05"/>
<stop offset="1" stop-color="#F83C27"/>
</linearGradient>
<linearGradient id="paint54_linear_2051_3873" x1="44.5701" y1="17.49" x2="46.9519" y2="17.5596" gradientUnits="userSpaceOnUse">
<stop stop-color="#FF6E05"/>
<stop offset="1" stop-color="#F83C27"/>
</linearGradient>
<linearGradient id="paint55_linear_2051_3873" x1="76.6201" y1="14.17" x2="78.4295" y2="14.2237" gradientUnits="userSpaceOnUse">
<stop stop-color="#FF6E05"/>
<stop offset="1" stop-color="#F83C27"/>
</linearGradient>
<linearGradient id="paint56_linear_2051_3873" x1="87.3999" y1="107.814" x2="89.2076" y2="107.868" gradientUnits="userSpaceOnUse">
<stop stop-color="#FF6E05"/>
<stop offset="1" stop-color="#F83C27"/>
</linearGradient>
<linearGradient id="paint57_linear_2051_3873" x1="35.52" y1="104.977" x2="38.0424" y2="105.087" gradientUnits="userSpaceOnUse">
<stop stop-color="#FF6E05"/>
<stop offset="1" stop-color="#F83C27"/>
</linearGradient>
<linearGradient id="paint58_linear_2051_3873" x1="42.3931" y1="82.29" x2="44.0307" y2="82.3352" gradientUnits="userSpaceOnUse">
<stop stop-color="#FF6E05"/>
<stop offset="1" stop-color="#F83C27"/>
</linearGradient>
<linearGradient id="paint59_linear_2051_3873" x1="34.9937" y1="77.19" x2="36.8196" y2="77.2463" gradientUnits="userSpaceOnUse">
<stop stop-color="#FF6E05"/>
<stop offset="1" stop-color="#F83C27"/>
</linearGradient>
<linearGradient id="paint60_linear_2051_3873" x1="148.68" y1="37.77" x2="150.959" y2="37.8444" gradientUnits="userSpaceOnUse">
<stop stop-color="#FF6E05"/>
<stop offset="1" stop-color="#F83C27"/>
</linearGradient>
<linearGradient id="paint61_linear_2051_3873" x1="151.514" y1="62.43" x2="153.452" y2="62.4936" gradientUnits="userSpaceOnUse">
<stop stop-color="#FF6E05"/>
<stop offset="1" stop-color="#F83C27"/>
</linearGradient>
<linearGradient id="paint62_linear_2051_3873" x1="116.92" y1="25" x2="118.822" y2="25.0465" gradientUnits="userSpaceOnUse">
<stop stop-color="#FF6E05"/>
<stop offset="1" stop-color="#F83C27"/>
</linearGradient>
<linearGradient id="paint63_linear_2051_3873" x1="39.7651" y1="70.91" x2="41.5804" y2="70.9649" gradientUnits="userSpaceOnUse">
<stop stop-color="#FF6E05"/>
<stop offset="1" stop-color="#F83C27"/>
</linearGradient>
<linearGradient id="paint64_linear_2051_3873" x1="54.0513" y1="0.609985" x2="55.9587" y2="0.671967" gradientUnits="userSpaceOnUse">
<stop stop-color="#FF6E05"/>
<stop offset="1" stop-color="#F83C27"/>
</linearGradient>
<linearGradient id="paint65_linear_2051_3873" x1="121.762" y1="34.64" x2="123.67" y2="34.702" gradientUnits="userSpaceOnUse">
<stop stop-color="#FF6E05"/>
<stop offset="1" stop-color="#F83C27"/>
</linearGradient>
<linearGradient id="paint66_linear_2051_3873" x1="23.1101" y1="17.79" x2="24.9292" y2="17.851" gradientUnits="userSpaceOnUse">
<stop stop-color="#FF6E05"/>
<stop offset="1" stop-color="#F83C27"/>
</linearGradient>
<linearGradient id="paint67_linear_2051_3873" x1="94.3899" y1="102.79" x2="96.3573" y2="102.84" gradientUnits="userSpaceOnUse">
<stop stop-color="#FF6E05"/>
<stop offset="1" stop-color="#F83C27"/>
</linearGradient>
<linearGradient id="paint68_linear_2051_3873" x1="143.36" y1="41.89" x2="145.006" y2="41.9223" gradientUnits="userSpaceOnUse">
<stop stop-color="#FF6E05"/>
<stop offset="1" stop-color="#F83C27"/>
</linearGradient>
<linearGradient id="paint69_linear_2051_3873" x1="86.1299" y1="5.76001" x2="87.388" y2="5.78169" gradientUnits="userSpaceOnUse">
<stop stop-color="#FF6E05"/>
<stop offset="1" stop-color="#F83C27"/>
</linearGradient>
<linearGradient id="paint70_linear_2051_3873" x1="34.54" y1="36.88" x2="36.2921" y2="36.9302" gradientUnits="userSpaceOnUse">
<stop stop-color="#FF6E05"/>
<stop offset="1" stop-color="#F83C27"/>
</linearGradient>
<linearGradient id="paint71_linear_2051_3873" x1="142.63" y1="83.34" x2="144.46" y2="83.3919" gradientUnits="userSpaceOnUse">
<stop stop-color="#FF6E05"/>
<stop offset="1" stop-color="#F83C27"/>
</linearGradient>
<linearGradient id="paint72_linear_2051_3873" x1="40.3733" y1="98.69" x2="42.207" y2="98.7449" gradientUnits="userSpaceOnUse">
<stop stop-color="#FF6E05"/>
<stop offset="1" stop-color="#F83C27"/>
</linearGradient>
<linearGradient id="paint73_linear_2051_3873" x1="112.94" y1="111.89" x2="114.861" y2="111.957" gradientUnits="userSpaceOnUse">
<stop stop-color="#FF6E05"/>
<stop offset="1" stop-color="#F83C27"/>
</linearGradient>
<linearGradient id="paint74_linear_2051_3873" x1="32.0601" y1="19.75" x2="33.7163" y2="19.7944" gradientUnits="userSpaceOnUse">
<stop stop-color="#FF6E05"/>
<stop offset="1" stop-color="#F83C27"/>
</linearGradient>
<linearGradient id="paint75_linear_2051_3873" x1="144.42" y1="85.68" x2="146.239" y2="85.7395" gradientUnits="userSpaceOnUse">
<stop stop-color="#FF6E05"/>
<stop offset="1" stop-color="#F83C27"/>
</linearGradient>
<linearGradient id="paint76_linear_2051_3873" x1="167.05" y1="59.01" x2="168.827" y2="59.085" gradientUnits="userSpaceOnUse">
<stop stop-color="#FF6E05"/>
<stop offset="1" stop-color="#F83C27"/>
</linearGradient>
<linearGradient id="paint77_linear_2051_3873" x1="40.9099" y1="44.29" x2="42.9325" y2="44.3701" gradientUnits="userSpaceOnUse">
<stop stop-color="#FF6E05"/>
<stop offset="1" stop-color="#F83C27"/>
</linearGradient>
<linearGradient id="paint78_linear_2051_3873" x1="59.406" y1="28.414" x2="61.066" y2="28.4625" gradientUnits="userSpaceOnUse">
<stop stop-color="#FF6E05"/>
<stop offset="1" stop-color="#F83C27"/>
</linearGradient>
<linearGradient id="paint79_linear_2051_3873" x1="153.92" y1="57.28" x2="155.697" y2="57.3551" gradientUnits="userSpaceOnUse">
<stop stop-color="#FF6E05"/>
<stop offset="1" stop-color="#F83C27"/>
</linearGradient>
<linearGradient id="paint80_linear_2051_3873" x1="98.6001" y1="111.198" x2="100.549" y2="111.297" gradientUnits="userSpaceOnUse">
<stop stop-color="#FF6E05"/>
<stop offset="1" stop-color="#F83C27"/>
</linearGradient>
<linearGradient id="paint81_linear_2051_3873" x1="139.12" y1="56.65" x2="140.898" y2="56.7132" gradientUnits="userSpaceOnUse">
<stop stop-color="#FF6E05"/>
<stop offset="1" stop-color="#F83C27"/>
</linearGradient>
<linearGradient id="paint82_linear_2051_3873" x1="24.3184" y1="45.43" x2="26.2312" y2="45.4927" gradientUnits="userSpaceOnUse">
<stop stop-color="#FF6E05"/>
<stop offset="1" stop-color="#F83C27"/>
</linearGradient>
<linearGradient id="paint83_linear_2051_3873" x1="27.9099" y1="53.45" x2="29.7802" y2="53.5122" gradientUnits="userSpaceOnUse">
<stop stop-color="#FF6E05"/>
<stop offset="1" stop-color="#F83C27"/>
</linearGradient>
<linearGradient id="paint84_linear_2051_3873" x1="168.802" y1="60.33" x2="170.568" y2="60.3885" gradientUnits="userSpaceOnUse">
<stop stop-color="#FF6E05"/>
<stop offset="1" stop-color="#F83C27"/>
</linearGradient>
<linearGradient id="paint85_linear_2051_3873" x1="163.398" y1="52.19" x2="164.726" y2="52.2193" gradientUnits="userSpaceOnUse">
<stop stop-color="#FF6E05"/>
<stop offset="1" stop-color="#F83C27"/>
</linearGradient>
<linearGradient id="paint86_linear_2051_3873" x1="147.53" y1="43.16" x2="148.926" y2="43.1838" gradientUnits="userSpaceOnUse">
<stop stop-color="#FF6E05"/>
<stop offset="1" stop-color="#F83C27"/>
</linearGradient>
<linearGradient id="paint87_linear_2051_3873" x1="61.9099" y1="26.69" x2="63.5988" y2="26.7372" gradientUnits="userSpaceOnUse">
<stop stop-color="#FF6E05"/>
<stop offset="1" stop-color="#F83C27"/>
</linearGradient>
<linearGradient id="paint88_linear_2051_3873" x1="115.29" y1="23.8397" x2="117.128" y2="23.9239" gradientUnits="userSpaceOnUse">
<stop stop-color="#FF6E05"/>
<stop offset="1" stop-color="#F83C27"/>
</linearGradient>
<linearGradient id="paint89_linear_2051_3873" x1="85.5159" y1="14.22" x2="86.8703" y2="14.2434" gradientUnits="userSpaceOnUse">
<stop stop-color="#FF6E05"/>
<stop offset="1" stop-color="#F83C27"/>
</linearGradient>
<linearGradient id="paint90_linear_2051_3873" x1="168.19" y1="82.96" x2="169.423" y2="82.9873" gradientUnits="userSpaceOnUse">
<stop stop-color="#FF6E05"/>
<stop offset="1" stop-color="#F83C27"/>
</linearGradient>
<linearGradient id="paint91_linear_2051_3873" x1="74.22" y1="4.67999" x2="75.9476" y2="4.73053" gradientUnits="userSpaceOnUse">
<stop stop-color="#FF6E05"/>
<stop offset="1" stop-color="#F83C27"/>
</linearGradient>
<linearGradient id="paint92_linear_2051_3873" x1="67.79" y1="108.35" x2="69.4551" y2="108.416" gradientUnits="userSpaceOnUse">
<stop stop-color="#FF6E05"/>
<stop offset="1" stop-color="#F83C27"/>
</linearGradient>
<linearGradient id="paint93_linear_2051_3873" x1="168.89" y1="90.8" x2="170.588" y2="90.8727" gradientUnits="userSpaceOnUse">
<stop stop-color="#FF6E05"/>
<stop offset="1" stop-color="#F83C27"/>
</linearGradient>
<linearGradient id="paint94_linear_2051_3873" x1="128.996" y1="48.35" x2="130.288" y2="48.3802" gradientUnits="userSpaceOnUse">
<stop stop-color="#FF6E05"/>
<stop offset="1" stop-color="#F83C27"/>
</linearGradient>
<linearGradient id="paint95_linear_2051_3873" x1="147.36" y1="10.8033" x2="149.086" y2="10.878" gradientUnits="userSpaceOnUse">
<stop stop-color="#FF6E05"/>
<stop offset="1" stop-color="#F83C27"/>
</linearGradient>
<linearGradient id="paint96_linear_2051_3873" x1="136.07" y1="54.5" x2="137.358" y2="54.5411" gradientUnits="userSpaceOnUse">
<stop stop-color="#FF6E05"/>
<stop offset="1" stop-color="#F83C27"/>
</linearGradient>
<linearGradient id="paint97_linear_2051_3873" x1="15.98" y1="44.21" x2="17.1864" y2="44.2429" gradientUnits="userSpaceOnUse">
<stop stop-color="#FF6E05"/>
<stop offset="1" stop-color="#F83C27"/>
</linearGradient>
<linearGradient id="paint98_linear_2051_3873" x1="128.93" y1="68.68" x2="130.218" y2="68.7211" gradientUnits="userSpaceOnUse">
<stop stop-color="#FF6E05"/>
<stop offset="1" stop-color="#F83C27"/>
</linearGradient>
<linearGradient id="paint99_linear_2051_3873" x1="95.05" y1="100.95" x2="96.8474" y2="101.028" gradientUnits="userSpaceOnUse">
<stop stop-color="#FF6E05"/>
<stop offset="1" stop-color="#F83C27"/>
</linearGradient>
<linearGradient id="paint100_linear_2051_3873" x1="108.07" y1="101.06" x2="109.429" y2="101.108" gradientUnits="userSpaceOnUse">
<stop stop-color="#FF6E05"/>
<stop offset="1" stop-color="#F83C27"/>
</linearGradient>
<linearGradient id="paint101_linear_2051_3873" x1="17.1899" y1="72.08" x2="18.4779" y2="72.1211" gradientUnits="userSpaceOnUse">
<stop stop-color="#FF6E05"/>
<stop offset="1" stop-color="#F83C27"/>
</linearGradient>
<linearGradient id="paint102_linear_2051_3873" x1="151.52" y1="44.29" x2="152.808" y2="44.331" gradientUnits="userSpaceOnUse">
<stop stop-color="#FF6E05"/>
<stop offset="1" stop-color="#F83C27"/>
</linearGradient>
<linearGradient id="paint103_linear_2051_3873" x1="120.68" y1="110.09" x2="122.335" y2="110.157" gradientUnits="userSpaceOnUse">
<stop stop-color="#FF6E05"/>
<stop offset="1" stop-color="#F83C27"/>
</linearGradient>
<linearGradient id="paint104_linear_2051_3873" x1="155.08" y1="77.1686" x2="156.327" y2="77.2061" gradientUnits="userSpaceOnUse">
<stop stop-color="#FF6E05"/>
<stop offset="1" stop-color="#F83C27"/>
</linearGradient>
<linearGradient id="paint105_linear_2051_3873" x1="171.11" y1="40.85" x2="172.398" y2="40.891" gradientUnits="userSpaceOnUse">
<stop stop-color="#FF6E05"/>
<stop offset="1" stop-color="#F83C27"/>
</linearGradient>
<linearGradient id="paint106_linear_2051_3873" x1="108.72" y1="26.14" x2="110.008" y2="26.1811" gradientUnits="userSpaceOnUse">
<stop stop-color="#FF6E05"/>
<stop offset="1" stop-color="#F83C27"/>
</linearGradient>
<linearGradient id="paint107_linear_2051_3873" x1="156.27" y1="28.96" x2="157.517" y2="28.9978" gradientUnits="userSpaceOnUse">
<stop stop-color="#FF6E05"/>
<stop offset="1" stop-color="#F83C27"/>
</linearGradient>
<linearGradient id="paint108_linear_2051_3873" x1="41.5701" y1="64.72" x2="43.5091" y2="64.8173" gradientUnits="userSpaceOnUse">
<stop stop-color="#FF6E05"/>
<stop offset="1" stop-color="#F83C27"/>
</linearGradient>
<linearGradient id="paint109_linear_2051_3873" x1="85.54" y1="107.799" x2="86.7871" y2="107.836" gradientUnits="userSpaceOnUse">
<stop stop-color="#FF6E05"/>
<stop offset="1" stop-color="#F83C27"/>
</linearGradient>
<linearGradient id="paint110_linear_2051_3873" x1="77.8" y1="104.9" x2="79.0064" y2="104.933" gradientUnits="userSpaceOnUse">
<stop stop-color="#FF6E05"/>
<stop offset="1" stop-color="#F83C27"/>
</linearGradient>
<linearGradient id="paint111_linear_2051_3873" x1="155.56" y1="49.92" x2="157.449" y2="50.0062" gradientUnits="userSpaceOnUse">
<stop stop-color="#FF6E05"/>
<stop offset="1" stop-color="#F83C27"/>
</linearGradient>
<linearGradient id="paint112_linear_2051_3873" x1="51.74" y1="99.25" x2="52.9464" y2="99.2829" gradientUnits="userSpaceOnUse">
<stop stop-color="#FF6E05"/>
<stop offset="1" stop-color="#F83C27"/>
</linearGradient>
<linearGradient id="paint113_linear_2051_3873" x1="50.4697" y1="83.99" x2="51.7577" y2="84.0311" gradientUnits="userSpaceOnUse">
<stop stop-color="#FF6E05"/>
<stop offset="1" stop-color="#F83C27"/>
</linearGradient>
<linearGradient id="paint114_linear_2051_3873" x1="117.02" y1="115.72" x2="118.379" y2="115.768" gradientUnits="userSpaceOnUse">
<stop stop-color="#FF6E05"/>
<stop offset="1" stop-color="#F83C27"/>
</linearGradient>
<linearGradient id="paint115_linear_2051_3873" x1="92.6726" y1="13.74" x2="94.2833" y2="13.8109" gradientUnits="userSpaceOnUse">
<stop stop-color="#FF6E05"/>
<stop offset="1" stop-color="#F83C27"/>
</linearGradient>
<linearGradient id="paint116_linear_2051_3873" x1="127.68" y1="84.47" x2="129.131" y2="84.5158" gradientUnits="userSpaceOnUse">
<stop stop-color="#FF6E05"/>
<stop offset="1" stop-color="#F83C27"/>
</linearGradient>
<linearGradient id="paint117_linear_2051_3873" x1="144.1" y1="9.95001" x2="144.936" y2="9.95959" gradientUnits="userSpaceOnUse">
<stop stop-color="#FF6E05"/>
<stop offset="1" stop-color="#F83C27"/>
</linearGradient>
<linearGradient id="paint118_linear_2051_3873" x1="29.093" y1="81.67" x2="30.4286" y2="81.7174" gradientUnits="userSpaceOnUse">
<stop stop-color="#FF6E05"/>
<stop offset="1" stop-color="#F83C27"/>
</linearGradient>
<linearGradient id="paint119_linear_2051_3873" x1="78.4229" y1="4.53003" x2="79.7585" y2="4.57744" gradientUnits="userSpaceOnUse">
<stop stop-color="#FF6E05"/>
<stop offset="1" stop-color="#F83C27"/>
</linearGradient>
<linearGradient id="paint120_linear_2051_3873" x1="172.33" y1="44.8375" x2="173.455" y2="44.8659" gradientUnits="userSpaceOnUse">
<stop stop-color="#FF6E05"/>
<stop offset="1" stop-color="#F83C27"/>
</linearGradient>
<linearGradient id="paint121_linear_2051_3873" x1="61.6899" y1="92.6" x2="63.008" y2="92.6485" gradientUnits="userSpaceOnUse">
<stop stop-color="#FF6E05"/>
<stop offset="1" stop-color="#F83C27"/>
</linearGradient>
<linearGradient id="paint122_linear_2051_3873" x1="73.0801" y1="9.09406" x2="74.2048" y2="9.12276" gradientUnits="userSpaceOnUse">
<stop stop-color="#FF6E05"/>
<stop offset="1" stop-color="#F83C27"/>
</linearGradient>
<linearGradient id="paint123_linear_2051_3873" x1="58.1899" y1="95.4" x2="59.4368" y2="95.4421" gradientUnits="userSpaceOnUse">
<stop stop-color="#FF6E05"/>
<stop offset="1" stop-color="#F83C27"/>
</linearGradient>
<linearGradient id="paint124_linear_2051_3873" x1="153.88" y1="53.82" x2="155.045" y2="53.8515" gradientUnits="userSpaceOnUse">
<stop stop-color="#FF6E05"/>
<stop offset="1" stop-color="#F83C27"/>
</linearGradient>
<linearGradient id="paint125_linear_2051_3873" x1="149.12" y1="40.21" x2="150.286" y2="40.2416" gradientUnits="userSpaceOnUse">
<stop stop-color="#FF6E05"/>
<stop offset="1" stop-color="#F83C27"/>
</linearGradient>
<linearGradient id="paint126_linear_2051_3873" x1="32.0913" y1="64.2593" x2="32.6656" y2="64.2694" gradientUnits="userSpaceOnUse">
<stop stop-color="#FF6E05"/>
<stop offset="1" stop-color="#F83C27"/>
</linearGradient>
<linearGradient id="paint127_linear_2051_3873" x1="139.071" y1="82.42" x2="139.676" y2="82.4313" gradientUnits="userSpaceOnUse">
<stop stop-color="#FF6E05"/>
<stop offset="1" stop-color="#F83C27"/>
</linearGradient>
<linearGradient id="paint128_linear_2051_3873" x1="149.17" y1="84.5325" x2="150.383" y2="84.602" gradientUnits="userSpaceOnUse">
<stop stop-color="#FF6E05"/>
<stop offset="1" stop-color="#F83C27"/>
</linearGradient>
<linearGradient id="paint129_linear_2051_3873" x1="172.327" y1="57.33" x2="172.987" y2="57.3411" gradientUnits="userSpaceOnUse">
<stop stop-color="#FF6E05"/>
<stop offset="1" stop-color="#F83C27"/>
</linearGradient>
<linearGradient id="paint130_linear_2051_3873" x1="172.327" y1="89.66" x2="172.987" y2="89.6711" gradientUnits="userSpaceOnUse">
<stop stop-color="#FF6E05"/>
<stop offset="1" stop-color="#F83C27"/>
</linearGradient>
<linearGradient id="paint131_linear_2051_3873" x1="85.7324" y1="17.63" x2="86.1947" y2="17.6357" gradientUnits="userSpaceOnUse">
<stop stop-color="#FF6E05"/>
<stop offset="1" stop-color="#F83C27"/>
</linearGradient>
<linearGradient id="paint132_linear_2051_3873" x1="122.37" y1="93.0536" x2="123.553" y2="93.1182" gradientUnits="userSpaceOnUse">
<stop stop-color="#FF6E05"/>
<stop offset="1" stop-color="#F83C27"/>
</linearGradient>
<linearGradient id="paint133_linear_2051_3873" x1="59.4099" y1="96.4472" x2="60.5691" y2="96.5386" gradientUnits="userSpaceOnUse">
<stop stop-color="#FF6E05"/>
<stop offset="1" stop-color="#F83C27"/>
</linearGradient>
<linearGradient id="paint134_linear_2051_3873" x1="60.5969" y1="17.13" x2="61.2024" y2="17.1413" gradientUnits="userSpaceOnUse">
<stop stop-color="#FF6E05"/>
<stop offset="1" stop-color="#F83C27"/>
</linearGradient>
<linearGradient id="paint135_linear_2051_3873" x1="86.1599" y1="16.4816" x2="86.7854" y2="16.4914" gradientUnits="userSpaceOnUse">
<stop stop-color="#FF6E05"/>
<stop offset="1" stop-color="#F83C27"/>
</linearGradient>
<linearGradient id="paint136_linear_2051_3873" x1="35.6399" y1="52.2025" x2="36.8534" y2="52.272" gradientUnits="userSpaceOnUse">
<stop stop-color="#FF6E05"/>
<stop offset="1" stop-color="#F83C27"/>
</linearGradient>
<linearGradient id="paint137_linear_2051_3873" x1="53.5979" y1="102.151" x2="54.5997" y2="102.206" gradientUnits="userSpaceOnUse">
<stop stop-color="#FF6E05"/>
<stop offset="1" stop-color="#F83C27"/>
</linearGradient>
<linearGradient id="paint138_linear_2051_3873" x1="43.96" y1="51.0725" x2="45.1735" y2="51.142" gradientUnits="userSpaceOnUse">
<stop stop-color="#FF6E05"/>
<stop offset="1" stop-color="#F83C27"/>
</linearGradient>
<linearGradient id="paint139_linear_2051_3873" x1="133.838" y1="105.561" x2="134.84" y2="105.616" gradientUnits="userSpaceOnUse">
<stop stop-color="#FF6E05"/>
<stop offset="1" stop-color="#F83C27"/>
</linearGradient>
<linearGradient id="paint140_linear_2051_3873" x1="121.28" y1="108.923" x2="122.439" y2="109.014" gradientUnits="userSpaceOnUse">
<stop stop-color="#FF6E05"/>
<stop offset="1" stop-color="#F83C27"/>
</linearGradient>
<linearGradient id="paint141_linear_2051_3873" x1="122.988" y1="111.22" x2="123.647" y2="111.231" gradientUnits="userSpaceOnUse">
<stop stop-color="#FF6E05"/>
<stop offset="1" stop-color="#F83C27"/>
</linearGradient>
<linearGradient id="paint142_linear_2051_3873" x1="153.92" y1="45.4025" x2="155.133" y2="45.472" gradientUnits="userSpaceOnUse">
<stop stop-color="#FF6E05"/>
<stop offset="1" stop-color="#F83C27"/>
</linearGradient>
<linearGradient id="paint143_linear_2051_3873" x1="64.7913" y1="115.869" x2="65.3655" y2="115.879" gradientUnits="userSpaceOnUse">
<stop stop-color="#FF6E05"/>
<stop offset="1" stop-color="#F83C27"/>
</linearGradient>
<linearGradient id="paint144_linear_2051_3873" x1="59.4099" y1="117.432" x2="60.6234" y2="117.502" gradientUnits="userSpaceOnUse">
<stop stop-color="#FF6E05"/>
<stop offset="1" stop-color="#F83C27"/>
</linearGradient>
<linearGradient id="paint145_linear_2051_3873" x1="114.1" y1="117.432" x2="115.314" y2="117.502" gradientUnits="userSpaceOnUse">
<stop stop-color="#FF6E05"/>
<stop offset="1" stop-color="#F83C27"/>
</linearGradient>
<linearGradient id="paint146_linear_2051_3873" x1="84.3574" y1="122.56" x2="85.0172" y2="122.571" gradientUnits="userSpaceOnUse">
<stop stop-color="#FF6E05"/>
<stop offset="1" stop-color="#F83C27"/>
</linearGradient>
<linearGradient id="paint147_linear_2051_3873" x1="93.3213" y1="9.23926" x2="93.8955" y2="9.2494" gradientUnits="userSpaceOnUse">
<stop stop-color="#FF6E05"/>
<stop offset="1" stop-color="#F83C27"/>
</linearGradient>
<linearGradient id="paint148_linear_2051_3873" x1="30.96" y1="36.9354" x2="31.9655" y2="36.9904" gradientUnits="userSpaceOnUse">
<stop stop-color="#FF6E05"/>
<stop offset="1" stop-color="#F83C27"/>
</linearGradient>
<linearGradient id="paint149_linear_2051_3873" x1="39.8401" y1="37.97" x2="41.051" y2="38.0591" gradientUnits="userSpaceOnUse">
<stop stop-color="#FF6E05"/>
<stop offset="1" stop-color="#F83C27"/>
</linearGradient>
<linearGradient id="paint150_linear_2051_3873" x1="154.01" y1="36.9354" x2="155.012" y2="36.99" gradientUnits="userSpaceOnUse">
<stop stop-color="#FF6E05"/>
<stop offset="1" stop-color="#F83C27"/>
</linearGradient>
<linearGradient id="paint151_linear_2051_3873" x1="50.0315" y1="40.32" x2="50.3761" y2="40.326" gradientUnits="userSpaceOnUse">
<stop stop-color="#FF6E05"/>
<stop offset="1" stop-color="#F83C27"/>
</linearGradient>
<linearGradient id="paint152_linear_2051_3873" x1="146.332" y1="45.99" x2="146.719" y2="45.9976" gradientUnits="userSpaceOnUse">
<stop stop-color="#FF6E05"/>
<stop offset="1" stop-color="#F83C27"/>
</linearGradient>
<linearGradient id="paint153_linear_2051_3873" x1="140.85" y1="50.6487" x2="141.452" y2="50.6779" gradientUnits="userSpaceOnUse">
<stop stop-color="#FF6E05"/>
<stop offset="1" stop-color="#F83C27"/>
</linearGradient>
<linearGradient id="paint154_linear_2051_3873" x1="54.7915" y1="25" x2="55.1786" y2="25.0076" gradientUnits="userSpaceOnUse">
<stop stop-color="#FF6E05"/>
<stop offset="1" stop-color="#F83C27"/>
</linearGradient>
<linearGradient id="paint155_linear_2051_3873" x1="169.38" y1="59.1587" x2="169.982" y2="59.1913" gradientUnits="userSpaceOnUse">
<stop stop-color="#FF6E05"/>
<stop offset="1" stop-color="#F83C27"/>
</linearGradient>
<linearGradient id="paint156_linear_2051_3873" x1="172.481" y1="59.6" x2="172.869" y2="59.6076" gradientUnits="userSpaceOnUse">
<stop stop-color="#FF6E05"/>
<stop offset="1" stop-color="#F83C27"/>
</linearGradient>
<linearGradient id="paint157_linear_2051_3873" x1="35.1716" y1="24.44" x2="35.5587" y2="24.4476" gradientUnits="userSpaceOnUse">
<stop stop-color="#FF6E05"/>
<stop offset="1" stop-color="#F83C27"/>
</linearGradient>
<linearGradient id="paint158_linear_2051_3873" x1="169.38" y1="63.65" x2="169.982" y2="63.6791" gradientUnits="userSpaceOnUse">
<stop stop-color="#FF6E05"/>
<stop offset="1" stop-color="#F83C27"/>
</linearGradient>
<linearGradient id="paint159_linear_2051_3873" x1="64.3015" y1="23.3" x2="64.6886" y2="23.3076" gradientUnits="userSpaceOnUse">
<stop stop-color="#FF6E05"/>
<stop offset="1" stop-color="#F83C27"/>
</linearGradient>
<linearGradient id="paint160_linear_2051_3873" x1="131.76" y1="22.78" x2="132.448" y2="22.8036" gradientUnits="userSpaceOnUse">
<stop stop-color="#FF6E05"/>
<stop offset="1" stop-color="#F83C27"/>
</linearGradient>
<linearGradient id="paint161_linear_2051_3873" x1="131.461" y1="21.6" x2="131.849" y2="21.6076" gradientUnits="userSpaceOnUse">
<stop stop-color="#FF6E05"/>
<stop offset="1" stop-color="#F83C27"/>
</linearGradient>
<linearGradient id="paint162_linear_2051_3873" x1="102.21" y1="98.26" x2="102.812" y2="98.2891" gradientUnits="userSpaceOnUse">
<stop stop-color="#FF6E05"/>
<stop offset="1" stop-color="#F83C27"/>
</linearGradient>
<linearGradient id="paint163_linear_2051_3873" x1="93.8899" y1="98.8687" x2="94.4918" y2="98.9013" gradientUnits="userSpaceOnUse">
<stop stop-color="#FF6E05"/>
<stop offset="1" stop-color="#F83C27"/>
</linearGradient>
<linearGradient id="paint164_linear_2051_3873" x1="76.6599" y1="102.839" x2="77.2618" y2="102.871" gradientUnits="userSpaceOnUse">
<stop stop-color="#FF6E05"/>
<stop offset="1" stop-color="#F83C27"/>
</linearGradient>
<linearGradient id="paint165_linear_2051_3873" x1="115.967" y1="103.78" x2="116.655" y2="103.804" gradientUnits="userSpaceOnUse">
<stop stop-color="#FF6E05"/>
<stop offset="1" stop-color="#F83C27"/>
</linearGradient>
<linearGradient id="paint166_linear_2051_3873" x1="57.7615" y1="105.54" x2="58.1486" y2="105.548" gradientUnits="userSpaceOnUse">
<stop stop-color="#FF6E05"/>
<stop offset="1" stop-color="#F83C27"/>
</linearGradient>
<linearGradient id="paint167_linear_2051_3873" x1="122.85" y1="107.87" x2="123.538" y2="107.894" gradientUnits="userSpaceOnUse">
<stop stop-color="#FF6E05"/>
<stop offset="1" stop-color="#F83C27"/>
</linearGradient>
<linearGradient id="paint168_linear_2051_3873" x1="122.419" y1="108.38" x2="123.025" y2="108.398" gradientUnits="userSpaceOnUse">
<stop stop-color="#FF6E05"/>
<stop offset="1" stop-color="#F83C27"/>
</linearGradient>
<linearGradient id="paint169_linear_2051_3873" x1="65.95" y1="109.03" x2="66.5522" y2="109.059" gradientUnits="userSpaceOnUse">
<stop stop-color="#FF6E05"/>
<stop offset="1" stop-color="#F83C27"/>
</linearGradient>
<linearGradient id="paint170_linear_2051_3873" x1="80.3" y1="111.78" x2="80.6871" y2="111.788" gradientUnits="userSpaceOnUse">
<stop stop-color="#FF6E05"/>
<stop offset="1" stop-color="#F83C27"/>
</linearGradient>
<linearGradient id="paint171_linear_2051_3873" x1="41.0771" y1="65.78" x2="41.7647" y2="65.8036" gradientUnits="userSpaceOnUse">
<stop stop-color="#FF6E05"/>
<stop offset="1" stop-color="#F83C27"/>
</linearGradient>
</defs>
</svg>
