<svg width="143" height="152" viewBox="0 0 143 152" fill="none" xmlns="http://www.w3.org/2000/svg">
<path d="M73.6199 45.7592H75.6199C76.2299 47.0392 75.7399 48.6692 75.8899 50.0792C75.6699 50.3692 75.4499 50.6592 75.2999 50.8592C75.3999 51.9692 76.7699 52.4592 77.5199 53.4292C77.9699 53.2292 78.5299 52.9692 79.1799 52.6692C79.2999 53.0692 79.3799 53.3392 79.5799 54.0092C79.9299 54.3192 80.5799 54.8892 81.1699 55.3992C80.6599 56.5892 82.7099 58.5392 82.9299 56.7992C84.5599 55.2992 86.2599 52.9392 88.6499 52.8792C88.7099 53.0792 88.7799 53.3492 88.8499 53.5992C88.6199 53.8492 88.4199 54.0592 88.2199 54.2692C88.3999 56.6492 86.5199 58.0392 87.0799 60.6392C86.7799 61.0092 86.5999 61.2192 86.3499 61.5292C86.5399 61.8392 86.7299 62.1492 87.0799 62.7192V65.0092C87.7099 64.9992 87.8699 64.4892 88.2199 64.2492V61.8992C89.0699 60.8192 89.6699 60.7892 90.5799 61.8692V63.6892C91.4599 64.3092 92.7699 63.8092 93.8199 63.9592C94.2099 63.0992 94.8299 62.4792 94.6799 61.2692C97.1199 60.7792 94.9799 57.3492 96.6299 55.9092C96.9799 55.7292 97.4699 55.4792 97.9899 55.2092C98.1299 55.3392 98.3399 55.5392 98.5499 55.7292H99.6699C100.21 55.2992 100.75 54.6092 101.42 54.0292C102.55 54.1792 102.26 52.8192 103.02 52.3992C103.61 52.1292 104.3 52.0192 104.64 51.3592C104.51 50.8692 104.04 51.0892 103.65 50.8992C103.6 50.5192 103.41 49.8892 103.01 49.5992C103.28 49.0792 103.53 48.5992 103.79 48.0892H105.63C105.83 48.3292 106.07 48.6292 106.41 49.0492C106.44 49.3292 106.5 49.7992 106.56 50.3592H109.62C112.19 52.1992 108.61 52.7492 107.7 54.1692C107.78 54.7192 108.26 54.4592 108.56 54.5892C108.83 54.8592 109.11 55.1392 109.39 55.4192V56.0192C109.73 56.3592 110.08 56.6992 110.48 57.0792C110.53 57.4992 110.58 57.9692 110.63 58.4292C110.77 58.5692 110.91 58.7092 111.08 58.8792C110.91 59.1592 110.74 59.4492 110.5 59.8592C110.67 60.1092 110.88 60.4192 111.14 60.8092V63.6492C110.97 63.8292 110.77 64.0392 110.57 64.2592C110.82 65.8192 109.97 66.9592 109.35 68.1192C109.863 68.7325 110.443 69.1859 111.09 69.4792C111.19 70.1492 111.32 70.8292 110.57 71.2992C110.56 73.5892 112.85 75.0592 112.3 77.9192C113.34 77.9992 113.67 78.3592 113.52 79.4792C113.29 79.7292 113.04 80.0092 112.71 80.3692C112.12 80.3992 111.46 80.4392 110.81 80.4792C110.36 80.8792 110.67 81.4092 110.56 81.8792C110.37 82.0792 110.18 82.2892 109.98 82.4992V83.6592C110.19 83.8792 110.38 84.0992 110.59 84.3192V86.6192C110.943 87.0992 111.157 87.7092 111.23 88.4492C113.52 88.9892 116.1 88.5092 118.51 88.6692C118.98 89.1492 119.46 89.6392 119.96 90.1592V91.3592C119.71 91.5792 119.42 91.8392 119.08 92.1392H115.5C115.29 91.9292 115.16 91.7992 115 91.6392H110.92C110.7 91.4292 110.49 91.2392 110.26 91.0292C109.7 91.6892 109.12 92.2892 108.23 92.4192V93.1992C107.71 93.2892 107.18 93.3892 106.65 93.4792C106.51 93.6192 106.37 93.7592 106.2 93.9292H103.23C102.9 93.7992 102.7 93.1592 101.97 93.4292C101.8 93.6292 101.55 93.9292 101.18 94.3792C101.61 94.5892 102.13 94.8492 102.7 95.1292C100.56 96.5092 101.25 98.1292 101.17 100.139C100.18 101.549 98.7599 101.969 97.6399 103.119C97.6399 103.309 97.6599 103.499 97.6699 103.689C98.2999 104.339 99.1899 103.629 99.9199 104.149C99.9399 104.359 99.9599 104.629 99.9799 104.879C99.3299 105.379 98.6299 105.039 97.9699 105.139C97.3999 105.959 96.6899 105.819 96.1599 105.159C95.5399 105.159 94.9499 105.159 94.3999 105.159C94.2399 105.319 94.0999 105.459 93.9199 105.639C93.4999 105.689 93.0399 105.739 92.5899 105.789C91.6999 106.469 91.6399 107.529 90.9799 108.449C91.4899 108.569 91.7599 108.639 92.0799 108.719C93.2199 110.159 92.9899 112.259 92.9799 114.369C94.8499 114.759 96.4899 115.259 97.1699 117.249C98.0599 118.519 100.39 118.529 101.15 120.169V123.479C100.38 124.319 99.7199 125.039 99.0899 125.719H97.3499C96.7599 124.669 95.5399 124.609 94.7499 123.709C94.8899 123.529 95.0399 123.339 95.2399 123.069V120.669C94.1299 119.259 91.9599 118.789 91.4699 116.899C91.1199 117.249 90.7799 117.589 90.3599 118.009H88.4599C87.6799 117.539 87.6999 116.549 87.1099 115.959C88.2999 114.929 87.3999 114.429 86.2199 114.509C85.6899 115.039 85.1999 115.529 84.7099 116.019V117.179C83.7999 118.849 82.5699 120.589 81.6399 117.659C81.2199 117.479 80.7999 117.309 79.8499 116.909C80.3599 117.019 80.2599 116.969 80.2299 116.999C79.6999 117.429 79.1799 117.859 78.8699 118.119V119.699C79.1499 119.769 79.4199 119.829 79.6499 119.889C79.8999 119.659 80.1099 119.459 80.3199 119.269H81.4899C81.9899 119.649 81.6899 120.179 81.7999 120.759C81.5299 121.049 81.2099 121.399 81.0499 121.559C79.8199 121.799 80.1599 120.859 79.7299 120.469C78.0799 124.449 77.4499 120.529 75.8899 119.659V118.379C75.3999 117.889 74.9199 117.409 74.4299 116.919H72.6499C72.3299 117.259 71.9899 117.609 71.6599 117.949C69.8899 117.469 68.5399 116.489 67.3099 115.139H65.6299C65.3999 114.939 65.1999 114.769 64.9099 114.529C64.8199 114.879 64.7599 115.149 64.6899 115.429C66.3899 116.449 65.8399 117.969 65.9099 119.559C65.5799 119.889 65.2999 120.169 65.0299 120.439C64.4399 120.439 63.8499 120.439 63.2599 120.439C62.9799 120.159 62.7099 119.889 62.3999 119.579V116.089C61.9899 115.659 61.5999 115.239 61.1899 114.809V113.829C60.4599 112.799 59.8199 111.909 59.1599 110.979C58.5799 111.659 58.9499 112.369 58.8399 113.029C59.0299 113.229 59.2199 113.449 59.4299 113.669V114.829C58.2599 116.619 57.2599 115.089 56.6899 113.849C55.8099 114.289 54.8299 114.589 54.1399 115.419V118.339C53.9399 118.549 53.7599 118.759 53.5699 118.969C54.1399 119.539 54.6899 120.089 55.2799 120.679V123.599C54.8899 124.059 54.5899 124.709 53.7199 124.559C52.7799 124.989 51.6799 124.959 50.8799 125.689H47.9899C46.1099 124.189 44.1199 122.639 42.4499 120.779C42.3199 120.649 42.1499 120.429 42.0099 120.439C41.0499 120.539 40.9199 119.309 40.1399 119.269C39.0099 118.939 38.5899 117.719 36.7999 118.069C36.5299 117.789 36.2599 117.509 35.9599 117.209C36.1299 117.019 36.2999 116.809 36.5199 116.559C35.1299 115.219 33.7399 113.859 32.3799 112.549V111.889C31.7199 111.299 30.7899 111.869 30.1599 110.849C30.2999 110.109 31.3299 109.599 31.7999 108.959V104.849C30.4499 103.819 30.1499 101.159 27.9599 101.629C27.5899 101.999 27.2399 102.349 26.8999 102.689C24.8499 102.929 23.0299 104.309 21.1899 105.199C20.4199 104.809 20.0099 104.129 19.4199 103.569C19.5199 102.599 20.4499 102.249 20.9599 101.589H22.1299C22.6699 100.579 23.9099 101.249 24.6399 100.459C25.1599 99.8992 26.1999 99.9592 26.7899 99.2692H28.4799C28.9199 99.0292 29.1399 98.4392 29.7499 98.6592C32.0499 96.9192 31.8499 95.2392 34.1099 93.1292C33.9799 92.6292 33.4899 92.8892 33.2199 92.6992C32.8999 92.4792 32.6399 92.1792 32.4599 92.0092C32.2299 90.2292 34.5999 90.3692 35.2899 88.9992C35.3099 88.8092 35.3199 88.6192 35.3399 88.4192C36.3699 88.0092 37.0299 86.9592 38.1199 86.7492C38.4899 86.0992 38.1199 85.4292 38.3099 84.8692C37.8299 84.3292 37.2999 84.6392 36.8499 84.5392C35.7199 82.2992 39.3899 82.8992 40.6699 82.6692C40.2999 81.9492 39.7699 82.2592 39.3499 82.1892C38.6399 81.6892 37.5399 81.1492 36.8699 82.1592H35.1599C33.9399 83.3092 32.0599 83.6292 31.1099 85.0892C28.3699 84.8592 26.9199 87.4192 26.0299 89.6292C26.1299 89.7392 26.3099 89.9392 26.4999 90.1492C25.8599 90.5192 25.9199 91.1092 25.9299 91.6992C25.2199 92.7692 23.9399 93.5792 23.6299 94.8492C23.4999 96.2592 22.2299 95.9992 21.4999 96.8892H19.7699C19.5499 97.0892 19.3399 97.2892 19.1499 97.4692H17.9799C17.6899 97.1792 17.4099 96.8992 17.1199 96.6092V95.4592C15.6799 93.9892 13.7799 92.4392 14.1999 89.5592C14.3499 89.3892 14.5399 89.1792 14.7499 88.9492V87.2292C14.9599 87.0092 15.1499 86.7892 15.3599 86.5692V85.4092C16.2399 84.1692 17.0499 82.9592 18.2799 81.8992V81.3292C20.9899 79.9992 23.2899 78.2092 25.3799 75.9792C24.2499 75.4592 23.1499 75.1492 22.3999 74.2392C23.6199 73.7392 25.3099 74.1892 26.6699 74.0392C26.9999 73.7292 27.2799 73.4792 27.6199 73.1592V71.6192C28.2099 70.2392 28.9699 69.3292 30.0799 68.2992C29.7199 68.1792 29.3799 68.0592 28.9199 67.8992C28.8899 67.4892 28.8599 67.0192 28.8299 66.5592C26.7299 65.7592 26.6799 64.6892 28.2699 62.4892V61.3592C29.3099 60.6992 29.3599 59.5892 30.1299 58.8892C30.5599 58.5492 31.2199 58.6092 31.5499 58.0592H33.2899C33.4399 57.9092 33.5799 57.7692 33.8099 57.5392C33.9799 57.6692 34.1699 57.8092 34.4499 58.0192H36.7499C37.7499 59.0192 38.7699 60.0392 39.7799 61.0492C41.2499 60.7492 41.5699 59.4392 42.2099 58.4492C42.0499 57.9092 41.8699 57.3292 41.7399 56.8992C42.7599 55.8792 43.6499 54.9892 44.6699 53.9692H47.4099C47.6399 53.6992 47.8899 53.3992 48.2199 52.9992C48.2599 52.6892 48.3099 52.2292 48.3799 51.6692C49.8899 51.2292 50.5299 52.4392 51.4799 53.3392H53.7799C54.0099 53.5392 54.2199 53.7292 54.4699 53.9492C55.1199 53.2592 55.7899 52.5492 56.4599 51.8392C54.8599 49.8292 56.6599 47.1792 57.5699 45.3892C56.8799 45.0392 56.0999 44.6492 55.3299 44.2592C55.4799 44.1092 55.6199 43.9692 55.8199 43.7692C55.5599 43.1292 55.2299 42.4092 54.8299 41.8192C54.9999 41.6492 55.1399 41.5092 55.3099 41.3392V39.9492C54.7999 39.5292 54.1299 38.9792 53.5599 38.5092V37.1692C53.3999 37.0092 53.2599 36.8692 53.0999 36.7092C53.3299 36.1592 53.5899 35.6292 53.6199 34.9692C53.6399 34.4692 54.4199 34.1792 54.1999 33.5592C55.7599 32.9892 57.0399 32.2192 58.6099 32.1892C59.5499 33.4592 60.4899 34.7892 60.6799 36.5092C60.2599 36.9592 59.8599 37.3792 59.4699 37.7892C59.0299 40.0292 60.5499 41.2792 60.7199 43.1492C61.1399 43.5692 61.6499 43.2492 61.7599 43.2792C62.4699 43.6492 62.8699 43.8592 63.3999 44.1392C63.7499 44.8492 64.3299 45.5592 64.1599 46.7692C63.8099 47.0392 63.3599 47.3992 62.9799 47.6992C63.0099 48.0392 63.0299 48.2292 63.0499 48.4292C63.6499 48.8992 64.3599 48.5492 64.9299 48.6392C66.1499 48.0792 67.2799 47.1192 68.4899 45.7992C68.9799 46.0292 69.4599 46.2592 69.9899 46.5192V48.4292C70.2699 48.6392 70.6399 48.9292 71.0099 49.2192H72.1399C72.4299 48.6292 72.8899 48.0692 72.9299 47.4792C72.9699 46.7792 73.8499 46.5992 73.6499 45.7292L73.6199 45.7592ZM50.6099 117.779C50.4399 117.469 50.2499 117.659 50.0199 117.779C50.1899 118.089 50.3799 117.899 50.6099 117.779ZM91.8399 115.339C91.9099 115.459 91.9799 115.589 92.0499 115.719C92.3599 115.549 92.1699 115.359 92.0499 115.129C91.9799 115.199 91.9199 115.259 91.8399 115.339ZM65.2199 111.809C65.1399 111.729 65.0799 111.669 65.0099 111.599C64.8899 111.829 64.6999 112.019 65.0099 112.189C65.0799 112.059 65.1499 111.929 65.2199 111.809ZM98.8099 63.0892C98.6399 62.7792 98.4499 62.9692 98.2199 63.0892C98.3899 63.3992 98.5799 63.2092 98.8099 63.0892Z" fill="#CB10AC"/>
<path d="M70.8501 27.4692C70.6801 27.3092 70.4701 27.1092 70.2501 26.9092H69.1301C68.6201 26.4092 68.1301 25.9292 67.6401 25.4392C67.8201 24.8592 67.3701 24.5692 67.0701 24.2692V22.7492C67.6601 21.0692 68.9201 20.0992 70.4101 19.2792C72.2001 19.0992 73.3701 19.8792 74.6701 21.2992C74.6901 21.5892 74.7101 21.9592 74.7501 22.6492C74.9401 22.7692 75.34 23.0292 75.95 23.4092H78.5501C78.8501 24.1392 79.74 23.8592 80.2 24.4292C80.62 24.9492 80.5301 25.7292 81.1701 26.0792V28.9992C80.2101 30.1592 79.1101 30.8892 77.8601 31.6392C76.2001 31.8992 74.9401 30.7992 73.5201 30.1492V28.9892C73.37 28.8392 73.2301 28.6992 73.0201 28.4892C72.9801 28.1092 72.94 27.6492 72.89 27.1792C72.18 26.2892 71.8301 27.5992 70.8601 27.4892L70.8501 27.4692Z" fill="#CB10AC"/>
<path d="M70.2899 43.9692H67.3599C62.7899 40.3392 64.8499 36.8192 69.3499 35.1192C70.2599 35.5592 71.2299 36.0392 72.2099 36.5092C72.5299 37.2192 72.8699 37.9592 73.1899 38.6692H74.9399C75.2799 38.4192 75.5699 38.1992 75.7499 38.0592C76.4899 38.1392 76.6599 38.6792 77.0699 38.9592C77.1399 40.5592 76.0499 42.1392 75.0199 43.3692H70.9399C70.7299 43.5692 70.5199 43.7692 70.2999 43.9692H70.2899ZM71.0999 40.2292C71.0299 40.1092 70.9599 39.9792 70.8899 39.8492C70.5799 40.0192 70.7699 40.2092 70.8899 40.4392C70.9599 40.3692 71.0199 40.3092 71.0999 40.2292Z" fill="#CB10AC"/>
<path d="M88.0999 128.639H84.9699C84.6099 128.279 84.2599 127.929 83.8599 127.529H81.9099C81.7199 127.809 81.3899 128.289 81.1499 128.629C80.4399 128.599 79.9599 128.809 79.4599 128.439C79.5299 126.779 79.0999 125.049 80.1799 123.509C81.9899 122.949 83.4499 121.439 84.9799 120.429H87.3299C87.6399 121.129 88.5099 120.919 88.9799 121.449C89.4299 121.949 89.3199 122.759 89.9699 123.099V125.299C89.4199 126.699 88.3499 127.169 88.0899 128.649L88.0999 128.639ZM85.1999 125.019C85.1999 124.899 85.1899 124.769 85.1799 124.649C83.8399 124.229 83.9699 125.439 85.1999 125.019Z" fill="#CB10AC"/>
<path d="M96.8601 23.9792H99.1801C99.3601 24.3492 99.6301 24.8792 99.6801 24.9892C100.49 25.1592 100.76 25.2192 101.1 25.2892C101.14 25.9592 101.17 26.6192 101.21 27.2392C101.42 27.4792 101.6 27.6992 101.82 27.9692C101.5 28.6092 101.18 29.2492 100.87 29.8692C100.63 29.8792 100.44 29.8892 100.25 29.8992C99.9001 30.2492 99.56 30.5892 99.16 30.9892H96.45C95.75 30.2892 95.07 29.6092 94.16 28.6992C93.84 26.8192 94.7201 24.7692 96.8601 23.9892V23.9792Z" fill="#CB10AC"/>
<path d="M64.8701 145.119H65.5801C65.7901 144.919 66.0001 144.719 66.2001 144.539C67.6901 144.449 68.6901 144.539 69.8201 145.299C71.3901 147.399 70.5401 150.709 67.8301 151.569H65.5901C64.9801 150.909 64.3201 150.199 63.5601 149.389V147.199C64.2201 146.609 64.0301 145.769 64.8701 145.109V145.119Z" fill="#CB10AC"/>
<path d="M28.27 45.2392V43.6092C28.65 43.3992 29.16 43.1092 29.42 42.9692C29.36 40.1992 28.96 38.4192 31.66 37.4992C32.91 37.8792 33.83 38.4592 34.67 39.5192C35.19 43.2892 33.66 41.7292 32.34 44.0992C32.48 44.2992 32.7 44.5892 32.92 44.8892C32.24 45.4492 32.46 46.3892 31.51 46.8992H29.65C29.3 46.4792 28.86 45.9692 28.26 45.2492L28.27 45.2392Z" fill="#CB10AC"/>
<path d="M114.68 108.509V106.009C115.03 105.659 115.37 105.319 115.74 104.949C115.64 104.369 115.06 104.159 114.72 103.679C114.42 101.879 115.05 101.299 116.69 100.519C117.33 100.889 118.01 101.279 118.74 101.699C118.6 103.909 118.81 105.259 119.97 106.739C120.39 108.549 119.13 109.129 117.8 109.799C116.69 110.229 115.74 109.069 114.68 108.509Z" fill="#CB10AC"/>
<path d="M52.96 133.209C52.6 133.499 52.32 133.719 52.05 133.939H50.3C49.94 133.579 49.6 133.239 49.24 132.879C48.35 133.429 47.27 133.379 46.3 134.029C45.97 133.719 45.69 133.449 45.35 133.129C45.33 132.809 45.32 132.439 45.3 132.079C46.32 131.019 46.75 129.199 48.17 128.719C49.32 127.859 50.17 127.359 51.14 129.049V129.989C51.81 130.599 52.45 131.179 52.95 131.639V133.229L52.96 133.209Z" fill="#CB10AC"/>
<path d="M83.1801 50.9993H81.4401C81.1401 50.6993 80.8601 50.4193 80.9801 50.5393C79.8801 48.9693 79.9501 48.3093 80.0101 46.6093C81.2401 45.7293 82.6501 45.6693 84.3401 45.7593C84.5601 45.5593 84.7701 45.3693 85.0001 45.1593H85.5401C85.9601 44.7593 86.3801 44.3593 86.7601 43.9893H87.9401C88.4301 44.3793 88.1301 44.9093 88.2701 45.6193C86.8301 46.6893 85.4801 47.2093 85.0301 48.6593C84.5801 49.6193 83.9701 50.4093 83.1701 50.9993H83.1801Z" fill="#CB10AC"/>
<path d="M72.73 124.979C72.22 125.209 71.48 125.549 70.71 125.889C70.65 126.119 70.59 126.389 70.51 126.709C70.2 126.819 69.86 126.949 69.45 127.089C69.43 127.439 69.41 127.809 69.38 128.479C69.19 128.619 68.81 128.909 68.38 129.219C68.28 129.219 68.09 129.199 67.89 129.179C67.38 128.589 67.75 127.879 67.64 127.209C67.82 127.009 68.02 126.799 68.22 126.569V122.499C68.42 122.279 68.62 122.069 68.82 121.849V121.279C70.42 119.079 72.98 121.429 73.53 123.309C73.29 123.789 73.05 124.269 72.71 124.959L72.73 124.979Z" fill="#CB10AC"/>
<path d="M86.7401 12.7993H89.1201C90.0701 12.0193 90.3401 10.7993 90.8601 9.79926C91.4734 10.0593 91.9501 10.3926 92.2901 10.7993C92.1501 10.9393 92.0101 11.0793 91.8101 11.2793V12.9093C91.0601 13.5993 91.2301 14.9393 89.9301 15.1993C89.5201 15.2793 89.1701 15.7193 88.8201 15.9793V16.6093C87.7701 16.9993 86.5001 18.2793 85.3601 16.7293V14.3193C85.8501 13.7793 86.3101 13.2793 86.7401 12.8093V12.7993Z" fill="#CB10AC"/>
<path d="M57.9 126.399C58.45 126.679 58.94 126.929 59.42 127.179V128.359C59.05 128.639 58.85 129.139 58.16 129.279C57.96 129.139 57.66 128.929 57.35 128.709C56.7 129.739 56.44 131.079 55.32 131.839V133.609C54.89 134.139 54.44 134.609 53.71 134.659C53.54 135.309 53.3 135.919 52.59 136.239C52.39 136.019 52.13 135.739 51.75 135.329C52.21 135.059 52.7 134.769 52.95 134.609V133.349C53.86 133.409 53.31 132.379 53.86 132.139C54.95 131.429 54.96 130.049 55.71 129.089C56.67 128.359 56.79 126.899 57.9 126.399Z" fill="#CB10AC"/>
<path d="M52.3701 49.5493C51.5301 49.8493 50.8401 50.6093 49.6301 50.3993C49.3101 50.0093 48.8901 49.4793 48.3101 48.7593V47.0693C48.6501 46.8293 49.2001 46.4393 49.7501 46.0493C49.6901 45.9893 49.6401 45.9393 49.5801 45.8793C50.3001 45.5293 51.3001 45.8193 52.0701 45.7293C52.7101 46.3393 52.0401 47.1493 52.9301 47.7793C52.7501 47.9793 52.5601 48.1793 52.3701 48.3893C52.3701 48.7693 52.3701 49.1593 52.3701 49.5493Z" fill="#CB10AC"/>
<path d="M83.11 21.1592C83.05 21.2192 82.56 21.6992 82.05 22.1992H80.88C80.65 21.9792 80.37 21.7192 80.05 21.4092V19.1392C80.81 18.3092 81.46 17.5992 82.05 16.9592H83.26C83.56 17.2592 83.83 17.5292 84.11 17.8092V19.4492C83.85 19.8992 83.6301 20.2792 83.1201 21.1592H83.11Z" fill="#CB10AC"/>
<path d="M99.1501 50.4392H97.7601C97.4701 50.7992 97.1101 51.2492 96.8001 51.6292C95.7701 51.6992 95.3601 50.7592 94.6101 50.2292C95.0001 49.8392 95.2701 49.5692 95.5601 49.2792H96.7201C96.9901 49.4992 97.2701 49.7292 97.4301 49.8592C97.7301 49.8592 97.8801 49.8992 97.9201 49.8592C99.1001 48.2792 101.54 48.5192 102 46.3692H103.72C103.94 46.1692 104.16 45.9792 104.39 45.7792C104.83 45.7792 105.3 45.6592 105.76 45.8792C105.76 46.4892 105.13 46.5392 105.02 46.9492H103.97C102.36 48.3492 100.46 48.9392 99.1601 50.4692L99.1501 50.4392Z" fill="#CB10AC"/>
<path d="M97.16 106.919H99.13C99.43 107.219 99.7 107.499 99.98 107.769V110.689C99.18 111.279 98.37 110.829 97.45 111.769C96.95 110.769 96.51 109.899 96.01 108.929C96.33 108.369 96.72 107.689 97.16 106.929V106.919Z" fill="#CB10AC"/>
<path d="M92.93 37.1992C92.73 37.4092 92.54 37.6192 92.34 37.8292V38.9792C91.85 39.4692 91.37 39.9492 90.86 40.4592C90.6 40.1792 90.35 39.8892 89.99 39.4892V37.3292C90.96 36.0492 90.59 34.2492 92.14 33.3692C92.38 33.4192 92.56 33.4492 92.74 33.4792C93.22 34.5192 92.79 35.9992 92.93 37.1892V37.1992Z" fill="#CB10AC"/>
<path d="M69.3699 135.949V140.879C69.0699 140.939 68.7999 140.979 68.5399 141.029C68.1899 140.149 67.4899 139.439 67.6599 138.399C67.4799 138.199 67.29 137.989 67.08 137.749V136.049C66.84 135.749 66.61 135.469 66.45 135.259C67.47 132.579 68.5699 134.629 69.3699 135.929V135.949Z" fill="#CB10AC"/>
<path d="M140.85 124.539C141.28 124.999 141.74 125.489 142.24 126.019V127.839C141.36 128.369 140.11 127.929 139.05 128.059C138.8 127.799 138.54 127.519 138.23 127.189V124.769C138.89 124.219 139.96 124.659 140.85 124.529V124.539Z" fill="#CB10AC"/>
<path d="M35.67 26.9192C37.39 26.5892 38.12 28.3792 38.2 30.2092C37.93 30.4792 37.6499 30.7592 37.3799 31.0292C35.4199 31.4092 35.06 30.4392 34.2 29.0192C34.79 28.4492 34.77 27.4592 35.67 26.9092V26.9192Z" fill="#CB10AC"/>
<path d="M40.1399 50.9292C40.6299 51.0492 40.8899 51.1092 41.1399 51.1692V52.5592C40.1599 53.3892 39.9099 51.7592 38.5399 52.1792C38.1799 51.8192 37.8399 51.4792 37.4399 51.0792H35.5499C35.3799 50.7992 35.1299 50.3992 34.8999 50.0392C35.0799 49.6892 35.3199 49.2092 35.5799 48.6992H36.8699C37.1399 49.0392 37.4999 49.4892 37.7799 49.8392H39.2399C39.5499 50.2092 39.9199 50.6592 40.1499 50.9292H40.1399Z" fill="#CB10AC"/>
<path d="M123 111.579C123.45 111.609 123.64 111.619 123.97 111.639C124 111.949 124.04 112.279 124.09 112.699C123.49 112.739 123.03 112.769 122.58 112.809C122.24 113.149 121.9 113.489 121.48 113.909C121.19 113.929 120.82 113.949 120.18 113.979C120.02 113.719 119.78 113.309 119.42 112.699C119.51 112.519 119.75 112.039 120.03 111.499C119.84 111.229 119.64 110.949 119.44 110.669C120.91 108.779 120.69 110.549 122.03 110.419C122.4 110.859 122.77 111.289 123.01 111.579H123Z" fill="#CB10AC"/>
<path d="M6.57014 87.7892C6.29014 85.8092 9.12013 86.3793 10.3401 86.3093C10.7401 86.7093 11.0801 87.0493 11.4501 87.4193C11.8901 87.4693 12.3501 87.5193 12.7801 87.5693C13.1501 88.0293 12.9201 88.5193 12.9601 88.9893C12.3801 89.5393 11.6601 89.1393 10.8901 89.2793C10.5801 88.8893 10.2101 88.4292 9.93013 88.0792C8.71013 87.9092 7.38014 88.4592 6.57014 87.7892Z" fill="#CB10AC"/>
<path d="M112.33 20.7392C113.01 20.0592 113.7 19.3792 114.41 18.6892H115.56C116.63 19.9192 114.94 20.5892 115.22 22.0392C114.83 22.3192 114.29 22.7192 113.43 23.3392C113.45 23.3392 112.99 23.3392 112.57 23.3392C112.03 22.6892 112.46 21.5892 112.33 20.7392Z" fill="#CB10AC"/>
<path d="M120.55 120.129C120.28 120.389 120 120.659 119.69 120.959C119.5 120.799 119.3 120.629 119.07 120.429H117.88C117.66 120.159 117.41 119.859 117.07 119.439V117.769C117.24 117.579 117.5 117.299 117.81 116.959H119.74C120 117.219 120.28 117.499 120.55 117.769V120.129Z" fill="#CB10AC"/>
<path d="M110.56 101.309C110.29 101.579 110.01 101.859 109.74 102.129C109.09 102.159 108.37 102.479 108.01 101.569C107.74 101.809 107.54 101.989 107.32 102.189H106.17C105.98 102.009 105.77 101.809 105.57 101.619C105.37 101.799 105.17 101.989 104.96 102.179C104.67 101.889 104.4 101.619 104.07 101.289C104.37 101.059 104.66 100.829 105.1 100.479H107.77C108 100.299 108.21 100.129 108.51 99.8992H110.33C110.76 100.359 110.47 100.869 110.57 101.319L110.56 101.309Z" fill="#CB10AC"/>
<path d="M41.79 47.1092V45.9592C42.22 45.6092 42.74 45.1892 43.32 44.7092C43.85 45.0192 44.53 45.4092 45.24 45.8092V47.8492C44.99 48.0992 44.72 48.3692 44.44 48.6492H43.22C42.8 48.1992 42.34 47.6992 41.78 47.0892L41.79 47.1092Z" fill="#CB10AC"/>
<path d="M86.1701 21.6292C87.8901 22.6692 86.45 23.8492 86.45 25.1092H83.7401C83.3301 24.4292 83.5801 23.7492 83.5401 23.0892C84.0201 22.6092 84.5101 22.1192 84.9901 21.6392C85.3801 21.6392 85.7701 21.6392 86.1601 21.6392L86.1701 21.6292Z" fill="#CB10AC"/>
<path d="M19.4501 28.9792V27.2792C19.2001 26.9592 18.9801 26.6692 18.8101 26.4492C19.0801 25.5992 19.5701 25.2392 20.2401 25.0992C20.8301 25.5992 20.6001 26.0792 20.6301 26.7892C20.9701 26.8592 21.2301 26.9092 21.5201 26.9692C21.7901 27.8492 22.7801 28.5792 22.2401 29.7192C21.6001 30.0492 20.9301 29.7392 20.3601 29.8892C20.0001 29.5292 19.7301 29.2592 19.4501 28.9792Z" fill="#CB10AC"/>
<path d="M106.45 107.779C106.17 108.059 105.9 108.329 105.59 108.639H104.33C103.96 108.209 103.52 107.699 102.99 107.089V105.929C103.73 105.479 104.76 105.839 105.56 105.729C105.89 106.059 106.17 106.339 106.44 106.609C106.44 106.999 106.44 107.389 106.44 107.789L106.45 107.779Z" fill="#CB10AC"/>
<path d="M131.46 111.019H132.61C132.89 111.299 133.17 111.579 133.44 111.849C133.45 112.039 133.47 112.229 133.48 112.419C134.1 112.779 134.83 112.989 135.24 113.659C134.97 113.929 134.69 114.209 134.42 114.479C133.887 114.459 133.557 114.163 133.43 113.589C132.84 113.099 132.14 113.459 131.47 113.349C131.13 113.069 130.78 112.769 130.59 112.609C130.44 111.599 131.14 111.429 131.46 111.009V111.019Z" fill="#CB10AC"/>
<path d="M104.61 27.4692C104.61 27.4692 104.44 27.4292 104.26 27.3892C103.86 26.6992 104.2 25.6792 104.09 24.8692C104.67 24.5792 104.58 23.9192 104.91 23.4492H106.2C106.72 24.0392 106.32 25.2192 106.44 25.7592C105.76 26.3892 105.22 26.8992 104.61 27.4692Z" fill="#CB10AC"/>
<path d="M45.0699 21.7193C44.7699 21.3693 44.5099 21.0793 44.1799 20.6993V18.9793C44.3599 18.7893 44.6099 18.5093 44.9299 18.1693H46.2599C47.4699 19.8093 47.0599 20.9093 45.0699 21.7193Z" fill="#CB10AC"/>
<path d="M47.07 38.9492V40.2092C46.38 40.3692 45.82 40.8292 45.16 41.1192C44.84 40.8192 44.56 40.5692 44.22 40.2492V38.3292C44.48 38.0592 44.76 37.7892 45.04 37.4892C46.08 37.4592 46.37 38.4892 47.07 38.9492Z" fill="#CB10AC"/>
<path d="M131.09 48.0892V49.5392C130.51 50.3892 129.52 50.5792 128.5 51.1792C128.27 50.7692 128.03 50.3492 127.6 49.5992C127.64 49.0992 128.6 48.7692 129.07 48.0892H131.09Z" fill="#CB10AC"/>
<path d="M121.14 77.1393C121.14 77.0293 121.14 77.4092 121.14 77.7892C120.87 78.0592 120.6 78.3293 120.29 78.6393H118.98C118.82 78.4093 118.55 78.0293 118.2 77.5293V76.0193C118.76 75.4393 119.47 75.8493 120.3 75.6993C120.47 75.9993 120.71 76.4192 121.13 77.1492L121.14 77.1393Z" fill="#CB10AC"/>
<path d="M10.8099 55.8192C10.3699 57.2692 9.24993 57.7992 8.61993 58.6692H6.74994C6.65994 58.4292 6.56995 58.1792 6.44995 57.8492C7.71995 56.6192 8.83995 55.4092 10.8199 55.8192H10.8099Z" fill="#CB10AC"/>
<path d="M131.18 81.8593C130.47 82.4993 129.89 83.0193 129.74 83.9593H128.5C127.4 82.8393 129 81.5593 129.49 80.4993H130.91C131.39 80.9293 130.95 81.4693 131.18 81.8593Z" fill="#CB10AC"/>
<path d="M21.51 38.6792C21.79 38.9592 22.06 39.2292 22.37 39.5392V40.7392C22.15 40.9692 21.89 41.2492 21.56 41.5892C21.24 41.6092 20.86 41.6192 20.24 41.6492C20.04 41.3992 19.75 41.0292 19.48 40.6992V39.5392C19.78 39.2392 20.06 38.9592 20.33 38.6792H21.51Z" fill="#CB10AC"/>
<path d="M100.18 6.32925C99.5401 5.31925 100.89 5.07925 100.54 4.28925C101.58 3.87925 102.03 3.24925 103.29 3.35925C103.48 3.59925 103.76 3.96925 104.03 4.32925C103.25 5.01925 101.35 6.00925 100.17 6.32925H100.18Z" fill="#CB10AC"/>
<path d="M2.10001 79.7892H0.290009C-0.179991 79.3392 0.22 78.8192 0 78.4092C0.32 78.1092 0.589993 77.8492 0.929993 77.5292H3.44C3.5 77.8092 3.56 78.0692 3.62 78.3492C3.12 78.8292 2.63 79.2792 2.09 79.7892H2.10001Z" fill="#CB10AC"/>
<path d="M27.6799 114.819V116.019C27.4199 116.269 27.1399 116.529 26.8099 116.839H24.9699C24.4899 116.189 24.9199 115.499 24.6599 114.879C25.1899 114.609 25.6499 114.379 26.1999 114.099C26.6199 114.309 27.1499 114.559 27.6699 114.819H27.6799Z" fill="#CB10AC"/>
<path d="M116.42 130.059V131.909C115.82 132.519 115.08 131.929 114.47 132.289C114.18 131.739 113.93 131.269 113.6 130.629C113.99 130.189 114.53 129.709 114.95 129.269C115.85 129.119 115.98 129.899 116.43 130.059H116.42Z" fill="#CB10AC"/>
<path d="M28.86 143.059C29.14 142.779 29.41 142.509 29.72 142.199H30.92C31.15 142.419 31.43 142.679 31.73 142.969C31.33 143.659 30.93 144.349 30.53 145.049H29.08C28.66 144.399 28.94 143.709 28.86 143.049V143.059Z" fill="#CB10AC"/>
<path d="M124.37 121.599C124.65 122.179 125.32 122.099 125.74 122.389C125.52 122.849 125.3 123.309 125.06 123.829C124.49 124.109 123.83 123.899 123.18 123.939C122.91 123.669 122.64 123.399 122.37 123.129C122.37 122.679 122.37 122.219 122.37 121.789C123.05 121.439 123.72 121.669 124.37 121.599Z" fill="#CB10AC"/>
<path d="M45.49 148.059C43.39 147.739 46.15 146.379 45.99 145.329C46.61 144.769 47.16 144.159 47.37 143.349C47.62 143.359 47.8 143.369 48.08 143.389C48.46 144.479 47.35 145.499 46.73 146.429C46.24 146.869 46.28 147.839 45.49 148.059Z" fill="#CB10AC"/>
<path d="M128.2 102.559C127.78 103.299 127.55 103.709 127.44 103.899C125.7 103.989 125.79 102.459 125.85 101.289C126.2 100.799 126.72 101.079 127.38 100.969C127.57 101.249 127.84 101.629 128.19 102.139C128.19 102.309 128.19 102.689 128.19 102.569L128.2 102.559Z" fill="#CB10AC"/>
<path d="M49.45 145.039C49.78 144.559 50.05 144.179 50.19 143.979C51.18 143.839 51.35 144.539 51.78 144.849C51.76 145.549 51.21 146.149 50.96 146.829H49.65C49.24 146.169 49.51 145.499 49.46 145.039H49.45Z" fill="#CB10AC"/>
<path d="M106.63 112.789C107.04 112.839 107.22 113.379 107.61 113.649V114.429C107.22 115.079 106.98 115.499 106.87 115.669C105.93 115.809 105.78 115.189 105.31 114.969C105.29 114.589 105.27 114.209 105.24 113.599C105.53 113.429 105.95 113.189 106.63 112.789Z" fill="#CB10AC"/>
<path d="M64.52 145.119H63.82C63.57 144.849 63.3 144.579 62.99 144.239V142.959C63.87 142.119 64.4 141.849 65.3 143.049V144.209C65.07 144.479 64.84 144.749 64.53 145.119H64.52Z" fill="#CB10AC"/>
<path d="M9.79007 76.3593H12.2601C12.3201 76.6293 12.3801 76.8993 12.4501 77.1793C12.1501 77.4493 11.8601 77.6993 11.4901 78.0293H9.02005C8.96005 77.7593 8.90008 77.4893 8.83008 77.2093C9.13008 76.9393 9.42007 76.6893 9.79007 76.3593Z" fill="#CB10AC"/>
<path d="M118.28 67.5092C118.07 67.4392 117.9 67.3792 117.66 67.2892C117.64 66.9392 117.62 66.5692 117.59 65.9492C118.1 65.6092 118.73 65.1692 119.47 64.6692C122.14 64.2392 119.19 66.7192 118.28 67.5092Z" fill="#CB10AC"/>
<path d="M102.98 115.949C102.62 116.309 102.35 116.579 102.1 116.829C97.5199 114.759 99.6699 111.979 102.98 115.949Z" fill="#CB10AC"/>
<path d="M32.97 33.0892V34.2792C32.31 34.7592 31.56 34.5192 30.75 34.4892C30.52 33.7692 30.57 33.0492 30.73 32.2692H32.15C32.43 32.5492 32.7 32.8192 32.97 33.0892Z" fill="#CB10AC"/>
<path d="M72.9299 46.7692C72.5899 47.0392 72.3199 47.2692 72.0199 47.4992H70.8799C70.3799 46.8492 70.6599 46.0992 70.6399 45.3292C71.3399 45.0092 72.0599 45.1292 72.7599 45.2292C73.0999 45.7892 72.8899 46.3592 72.9299 46.7592V46.7692Z" fill="#CB10AC"/>
<path d="M110.61 39.2692V37.6992C110.83 37.5692 111.24 37.3393 111.97 36.9193C111.86 36.9193 112.24 36.9193 112.62 36.9193C113.11 37.2693 112.84 37.7893 112.95 38.4393C112.65 38.6093 112.24 38.8492 111.51 39.2692C111.62 39.2692 111.24 39.2692 110.61 39.2692Z" fill="#CB10AC"/>
<path d="M98.5401 34.5492C98.2701 34.2892 98.0001 34.0492 97.6701 33.7392C97.6501 33.4192 97.6301 33.0492 97.6001 32.4392C98.3201 32.0792 99.5101 30.7892 100.02 32.8292C99.8101 33.5792 99.0101 33.8892 98.5401 34.5492Z" fill="#CB10AC"/>
<path d="M111.79 58.0892V56.4492C112.59 56.4992 112.99 55.8192 113.72 55.6792C113.947 55.8925 114.07 56.4325 114.09 57.2992C113.85 57.4492 113.45 57.6892 112.81 58.0892H111.79Z" fill="#CB10AC"/>
<path d="M65.82 23.1593C65.53 23.4493 65.33 23.6493 65 23.9793C64.02 24.0993 63.16 23.6393 62.3 23.0393C63.3 22.8693 63.78 22.3393 64.44 21.6093C64.88 22.1093 65.33 22.5993 65.83 23.1593H65.82Z" fill="#CB10AC"/>
<path d="M112.91 40.7893C113.77 39.5293 115.29 39.7093 116.19 38.6793C117.15 38.7193 117.23 37.6893 118.34 38.2993C117.22 39.1893 114.16 41.2993 112.91 40.7893Z" fill="#CB10AC"/>
<path d="M67.98 11.2992C68.93 9.55922 70.61 9.54922 71.74 8.70922C71.82 8.64922 72.07 8.80922 72.24 8.86922C72.13 9.80922 71.19 9.67922 70.68 10.1092C70.1 10.5892 69.6 11.1692 69.05 11.7192C68.73 11.5892 68.48 11.4992 67.99 11.3092L67.98 11.2992Z" fill="#CB10AC"/>
<path d="M80.2401 33.3692C80.5601 33.3992 80.7501 33.4192 80.9301 33.4392C81.6501 34.2592 80.45 34.5892 80.53 35.4392C80.57 35.6492 80.03 35.9792 79.66 36.3392C79.38 36.0092 79.08 35.6692 78.8 35.3392C78.91 34.3192 79.9101 34.0692 80.2501 33.3692H80.2401Z" fill="#CB10AC"/>
<path d="M102.33 130.729V131.379C101.3 131.979 100.7 130.559 99.5401 131.079C99.4601 130.659 99.4101 130.399 99.3601 130.149C100.36 129.219 101.39 130.449 102.33 130.729Z" fill="#CB10AC"/>
<path d="M8.03994 52.2092C8.48994 52.3092 9.01993 51.9992 9.48993 52.5392C8.97993 52.9592 8.46994 53.3792 7.81994 53.8992H6.70993C6.61659 53.7126 7.05994 53.1459 8.03994 52.1992V52.2092Z" fill="#CB10AC"/>
<path d="M131.44 86.9492C130.86 86.0292 131.87 84.7692 132.54 84.0292C133.21 84.2492 132.77 84.8192 132.9 85.2292C132.61 85.9692 131.87 86.2992 131.44 86.9592V86.9492Z" fill="#CB10AC"/>
<path d="M79.11 135.119C78.84 134.849 78.57 134.579 78.27 134.269V132.919C78.45 132.779 78.81 132.499 79.15 132.229C79.5 133.769 79.52 133.769 79.11 135.109V135.119Z" fill="#CB10AC"/>
<path d="M67.07 30.1493V30.7193C66.63 31.2893 66.05 30.9793 65.52 30.9493C65.11 30.5593 65.41 30.0492 65.31 29.5992C66.09 29.1392 66.11 29.1193 67.07 30.1393V30.1493Z" fill="#CB10AC"/>
<path d="M99.58 135.819C98.93 136.469 98.46 136.939 97.88 137.519C97.63 137.159 97.3901 136.789 97.0601 136.309C97.0601 136.339 97.06 136.149 97.08 135.969C97.86 135.489 98.63 135.769 99.58 135.819Z" fill="#CB10AC"/>
<path d="M61.77 38.7292H63.39C63.45 38.9992 63.51 39.2592 63.58 39.5592C63.28 39.8092 63 40.0593 62.65 40.3493C62.23 40.3193 62.15 39.7392 61.76 39.6092V38.7292H61.77Z" fill="#CB10AC"/>
<path d="M58.25 26.9192H59.78C59.87 27.1492 59.97 27.3992 60.13 27.8092C59.82 28.0992 59.49 28.4092 59.17 28.7092C58.8 28.3492 58.52 28.0692 58.25 27.7992V26.9092V26.9192Z" fill="#CB10AC"/>
<path d="M57.0201 147.009C56.7101 147.609 56.4501 148.129 56.1801 148.649H55.6001C55.0701 148.119 55.1001 148.029 56.2401 146.849C56.4701 146.899 56.7301 146.949 57.0201 147.009Z" fill="#CB10AC"/>
<path d="M108.5 33.3892H107.89C107.72 33.5792 107.53 33.7892 107.34 33.9992C106.79 33.4492 106.82 33.3592 107.93 32.2092H108.5C108.92 32.5992 108.92 32.9892 108.5 33.3892Z" fill="#CB10AC"/>
<path d="M91.4499 121.009H92.0299C92.5899 121.459 92.29 122.029 92.24 122.659C92 122.709 91.74 122.759 91.49 122.809C90.95 122.189 90.9699 121.599 91.4499 121.009Z" fill="#CB10AC"/>
<path d="M58.25 26.9192C56.7 27.1892 56.87 25.9492 57.91 25.1992C58.51 25.5492 58.17 26.3292 58.25 26.9192Z" fill="#CB10AC"/>
<path d="M9.56006 103.759C9.66006 103.289 10.0901 103.089 10.3701 102.779H11.0801C11.1301 103.089 11.1901 103.409 11.2401 103.699C10.6101 104.049 10.0901 104.049 9.56006 103.759Z" fill="#CB10AC"/>
<path d="M92.3 131.369C92.37 130.969 92.41 130.789 92.45 130.529C92.68 130.479 92.9401 130.429 93.1901 130.379C93.7301 130.989 93.7 131.569 93.32 132.069C92.95 131.819 92.57 131.559 92.3 131.369Z" fill="#CB10AC"/>
<path d="M83.8199 39.2692H84.53C84.59 39.5692 84.66 39.8892 84.74 40.2992C84.36 40.3792 84.1 40.4292 83.86 40.4792C83.38 40.0592 83.39 39.6692 83.81 39.2692H83.8199Z" fill="#CB10AC"/>
<path d="M122.6 66.8992C122.33 66.6292 122.07 66.3692 121.8 66.0992C122.31 65.7192 122.31 65.7092 123.39 65.9192C123.3 66.3892 122.86 66.5692 122.6 66.8992Z" fill="#CB10AC"/>
<path d="M92.1 1.09923C91.78 0.779231 91.52 0.519231 91.25 0.249231C91.5767 0.00923078 92.1033 -0.0574359 92.83 0.0492308C92.81 0.579231 92.2 0.639231 92.1 1.09923Z" fill="#CB10AC"/>
<path d="M122.85 95.0493V96.1893C122.55 96.2493 122.29 96.2993 121.9 96.3693C121.83 95.9993 121.77 95.6793 121.69 95.2693C122.08 95.1993 122.34 95.1493 122.85 95.0493Z" fill="#CB10AC"/>
<path d="M127.66 96.3992V95.2592C127.96 95.1992 128.22 95.1492 128.61 95.0792C128.68 95.4492 128.74 95.7692 128.82 96.1792C128.43 96.2492 128.17 96.2992 127.66 96.3992Z" fill="#CB10AC"/>
<path d="M21.5099 47.4992H22.2199C22.2799 47.7992 22.3499 48.1192 22.4299 48.5292C22.0499 48.6092 21.7899 48.6592 21.5499 48.7092C21.0699 48.2892 21.0799 47.8992 21.4999 47.4992H21.5099Z" fill="#CB10AC"/>
<path d="M28.8599 126.009V126.719C28.5599 126.779 28.2399 126.849 27.8299 126.939C27.7499 126.559 27.6999 126.299 27.6499 126.059C28.0699 125.579 28.4599 125.589 28.8599 126.009Z" fill="#CB10AC"/>
<path d="M14.98 128.159C14.74 127.779 14.52 127.419 14.26 127.009C14.49 126.969 14.81 126.919 15.08 126.879C15.43 127.319 15.45 127.649 14.98 128.159Z" fill="#CB10AC"/>
<path d="M97.9201 3.98926C97.6501 3.71926 97.3901 3.45926 97.1201 3.18926C97.1801 2.61926 97.6301 2.88926 97.9001 2.79926C98.3401 3.20926 98.3401 3.59926 97.9201 3.98926Z" fill="#CB10AC"/>
<path d="M90.25 58.1192C90.02 58.0792 89.76 58.0292 89.49 57.9792C89.58 57.4292 90.03 57.2493 90.29 56.9193C90.71 57.3093 90.7 57.6992 90.25 58.1192Z" fill="#CB10AC"/>
<path d="M59.4199 135.999C59.6899 135.729 59.9499 135.469 60.2199 135.199C60.7899 135.259 60.5199 135.709 60.6099 135.979C60.1999 136.419 59.8099 136.419 59.4199 135.999Z" fill="#CB10AC"/>
<path d="M119.12 26.8892C119.35 26.9292 119.61 26.9792 119.88 27.0292C119.79 27.5792 119.34 27.7592 119.08 28.0892C118.66 27.6992 118.67 27.3092 119.12 26.8892Z" fill="#CB10AC"/>
<path d="M78.7399 16.2192C78.4699 16.2692 78.2099 16.3192 77.9799 16.3592C77.5199 15.9492 77.5199 15.5592 77.9299 15.1592C78.1999 15.4792 78.6299 15.6692 78.7399 16.2092V16.2192Z" fill="#CB10AC"/>
<path d="M55.42 142.689C55 141.459 56.22 141.339 55.79 142.669C55.67 142.669 55.54 142.679 55.42 142.689Z" fill="#CB10AC"/>
<path d="M73.4499 131.479C72.2199 131.899 72.1 130.679 73.43 131.109C73.43 131.229 73.4399 131.359 73.4499 131.479Z" fill="#CB10AC"/>
<path d="M93.9901 1.12921C94.4101 2.35921 93.1901 2.47921 93.6201 1.14921C93.7401 1.14921 93.8701 1.13921 93.9901 1.12921Z" fill="#CB10AC"/>
<path d="M122.9 91.3093C123.29 90.8893 123.69 90.8893 124.08 91.3093C123.69 91.7293 123.29 91.7293 122.9 91.3093Z" fill="#CB10AC"/>
<path d="M87.1299 18.7992C88.3599 18.3792 88.4799 19.5992 87.1499 19.1692C87.1499 19.0492 87.1399 18.9192 87.1299 18.7992Z" fill="#CB10AC"/>
<path d="M135.54 70.9792C135.92 71.4592 135.94 71.7892 135.63 72.1292C134.99 71.8892 135.16 71.5092 135.54 70.9792Z" fill="#CB10AC"/>
<path d="M93.4 60.5192C93.82 61.7492 92.6 61.8692 93.03 60.5392C93.15 60.5392 93.28 60.5292 93.4 60.5192Z" fill="#CB10AC"/>
<path d="M114.56 45.2292C114.98 46.4592 113.76 46.5792 114.19 45.2492C114.31 45.2492 114.44 45.2392 114.56 45.2292Z" fill="#CB10AC"/>
<path d="M97.71 41.7292C98.94 41.3092 99.06 42.5292 97.73 42.0992C97.73 41.9792 97.72 41.8492 97.71 41.7292Z" fill="#CB10AC"/>
<path d="M105.65 38.1792C105.73 38.2592 105.79 38.3192 105.86 38.3892C105.63 38.5092 105.44 38.6992 105.27 38.3892C105.4 38.3192 105.53 38.2492 105.65 38.1792Z" fill="#CB10AC"/>
<path d="M45.02 139.829C45.14 140.059 45.33 140.249 45.02 140.419C44.9 140.189 44.71 139.999 45.02 139.829Z" fill="#CB10AC"/>
<path d="M101.07 136.679C100.99 136.759 100.93 136.819 100.86 136.889C100.74 136.659 100.55 136.469 100.86 136.299C100.93 136.429 101 136.559 101.07 136.679Z" fill="#CB10AC"/>
<path d="M55.8101 117.269C55.7301 117.349 55.6701 117.409 55.6001 117.479C55.4801 117.249 55.2901 117.059 55.6001 116.889C55.6701 117.019 55.7401 117.149 55.8101 117.269Z" fill="#CB10AC"/>
<path d="M82.14 0.959233C82.02 0.889233 81.89 0.819233 81.76 0.749233C81.93 0.439233 82.12 0.629233 82.35 0.749233C82.28 0.819233 82.22 0.879233 82.14 0.959233Z" fill="#CB10AC"/>
<path d="M73.6201 17.8892C73.6901 17.7692 73.7601 17.6392 73.8301 17.5092C74.1401 17.6792 73.9501 17.8692 73.8301 18.0992C73.7601 18.0292 73.7001 17.9692 73.6201 17.8892Z" fill="#CB10AC"/>
<path d="M140.92 80.9392C140.8 80.8692 140.67 80.7992 140.54 80.7292C140.71 80.4192 140.9 80.6092 141.13 80.7292C141.06 80.7992 141 80.8592 140.92 80.9392Z" fill="#CB10AC"/>
<path d="M61.3999 21.7092C61.5199 21.7792 61.6499 21.8492 61.7799 21.9192C61.6099 22.2292 61.4199 22.0392 61.1899 21.9192C61.2599 21.8492 61.3199 21.7892 61.3999 21.7092Z" fill="#CB10AC"/>
<path d="M18.3601 51.8292C18.4401 51.7492 18.5001 51.6892 18.5701 51.6192C18.6901 51.8492 18.8801 52.0392 18.5701 52.2092C18.5001 52.0792 18.4301 51.9492 18.3601 51.8292Z" fill="#CB10AC"/>
</svg>
