<svg width="390" height="844" viewBox="0 0 390 844" fill="none" xmlns="http://www.w3.org/2000/svg">
<g clip-path="url(#clip0_2051_3614)">
<rect width="390" height="844" fill="#22001B"/>
<g filter="url(#filter0_f_2051_3614)">
<path d="M36.247 510.458C35.8868 509.233 35.1302 508.116 34.1576 507.288V501.164C36.3551 499.254 38.9489 500.623 41.3985 500.227C42.119 500.875 42.9116 501.524 43.7401 502.244H47.919C48.6395 501.596 49.396 500.947 50.1525 500.335C50.909 500.947 51.6295 501.596 52.6382 502.424C53.4307 497.957 57.0332 494.679 62.0406 493.238C60.2033 491.365 58.294 492.446 56.4208 492.013C55.5922 491.149 54.6195 490.14 53.4667 488.915V484.736C56.709 483.187 57.3574 479.261 59.8431 476.487V470.543C61.9325 468.561 63.9499 466.616 66.0753 464.599V454.764C67.8045 452.554 67.8405 450.009 66.1834 447.127C66.5797 445.83 67.3002 444.821 68.3089 443.885C68.3809 442.84 67.5523 441.327 66.2915 439.778V433.87C67.048 432.969 67.5884 432.285 68.1287 431.636C67.1561 430.7 66.3996 429.979 65.3909 429.042C60.3835 432.429 54.3674 433.113 47.5587 432.609C46.9823 430.519 46.1538 428.79 44.7488 427.349C44.7488 425.656 44.7488 423.963 44.7488 422.198C48.027 413.84 52.7463 413.84 60.8158 414.416C61.5002 415.065 62.0046 415.569 62.7611 416.29C63.4095 415.821 64.094 415.281 64.9946 414.633C65.607 415.137 66.3275 415.677 67.2281 416.398H70.9026C74.6132 419.964 78.1075 423.315 81.746 426.809C82.7547 426.016 83.4752 425.44 84.3398 424.756C89.059 423.459 90.1397 427.529 94.4267 428.862C99.362 425.368 103.145 420.397 108.044 416.506C109.953 416.434 110.205 417.262 113.087 418.559C114.528 418.559 118.887 418.559 121.121 418.559C121.409 417.515 121.661 416.578 122.31 414.164C123.535 413.084 125.876 411.03 128.038 409.121V403.537C126.813 402.132 125.948 401.087 125.084 400.115C124.147 400.871 123.426 401.484 122.382 402.312C122.057 401.123 121.805 400.187 121.517 398.998C129.695 398.53 122.418 389.163 131.856 392.405C132.288 393.594 132.757 394.783 133.153 395.864C134.054 395.936 134.738 395.972 135.531 396.044C136.251 395.396 137.044 394.711 137.8 394.063C138.953 395.936 140.142 397.845 140.754 398.854C143.204 401.159 145.798 398.998 147.383 401.051C148.968 403.105 151.165 402.06 153.147 401.88C153.531 400.151 153.111 398.506 151.886 396.945C152.895 395.972 153.903 395.035 154.912 394.063C155.668 394.711 156.425 395.359 157.181 396.008C158.514 393.234 160.82 390.856 160.28 386.93C159.631 386.245 158.911 385.525 158.19 384.804V374.609C159.955 372.916 161.721 371.223 163.486 369.566C164.242 370.214 164.999 370.863 165.719 371.511C166.26 371.007 166.764 370.503 167.34 369.962C169.142 370.07 169.754 371.727 171.411 372.952C169.106 373.349 167.124 373.673 165.215 373.997C164.098 375.582 164.747 377.239 164.783 379.112C165.647 379.365 166.62 379.617 167.773 379.941C170.51 386.75 177.427 388.335 185.209 387.65C186.505 386.209 188.703 385.237 188.199 382.751C190.504 381.85 189.748 379.22 191.189 377.816C191.909 377.78 192.594 377.707 193.278 377.671C198.033 382.355 186.902 381.922 196.664 388.911V391.145C199.871 391.757 201.924 393.738 204.121 396.008H211.182C213.704 392.946 216.982 389.92 221.053 388.371C222.566 386.858 226.06 388.875 227.537 385.957H240.975C241.875 387.074 243.172 388.695 244.181 389.92H249.116C249.909 389.235 250.665 388.551 251.458 387.83H255.276C256.681 386.894 257.762 386.173 258.446 385.741C263.634 386.966 264.931 393.054 265.327 396.981C264.535 397.737 264.03 398.205 263.31 398.89V409.625C267.705 411.39 272.388 409.949 277.035 410.346C279.016 408.436 280.998 406.491 283.159 404.402C288.563 403.933 292.201 404.041 294.039 410.274H302.649C303.657 413.66 306.467 415.317 308.124 418.343C307.296 419.964 306.431 421.621 305.458 423.423C308.737 425.008 311.655 426.377 314.501 427.746C313.348 434.122 306.935 437.724 305.855 444.101C306.827 444.929 307.908 445.83 309.457 447.163C310.502 445.722 311.655 444.101 312.591 442.84C315.041 443.344 316.914 442.299 318.571 443.849C317.995 444.533 317.419 445.217 316.734 446.01C317.311 446.658 317.959 447.343 318.679 448.135V452.134C317.995 452.819 317.275 453.575 316.554 454.332V456.529C315.365 456.925 314.104 457.322 312.627 457.826C312.519 458.655 312.411 459.555 312.339 460.42C314.104 461.825 316.518 461.14 318.211 462.041C319.4 462.87 320.373 463.662 321.922 463.41C324.299 466.832 329.055 467.373 331.612 470.687V474.938C332.513 475.226 333.45 475.55 334.782 475.982C335.611 477.423 336.656 479.261 337.556 480.81C336.8 482.035 336.151 483.115 335.215 484.664C337.16 486.033 338.853 487.258 340.15 488.159V492.914C340.907 493.67 341.591 494.427 342.348 495.184V499.182C343.717 500.911 345.662 499.867 347.643 500.227C349.805 502.497 352.182 505.018 355.064 508.008V517.735C353.515 519.032 351.642 520.545 349.264 522.526H341.267C340.222 523.607 339.033 524.832 338.061 525.84C337.592 528.722 340.15 529.371 341.447 530.884H345.59C347.499 533.153 345.482 536.179 348.616 537.981C348.94 538.197 348.652 539.278 348.652 539.998C347.103 541.619 344.149 541.331 342.852 543.564C341.555 545.762 338.061 544.717 336.944 547.167C334.818 547.167 332.657 547.167 330.532 547.167C329.523 548.5 327.65 549.148 327.253 551.274C327.974 552.463 328.766 553.831 329.775 555.561C328.983 556.533 328.154 557.542 327.037 558.911C327.469 559.812 328.01 560.964 327.83 560.604C330.64 564.243 328.046 567.305 330.423 569.574C331.937 568.205 333.414 566.872 334.963 565.467H349.841C351.174 564.207 352.434 563.018 353.803 561.685C355.352 561.541 357.046 561.361 358.631 561.18C360.072 559.74 357.982 559.667 357.91 559.127C356.757 556.641 357.298 554.336 357.442 552.066C358.451 551.094 359.459 550.121 360.468 549.184C362.954 549.184 365.475 549.184 367.961 549.184V554.228C367.277 554.948 366.556 555.669 365.908 556.353C369.69 558.335 365.98 561.685 369.906 563.054V554.624C370.915 553.507 371.528 552.823 372.356 551.886C370.447 551.382 370.159 549.04 367.961 549.184V546.122C366.952 545.186 365.944 544.249 364.503 542.88C363.422 544.537 362.341 546.23 361.729 547.167H356.181C354.416 545.474 352.651 543.817 350.849 542.087V538.053C354.776 533.009 360.108 529.803 366.952 530.848C368.574 532.469 370.267 534.198 372.104 535.999C372.104 536.468 372.176 537.116 372.248 537.801C374.59 538.917 377.147 539.818 378.588 542.16C375.826 546.194 374.53 550.445 374.698 554.912C375.598 555.092 376.571 555.309 377.832 555.561C379.309 557.002 381.038 558.695 382.839 560.46C382.191 561.108 381.506 561.829 380.822 562.585C380.822 563.558 380.822 564.567 380.822 565.612C377.399 566.08 373.041 564.531 370.267 566.44V570.943C371.383 571.952 372.356 572.852 373.545 573.933C374.049 572.564 374.482 571.375 374.914 570.187C377.652 569.574 379.993 568.493 380.822 565.612H386.406C386.802 566.728 387.234 567.917 387.739 569.322C388.567 569.502 389.54 569.682 390.837 569.934C391.197 570.907 391.629 572.096 392.098 573.357C393.935 573.213 394.583 571.592 395.7 570.691C395.052 569.97 394.403 569.286 393.755 568.566C395.268 566.908 397.177 567.989 398.906 567.629C400.383 566.296 401.896 564.927 403.301 563.63H409.605C411.263 565.179 412.776 566.044 415.009 566.296V568.782C418.936 570.655 419.116 575.446 422.538 577.86C423.619 582.003 427.402 584.128 429.995 587.118V591.189C428.951 592.198 427.942 593.134 426.861 594.179H422.646C420.917 592.414 421.097 589.244 417.963 588.343C416.414 589.568 417.495 591.405 417.099 593.314C419.908 595.224 422.862 597.205 425.816 599.222C424.52 600.447 423.511 601.42 423.907 601.06C420.845 602.717 419.44 603.473 417.315 604.626C416.054 603.437 414.577 602.032 412.74 600.231C412.055 600.627 410.938 601.312 409.497 602.14H402.545C402.941 599.763 405.102 599.042 406.183 597.565C404.958 595.404 403.733 593.206 402.473 590.973C402.941 590.468 403.661 589.748 404.31 589.064V582.903C402.545 581.174 402.256 583.588 401.032 583.912C399.555 583.984 397.861 584.056 395.844 584.164V591.693C394.547 591.945 393.575 592.126 392.422 592.342C390.657 595.764 389.432 599.33 383.74 598.286C383.271 597.385 382.479 595.836 381.686 594.287C381.398 594.575 381.074 594.827 380.786 595.116V588.883C378.192 587.55 375.526 587.947 372.86 588.379C372.356 589.712 371.924 590.865 371.347 592.522C370.483 590.721 369.798 589.388 369.258 588.271C366.556 589.64 363.926 590.973 361.549 592.198C359.207 591.765 357.766 588.163 355.208 591.189C357.478 593.35 359.747 595.512 362.017 597.673C365.295 598.286 367.781 601.204 371.455 600.555C373.005 601.96 371.888 603.762 372.356 605.671C373.401 605.995 374.626 606.391 375.85 606.788C377.472 609.093 376.139 612.876 376.535 615.506C374.842 617.055 373.905 618.46 373.761 620.657H366.736C365.259 619.108 363.602 617.343 361.657 615.289V611.579C358.667 610.714 356.361 608.877 354.236 606.535C353.479 607.148 352.759 607.724 351.894 608.409H347.823C347.031 609.129 346.238 609.814 345.482 610.462C344.725 609.778 343.969 609.093 343.284 608.517H339.069C338.205 609.201 337.484 609.814 336.764 610.39C335.395 609.057 334.134 607.868 332.837 606.643C330.387 607.436 332.009 609.381 331.432 610.966C332.693 613.308 335.143 614.713 336.764 616.406C338.025 616.73 338.997 616.983 340.438 617.379C337.628 618.712 335.107 619.576 333.702 621.81V623.863C336.331 624.944 339.105 627.358 342.888 626.817C344.401 627.358 344.761 629.231 346.418 628.618C346.779 629.915 346.599 631.5 348.472 630.132C347.895 629.663 347.319 629.195 346.418 628.618C347.355 626.529 348.58 624.656 351.786 624.8C354.524 628.438 355.461 633.013 354.92 638.345C352.038 639.606 349.336 640.759 346.671 641.912C346.635 642.632 346.31 643.497 346.562 644.001C348.94 645.586 348.4 648.864 350.705 650.449C349.3 652.106 347.391 651.026 345.518 651.386C344.833 650.053 344.149 648.684 343.428 647.279H341.015C339.25 650.521 335.359 651.206 332.297 653.079C331.396 651.422 331.216 649.405 329.523 648.144C330.532 647.171 331.54 646.234 332.585 645.226H334.999C335.251 642.344 338.637 640.723 337.736 637.733C333.666 636.04 328.37 637.48 324.047 637.012C320.697 641.803 316.842 637.156 312.483 637.012C312.159 640.398 312.267 643.353 312.375 646.307C326.641 650.665 310.646 656.141 312.267 664.607C310.178 666.66 307.548 665.219 305.206 665.616C303.009 663.382 298.758 663.742 297.641 660.14C304.81 658.123 302.757 661.545 304.198 653.62C301.856 653.475 300.487 653.367 298.722 653.259C294.651 649.333 288.959 647.387 283.664 644.793C282.403 646.126 281.43 647.135 280.241 648.36C281.286 655.024 279.341 659.275 272.028 661.365C271.235 660.212 270.118 658.555 269.362 657.51H265.723C265.507 656.429 265.255 655.277 265.111 654.448C267.993 651.53 268.966 654.772 270.947 655.313C271.199 654.376 271.451 653.475 271.703 652.503C266.408 649.369 259.419 648.18 255.853 643.208H251.169C250.629 643.713 250.125 644.217 249.332 644.938C247.927 645.082 246.234 645.226 244.577 645.406C238.921 649.513 236.435 655.277 231.284 659.564C228.258 658.843 226.096 657.114 226.457 653.511H217.162C214.821 655.925 212.263 655.565 210.534 653.439C207.904 653.331 206.571 650.774 203.977 651.458C202.104 653.944 203.365 658.014 203.041 660.536C204.085 661.545 204.59 662.013 205.13 662.518V666.841C200.663 667.417 201.095 669.542 200.267 673.397C198.574 673.829 194.287 673.685 191.297 673.937C190.54 674.586 189.531 675.486 188.307 676.603V681.322C189.531 681.791 190.756 682.259 192.017 682.727C191.405 683.772 190.792 684.781 189.928 686.258C190.54 687.122 191.333 688.167 192.233 689.428C191.333 690.112 190.216 690.905 188.811 691.95C185.317 691.301 182.903 694.76 179.697 694.94C179.12 698.686 182.291 698.542 181.498 702.073C180.309 702.253 179.337 702.397 178.472 702.505C177.319 701.424 176.31 700.451 175.266 699.443V694.543C173.284 693.03 170.835 691.121 168.637 689.428V684.961C167.989 684.348 167.484 683.844 166.944 683.34C167.484 681.575 169.466 681.971 170.691 681.178C172.924 679.377 175.086 674.153 175.266 670.767C175.77 670.299 176.274 669.794 177.031 669.11C176.13 667.345 175.194 665.508 174.257 663.67H171.988C170.727 665.976 170.222 667.885 167.881 669.65H159.307C156.677 672.172 154.408 674.334 152.066 676.567C153.723 679.629 156.929 681.647 155.849 686.906C156.605 687.699 157.29 688.419 158.046 689.248V697.533C157.109 698.29 156.065 699.191 154.768 700.235C153.975 699.551 153.039 698.686 151.85 697.678C152.606 691.157 151.165 685.357 147.347 680.278C149.58 675.775 151.273 670.587 155.704 667.021V662.41C155.152 661.881 153.459 661.617 150.625 661.617C149.832 660.932 149.076 660.248 148.283 659.528H131.244C125.948 653.98 129.911 645.694 127.137 639.174H120.364C119.5 635.751 116.005 633.482 117.554 630.132C115.825 628.186 113.916 629.267 111.935 628.835C110.53 626.565 102.568 620.981 100.371 623.719C101.055 624.44 101.74 625.16 102.424 625.881V629.951C101.343 631.14 101.343 631.14 92.3372 630.492C91.9049 629.303 91.4726 628.15 90.9323 626.745C89.2391 628.258 87.7261 629.591 86.3211 630.888H79.9088C78.0715 629.519 79.3324 627.682 78.72 626.169C79.5125 625.34 80.197 624.584 80.9895 623.755V615.686C80.3411 615.001 79.6206 614.281 78.8641 613.524C79.3324 607.796 75.2976 603.834 71.7312 600.267H62.7611C61.2841 598.43 58.3661 597.565 59.8431 594.359H52.9984C51.5935 593.458 50.4767 592.774 49.1798 591.945C44.8569 594.107 40.8221 597.061 35.0222 596.196C31.3117 593.603 31.4558 588.415 27.457 587.01C27.6011 582.975 31.5278 582.579 31.9601 579.481C32.2843 577.139 34.3377 575.014 35.7427 572.564C32.9688 570.151 33.5812 568.097 37.1476 565.792C37.724 566.26 38.4445 566.836 39.093 567.341C42.2631 564.279 45.5053 561.181 48.8916 557.938C48.5674 555.417 51.3773 554.516 52.9984 552.427C53.4307 546.23 52.422 543.168 50.0804 537.008C49.7922 536.828 48.0991 535.603 46.8382 534.702V529.875C50.1165 527.462 48.6755 523.031 48.9637 519.68C48.1711 518.852 47.4867 518.095 46.7302 517.303V513.376C44.5327 511.323 41.5066 513.556 39.2731 510.386H36.1029L36.247 510.458ZM286.618 618.315C291.013 618.099 292.634 621.594 295.3 623.935C294.615 624.584 294.111 625.052 293.39 625.736C297.101 628.114 293.678 632.185 296.416 635.031C300.523 635.571 303.081 633.374 305.819 632.185C305.026 630.852 304.234 629.519 303.441 628.186C303.765 627.934 304.09 627.682 304.414 627.466C302.108 625.448 299.767 623.395 297.317 621.233V615.433C294.291 615.073 292.814 612.119 289.86 612.768C288.959 614.065 286.942 614.641 286.618 618.315ZM317.851 616.73H312.807C311.907 615.578 310.682 613.992 309.493 612.443C307.44 614.173 308.557 615.974 308.052 618.135C312.699 618.135 307.692 622.963 314.357 623.539C314.681 624.872 314.897 625.809 315.149 626.817C316.374 626.745 317.347 626.709 318.211 626.673C319.292 624.223 320.301 621.99 321.201 619.937C319.832 618.604 318.86 617.631 317.887 616.694L317.851 616.73ZM350.993 595.08C348.94 594.071 346.815 593.963 345.59 592.306C344.869 592.918 344.149 593.531 342.744 594.719C341.663 593.062 340.582 591.477 339.646 590.072C337.989 591.441 336.98 592.27 336.223 592.882C337.232 594.755 338.133 596.413 338.889 597.853C341.123 598.826 343.176 599.727 343.861 600.051C346.635 598.106 348.76 596.629 350.957 595.08H350.993ZM312.303 585.101C310.646 587.046 309.601 588.307 308.268 589.892V593.278C312.231 599.042 313.636 594.611 316.914 593.531C316.77 591.225 316.662 589.928 316.626 588.883C315.293 587.731 314.284 586.83 312.339 585.101H312.303ZM286.906 561.072C286.438 558.947 287.446 557.218 286.113 555.777C284.132 555.417 282.151 554.66 280.385 556.389V557.902C281.574 559.451 282.583 560.748 283.303 561.685C284.744 561.469 285.393 561.361 286.906 561.108V561.072ZM256.645 550.265C255.456 549.076 254.556 548.14 254.232 547.815C252.719 548.68 251.242 549.473 250.485 549.905C250.125 553.219 251.566 553.543 253.655 553.327C254.484 552.463 255.42 551.526 256.609 550.265H256.645ZM329.739 601.384C327.722 600.447 325.776 599.547 323.615 598.538C323.435 599.547 323.255 600.447 323.074 601.384C325.092 602.321 327.037 603.221 329.199 604.23C329.379 603.221 329.559 602.321 329.739 601.384ZM342.456 584.993C343.644 585.929 344.329 587.442 345.77 587.731C346.923 586.794 347.931 585.929 348.976 585.065C346.707 583.372 344.581 583.336 342.456 584.993ZM301.136 640.398C306.287 641.335 306.287 641.263 307.8 639.858C305.891 638.849 304.017 638.849 301.136 640.398ZM295.336 572.78C293.895 571.303 292.49 571.303 291.049 572.78C292.49 574.257 293.895 574.257 295.336 572.78ZM352.074 581.967C353.623 580.598 353.623 579.229 352.074 577.86C350.525 579.229 350.525 580.598 352.074 581.967ZM280.025 618.027C279.773 617.595 279.521 617.163 279.269 616.694C278.152 617.307 278.836 617.919 279.269 618.748C279.521 618.532 279.737 618.279 280.025 618.027ZM309.998 636.436C309.745 636.003 309.493 635.571 309.241 635.103C308.124 635.715 308.809 636.328 309.241 637.156C309.493 636.94 309.709 636.688 309.998 636.436Z" fill="#CB10AC" fill-opacity="0.4"/>
<path d="M263.166 720.013V728.154C260.968 730.1 258.374 728.731 255.889 729.127C254.952 728.262 253.943 727.362 252.826 726.353C253.331 721.021 247.783 717.383 248.107 711.727C247.603 711.187 246.882 710.43 246.09 709.602C247.531 708.953 248.972 708.341 250.413 707.692C249.044 706.395 247.783 705.207 246.234 703.694C246.162 702.685 246.09 701.388 245.982 699.803C243.784 698.074 241.335 696.164 239.678 694.868V681.214C238.201 679.737 236.76 678.296 235.283 676.819V672.821C230.779 669.47 234.022 667.057 238.633 667.705C239.461 668.642 240.398 669.686 241.623 671.091V675.09C243.064 676.135 244.721 677.324 245.946 678.224C246.126 679.737 245.91 680.025 246.054 680.962C248.395 682.223 247.747 685.213 250.125 687.086V695.192C250.989 696.02 251.494 696.489 252.25 697.209V702.577C255.6 709.133 258.735 714.537 263.13 720.013H263.166Z" fill="#CB10AC" fill-opacity="0.4"/>
<path d="M19.0993 621.954V632.041C15.3887 641.443 8.07576 638.993 -1.00243 639.138C-6.55021 633.986 -8.81976 623.755 -3.74029 617.235C-2.51546 616.766 -1.00243 616.154 -1.57882 616.37C2.45593 613.812 5.66211 614.893 7.60744 614.677C13.4434 616.37 16.5415 618.856 19.0993 621.954Z" fill="#CB10AC" fill-opacity="0.4"/>
<path d="M181.858 353.103C181.966 355.661 183.695 355.228 185.713 354.796C185.893 353.967 186.073 353.067 186.325 351.95C189.675 348.672 190.396 353.463 193.314 353.823C191.981 356.129 191.152 357.138 190.432 359.227H186.974C186.325 363.19 183.407 364.811 180.345 367.837C179.985 366.252 179.769 365.351 179.516 364.198C177.283 362.109 175.302 359.299 171.375 358.651V352.166C171.591 351.914 172.203 351.157 172.852 350.293C171.483 347.699 170.042 344.997 168.493 342.079C170.33 340.638 171.987 339.377 173.284 338.369V333.505C174.113 333.181 175.013 332.857 176.49 332.281C177.931 334.082 179.408 335.955 181.606 338.765V345.321C182.29 346.15 182.903 346.907 183.983 348.312C183.731 349.825 184.452 352.598 181.966 353.427C181.606 352.13 181.786 350.545 179.913 351.914C180.489 352.382 181.065 352.851 181.858 353.139V353.103Z" fill="#CB10AC" fill-opacity="0.4"/>
<path d="M368.141 470.615V466.148C366.268 465.823 364.286 465.463 362.377 465.103C360.72 460.708 362.233 454.908 361.729 450.333C363.674 448.46 365.439 446.802 367.204 445.109H373.509C374.806 446.334 376.066 447.559 377.327 448.748C378.3 449 379.273 449.216 380.209 449.468C381.182 451.486 382.191 453.467 383.127 455.412C381.686 459.015 377.255 461.284 374.301 464.743V471.155C371.924 471.623 369.87 472.452 368.141 470.615Z" fill="#CB10AC" fill-opacity="0.4"/>
<path d="M10.5614 546.554V540.106C12.975 537.296 15.2445 540.502 17.0458 542.267V546.194C18.4507 548.356 20.6482 549.22 23.206 549.869V560.676C22.2333 561.613 21.2246 562.549 20.2159 563.522H18.1265C17.37 564.206 16.5775 564.891 15.8209 565.575C13.011 565.575 10.1651 565.575 7.31915 565.575C5.4819 562.441 3.57259 559.307 4.25706 554.624C6.74275 552.21 6.6707 547.815 10.5614 546.518V546.554Z" fill="#CB10AC" fill-opacity="0.4"/>
<path d="M146.518 769.979C145.113 769.979 143.708 769.979 142.267 769.979C140.862 768.286 139.313 767.457 137.007 767.457V760.612C140.177 757.983 142.771 753.984 147.599 752.471C147.094 748.76 148.931 746.887 150.336 744.041C151.597 743.429 153.362 742.564 155.38 741.591C155.992 742.312 156.893 743.321 157.938 744.509C157.541 744.978 156.965 745.662 156.389 746.311C158.154 749.805 161.108 752.327 160.423 757.118C158.586 757.442 156.641 757.73 154.731 758.055C152.894 762.269 151.021 766.556 146.518 769.979Z" fill="#CB10AC" fill-opacity="0.4"/>
<path d="M-5.0731 577.428C-8.8917 575.734 -11.8457 574.365 -15.0159 572.96C-14.4035 572.24 -13.791 571.556 -13.0705 570.727V566.872C-11.5935 565.395 -10.1526 563.954 -8.67555 562.477V560.496C-6.58613 559.487 -4.53273 558.479 -2.47933 557.47C1.6635 557.866 1.3753 562.333 4.04112 564.495C3.39268 565.215 2.78025 565.9 2.05976 566.692C3.46472 573.249 -0.353884 574.942 -5.0731 577.428Z" fill="#CB10AC" fill-opacity="0.4"/>
<path d="M-7.84682 665.94C-6.40584 664.607 -4.31642 662.914 -3.88413 660.104C-1.7947 659.239 0.294728 658.375 2.81645 657.33C4.40153 660.248 6.92324 662.806 6.2748 666.769C3.14067 668.678 4.3655 672.064 4.0773 675.198C1.62763 675.486 -0.497815 677.324 -2.73134 678.152C-5.57728 676.567 -6.87416 673.289 -10.3325 673.505C-9.61203 671.344 -8.96358 669.362 -7.84682 665.94Z" fill="#CB10AC" fill-opacity="0.4"/>
<path d="M33.6171 688.923C34.986 686.366 35.8506 684.709 36.8953 682.727C39.417 681.575 42.0468 679.521 46.2257 680.061C47.3424 681.322 48.6753 682.835 49.5039 683.808C51.2691 684.204 52.2057 684.42 53.2144 684.673C55.3399 691.986 47.2704 691.337 44.2083 696.273C37.3636 698.146 37.2556 692.238 33.5811 688.923H33.6171Z" fill="#CB10AC" fill-opacity="0.4"/>
<path d="M120.833 682.115H134.342C134.594 679.954 134.774 678.332 134.954 676.783C137.152 675.018 139.746 676.711 142.087 675.667C143.132 676.855 144.033 677.864 145.257 679.233C139.421 683.988 138.449 690.148 130.343 692.598C129.407 691.986 128.326 691.265 126.957 690.329H122.814C122.094 689.428 121.229 688.383 119.716 686.582C119.644 685.862 119.464 683.016 120.797 682.079L120.833 682.115Z" fill="#CB10AC" fill-opacity="0.4"/>
<path d="M29.8349 445.146C29.5467 442.732 27.6374 438.589 25.584 435.707V429.619C31.1678 425.944 34.3019 426.377 40.318 429.331V438.085C39.3454 439.021 38.3367 439.958 37.364 440.931H34.9504C34.5901 442.011 34.1939 443.2 33.6175 444.785C32.5007 444.893 31.1678 445.001 29.8709 445.11L29.8349 445.146Z" fill="#CB10AC" fill-opacity="0.4"/>
<path d="M264.39 706.431C262.445 704.738 260.68 703.153 258.914 701.604C259.707 700.776 260.427 700.019 261.148 699.263V695.3C265.002 692.382 266.552 688.131 268.281 683.88C270.406 685.898 272.171 687.591 273.901 689.248C273.18 689.968 272.496 690.689 271.775 691.409C271.307 694.687 275.017 695.408 276.206 698.11C275.882 698.758 275.197 700.343 275.125 700.307C272.279 699.335 271.415 703.658 268.605 702.541C267.164 703.874 265.687 705.243 264.39 706.431Z" fill="#CB10AC" fill-opacity="0.4"/>
<path d="M96.4082 698.65C93.9585 697.461 91.9051 696.453 89.8157 695.444V693.138C90.8964 692.778 92.1212 692.382 93.8504 691.805C95.0392 688.635 91.5088 681.106 97.8852 682.043C100.443 681.827 101.812 678.729 104.514 680.71V693.571C103.577 694.471 102.568 695.444 103.037 695.012C99.8665 696.777 98.4616 697.533 96.4082 698.65Z" fill="#CB10AC" fill-opacity="0.4"/>
<path d="M71.6588 639.642C73.2799 640.434 75.0091 641.263 76.7743 642.128C76.8103 642.776 76.8823 643.424 76.9544 644.577C78.2873 645.622 79.8724 646.883 81.2053 647.927V652.503C80.2326 653.439 79.2239 654.376 78.0711 655.457H74.0724C73.2439 656.141 72.4873 656.753 71.6948 657.402C70.3259 656.069 68.4526 655.565 66.6153 654.952C66.0389 652.683 65.3905 650.413 68.1644 648.648V642.019C69.1371 641.371 70.506 640.434 71.6588 639.642Z" fill="#CB10AC" fill-opacity="0.4"/>
<path d="M-0.281738 481.999C0.474777 480.702 1.23129 479.369 2.276 477.604C1.59153 476.703 0.835014 475.694 -0.0655998 474.505C0.835014 473.785 1.87973 472.956 2.9965 472.056C4.68965 473.173 6.74305 474.037 9.69706 473.605C10.7778 474.938 12.0747 476.487 13.0834 477.748H17.8746C19.0995 480.125 19.0995 480.125 18.8473 483.151C17.4063 484.628 15.533 483.548 13.8759 483.908C13.1194 483.223 12.3629 482.539 11.6064 481.854H7.13931C6.74304 482.935 6.34678 484.088 5.87846 485.421C2.31203 487.114 1.23129 484.376 -0.281738 481.999Z" fill="#CB10AC" fill-opacity="0.4"/>
<path d="M119.787 654.52C120.472 655.241 121.192 655.961 121.877 656.646C122.345 659.203 120.004 660.068 118.779 661.581C115.284 661.113 114.492 664.643 111.502 665.868C109.016 665.4 107.251 663.779 106.675 660.752C109.737 659.311 112.619 657.907 115.933 656.357C114.996 654.556 114.132 652.899 113.195 651.134C114.492 648.684 116.906 647.279 118.779 645.406C119.824 646.379 120.796 647.351 121.877 648.36V652.431C121.228 653.079 120.508 653.8 119.824 654.52H119.787Z" fill="#CB10AC" fill-opacity="0.4"/>
<path d="M9.48074 571.772C12.0025 574.221 16.5055 576.383 20.18 575.843C21.3688 576.995 22.3775 577.932 23.3862 578.905V582.939C21.657 584.705 19.6757 584.524 15.9652 582.075H9.26459C7.96771 580.49 6.41866 578.652 4.29321 576.059V572.564C5.95034 571.051 7.7876 572.096 9.44472 571.736L9.48074 571.772Z" fill="#CB10AC" fill-opacity="0.4"/>
<path d="M301.784 681.575V675.054C305.134 674.153 307.62 670.587 311.762 672.208C312.231 673.361 312.735 674.478 313.203 675.63C313.203 675.63 318.283 674.37 318.319 674.334C319.472 676.531 318.715 678.837 318.823 681.106C317.202 682.655 316.842 682.583 313.6 680.134H308.916C307.98 681.25 306.719 682.835 305.458 684.348C304.053 683.268 303.044 682.511 301.748 681.538L301.784 681.575Z" fill="#CB10AC" fill-opacity="0.4"/>
<path d="M342.456 462.437C343.464 461.465 344.473 460.528 345.59 459.447H352.11C352.939 460.204 353.947 461.14 355.136 462.185V468.561C353.263 471.84 349.012 472.056 345.518 471.443C344.509 470.471 343.5 469.498 342.492 468.561C342.492 466.508 342.492 464.455 342.492 462.437H342.456Z" fill="#CB10AC" fill-opacity="0.4"/>
<path d="M71.6228 626.925C70.8663 626.241 70.1458 625.592 69.4253 624.944C68.6327 625.628 67.8762 626.313 67.2278 626.853H62.6887C62.4005 625.989 62.1123 625.088 62.1123 625.124C65.9669 621.45 69.3532 618.207 73.0638 614.677C75.8377 615.145 76.7022 618.532 79.6202 619.828C78.3234 622.638 76.7743 624.115 76.1259 626.889H71.6588L71.6228 626.925Z" fill="#CB10AC" fill-opacity="0.4"/>
<path d="M327.469 693.355C328.154 689.104 325.128 686.222 323.435 682.98C325.92 682.295 324.263 678.476 327.217 678.044C329.343 678.044 331.9 680.71 335.107 686.222C335.791 686.222 336.475 686.294 337.412 686.33C337.7 687.122 337.988 688.023 338.241 688.779C336.187 692.454 332.153 692.67 329.307 694.579C328.514 694.075 327.974 693.751 327.397 693.427L327.469 693.355Z" fill="#CB10AC" fill-opacity="0.4"/>
<path d="M161.396 716.807H156.929C156.533 715.654 156.1 714.501 155.56 712.988H148.896C147.563 711.691 146.554 710.754 145.401 709.674C145.509 708.845 145.653 707.944 145.833 706.72H154.948C155.776 705.927 156.281 705.459 156.785 704.954C159.847 705.891 162.189 709.926 164.602 711.655C165.107 714.753 162.549 715.366 161.36 716.807H161.396Z" fill="#CB10AC" fill-opacity="0.4"/>
<path d="M160.46 728.767V735.143C158.983 737.016 157.974 738.313 156.965 739.61C153.363 738.601 151.778 735.936 149.652 733.81C151.418 729.631 153.219 725.596 157.434 723.219C158.334 724.876 159.235 726.497 160.46 728.767Z" fill="#CB10AC" fill-opacity="0.4"/>
<path d="M288.347 664.571C290.004 669.686 296.813 670.731 290.22 675.811H283.267C281.574 672.316 283.556 668.534 280.277 666.264C280.53 663.706 282.511 663.13 283.375 661.869C284.78 662.626 286.185 663.382 288.347 664.571Z" fill="#CB10AC" fill-opacity="0.4"/>
<path d="M295.407 693.247V689.212C295.695 688.924 296.02 688.455 296.2 688.491C299.514 689.248 301.82 686.474 304.774 686.042C306.791 689.572 308.808 691.445 308.196 695.768C307.367 696.453 306.07 697.497 304.702 698.65C301.171 697.281 297.569 696.381 295.407 693.247Z" fill="#CB10AC" fill-opacity="0.4"/>
<path d="M274.117 726.821C275.234 727.65 276.891 728.911 278.08 729.811V734.387C275.738 736.224 273.144 734.531 270.911 735.539C269.758 734.351 268.821 733.342 267.633 732.117V726.281C268.965 724.984 269.722 723.219 270.334 721.166H273.072C274.657 722.679 273.541 724.48 274.117 726.821Z" fill="#CB10AC" fill-opacity="0.4"/>
<path d="M381.001 537.729V533.586C381.83 533.009 383.235 532.037 384.892 530.884H390.944C392.601 533.946 391.16 537.224 391.845 540.142C389.179 541.799 386.693 540.827 384.172 541.115C383.343 540.214 382.406 539.206 381.037 537.729H381.001Z" fill="#CB10AC" fill-opacity="0.4"/>
<path d="M390.548 649.369H386.369C384.532 647.639 382.767 645.982 381.038 644.325V641.875C382.911 641.551 384.856 641.191 386.802 640.831C387.27 639.642 387.702 638.453 388.134 637.372C388.999 637.3 389.683 637.228 390.44 637.156C391.557 638.994 392.71 640.867 393.898 642.812C393.754 645.154 391.521 647.243 390.584 649.405L390.548 649.369Z" fill="#CB10AC" fill-opacity="0.4"/>
<path d="M367.276 636.976C367.853 635.787 368.501 634.382 369.438 632.509C374.589 634.779 382.947 638.129 375.994 642.992C374.049 641.803 372.032 640.867 369.438 641.263C368.789 641.803 367.997 642.452 367.168 643.172C366.196 641.407 365.223 639.642 364.106 637.589C365.151 637.408 366.124 637.192 367.312 636.976H367.276Z" fill="#CB10AC" fill-opacity="0.4"/>
<path d="M36.2469 510.458V517.663C35.2743 518.528 34.2656 519.464 33.1488 520.437H28.4296C26.7364 518.131 29.1141 514.781 25.7998 513.376C26.8085 512.331 27.7812 511.359 28.7178 510.422H36.2829L36.2469 510.458Z" fill="#CB10AC" fill-opacity="0.4"/>
<path d="M30.8794 420.541H26.3403C26.2322 417.623 23.1341 416.398 23.4583 413.408C24.2509 412.615 25.2235 411.643 26.3403 410.526H31.1316C32.1763 412.723 33.1489 414.705 34.0856 416.686C33.7613 418.595 31.8521 419.244 30.8434 420.577L30.8794 420.541Z" fill="#CB10AC" fill-opacity="0.4"/>
<path d="M358.63 678.008H354.308C351.714 676.567 354.452 673.469 352.146 671.884C350.057 670.443 351.173 668.354 351.317 666.48C352.794 665.075 354.668 666.12 356.325 665.76C358.018 669.146 361.476 673.361 358.594 678.044L358.63 678.008Z" fill="#CB10AC" fill-opacity="0.4"/>
<path d="M346.778 695.48C345.661 700.055 342.743 700.343 341.338 704.81C339.753 702.937 338.312 701.136 336.583 699.118C336.691 698.974 337.268 698.326 337.952 697.461C337.448 696.849 336.835 696.2 335.935 695.12C336.98 694.075 338.096 692.994 338.817 692.274C342.816 691.589 344.833 693.318 346.778 695.444V695.48Z" fill="#CB10AC" fill-opacity="0.4"/>
<path d="M259.672 735.431H264.535C265.544 736.404 266.552 737.341 267.525 738.277V742.456C266.588 743.285 265.544 744.149 264.283 745.266H259.383C259.023 741.88 258.231 738.818 259.672 735.431Z" fill="#CB10AC" fill-opacity="0.4"/>
<path d="M72.6319 719.688C72.2357 722.895 73.5686 726.245 71.8754 728.839H67.0121C66.1115 727.686 64.4184 726.929 63.7339 724.768C65.2469 722.462 67.5165 720.589 69.9661 718.68C70.9028 719.04 71.8034 719.364 72.6319 719.688Z" fill="#CB10AC" fill-opacity="0.4"/>
<path d="M363.746 506.351C363.386 506.171 362.521 505.811 361.405 505.306C362.305 501.488 366.448 500.155 366.844 496.156H371.599C371.924 496.949 372.284 497.813 372.392 498.102C369.402 500.948 366.7 503.505 363.746 506.315V506.351Z" fill="#CB10AC" fill-opacity="0.4"/>
<path d="M61.9324 450.189C59.0144 453.755 56.6368 454.152 53.5747 450.405V445.794C55.5561 445.037 57.5014 444.569 58.9424 443.2C60.5995 444.569 59.4467 446.37 59.843 448.064C60.4914 448.748 61.2119 449.468 61.9324 450.225V450.189Z" fill="#CB10AC" fill-opacity="0.4"/>
<path d="M131.532 665.76C132.504 666.697 133.477 667.633 134.594 668.678V673.217C133.765 673.685 132.288 674.55 129.874 675.955C130.739 675.955 130.055 675.955 129.37 675.955C128.674 675.282 128.409 672.809 128.578 668.534C129.55 667.597 130.523 666.661 131.496 665.724L131.532 665.76Z" fill="#CB10AC" fill-opacity="0.4"/>
<path d="M395.988 417.55C395.052 418.379 394.043 419.28 392.458 420.685C392.098 419.532 391.737 418.271 391.341 417.01C388.999 415.929 389.828 413.588 389.576 411.174C390.404 410.85 391.269 410.49 392.854 409.877C393.719 411.138 394.655 412.507 396.024 414.524V417.55H395.988Z" fill="#CB10AC" fill-opacity="0.4"/>
<path d="M52.0256 471.66C50.9809 471.66 51.6653 471.66 52.4579 471.66C53.9709 474.073 53.3585 476.595 53.0703 479.081C51.4852 480.486 49.684 479.477 48.0268 479.801C46.1896 478.612 47.1983 476.775 46.802 474.505C47.9188 473.893 49.3958 473.065 51.9895 471.66H52.0256Z" fill="#CB10AC" fill-opacity="0.4"/>
<path d="M357.982 391.865C356.974 393.126 356.217 394.135 355.425 395.107C359.82 398.385 356.577 400.835 352.11 400.151C350.309 397.809 351.138 395.179 351.318 392.694C353.263 391.289 355.461 392.225 357.982 391.865Z" fill="#CB10AC" fill-opacity="0.4"/>
<path d="M337.376 710.971C338.277 711.835 339.033 712.556 340.15 713.6C340.222 714.573 340.294 715.87 340.438 718.175C339.538 718.716 338.061 719.544 336.548 720.409C336.007 719.905 334.999 718.932 333.918 717.923V713.6C334.783 712.952 335.899 712.087 337.34 711.007L337.376 710.971Z" fill="#CB10AC" fill-opacity="0.4"/>
<path d="M337.304 549.256C341.915 549.581 339.213 552.715 342.456 554.48C341.447 555.308 340.402 556.173 339.285 557.11C337.736 555.633 334.854 556.101 333.882 553.94C333.858 552.883 334.998 551.322 337.304 549.256Z" fill="#CB10AC" fill-opacity="0.4"/>
<path d="M265.183 673.757C265.291 675.919 265.327 677.18 265.435 679.341C264.499 679.918 263.094 680.782 261.653 681.647C261.112 681.106 260.104 680.17 259.131 679.233V674.694C260.86 673.289 262.661 674.226 265.183 673.721V673.757Z" fill="#CB10AC" fill-opacity="0.4"/>
<path d="M81.2053 744.437C81.2053 743.789 81.2053 743.141 81.2053 743.357C82.5382 741.483 83.4749 740.15 83.9792 739.466C87.5456 738.962 88.1581 741.375 89.7431 742.42C88.7705 743.357 87.7978 744.293 86.8252 745.194C84.9159 745.302 82.8264 746.311 81.2053 744.437Z" fill="#CB10AC" fill-opacity="0.4"/>
<path d="M47.9545 371.007C49.1073 372.196 50.188 373.349 51.1247 374.321C49.1073 376.231 47.4141 377.888 45.685 379.509C44.7844 378.644 43.7757 377.708 42.731 376.699C45.6129 374.609 43.5955 372.196 47.9545 371.007Z" fill="#CB10AC" fill-opacity="0.4"/>
<path d="M164.566 359.047V364.559C162.909 366.072 161.072 365.027 159.415 365.387C157.145 363.838 159.127 361.713 158.19 360.344C160.135 358.543 161.973 359.587 164.566 359.047Z" fill="#CB10AC" fill-opacity="0.4"/>
<path d="M197.025 702.757V697.245C198.682 695.732 200.519 696.777 202.176 696.417C204.194 698.002 203.149 699.983 202.933 701.856C201.456 703.225 199.582 702.181 197.025 702.721V702.757Z" fill="#CB10AC" fill-opacity="0.4"/>
<path d="M10.1649 689.5C11.9662 687.879 12.9748 686.978 13.8394 686.222C16.7214 685.825 17.5139 688.095 19.027 689.32C15.3525 692.958 14.74 693.391 10.1289 689.536L10.1649 689.5Z" fill="#CB10AC" fill-opacity="0.4"/>
<path d="M37.3274 604.446H39.4169C41.5063 605.995 40.3535 607.977 40.2454 609.85C38.8045 611.291 36.9672 610.21 35.3461 610.57C34.3374 608.817 34.9979 606.776 37.3274 604.446Z" fill="#CB10AC" fill-opacity="0.4"/>
<path d="M14.6681 586.073V591.369C13.047 592.918 11.2098 591.873 9.58869 592.234C5.84214 588.811 11.0297 588.163 11.2098 586.109H14.6681V586.073Z" fill="#CB10AC" fill-opacity="0.4"/>
<path d="M303.369 398.061H307.152C308.124 398.998 309.133 399.971 310.07 400.907V405.915C308.845 406.023 307.908 406.095 307.08 406.167C305.098 403.105 306.864 400.619 303.369 398.061Z" fill="#CB10AC" fill-opacity="0.4"/>
<path d="M31.2754 569.718H26.6643C24.5748 568.169 25.7276 566.188 25.8357 564.026C26.7003 563.846 27.6369 563.63 28.5375 563.45C29.9425 565.251 33.0766 566.008 31.2754 569.718Z" fill="#CB10AC" fill-opacity="0.4"/>
<path d="M82.3223 316.322H78.0714C75.1174 314.196 78.4316 311.891 79.9807 310.198H82.2863C84.0515 312.251 84.0515 314.268 82.2863 316.322H82.3223Z" fill="#CB10AC" fill-opacity="0.4"/>
<path d="M322.102 432.789H326.353C329.307 434.914 325.992 437.22 324.443 438.913H322.138C320.373 436.86 320.373 434.842 322.138 432.789H322.102Z" fill="#CB10AC" fill-opacity="0.4"/>
<path d="M228.258 678.332C229.771 679.737 228.942 681.611 228.618 683.448C226.961 684.349 224.692 684.276 223.503 686.366C223.106 685.357 222.746 684.529 222.206 683.232C224.223 681.611 226.241 679.954 228.258 678.296V678.332Z" fill="#CB10AC" fill-opacity="0.4"/>
<path d="M192.449 328.75H195.98C197.529 330.335 196.484 332.065 196.88 333.794C195.692 334.478 194.683 336.712 193.134 336.315C191.945 334.154 192.81 331.848 192.449 328.75Z" fill="#CB10AC" fill-opacity="0.4"/>
<path d="M9.48084 447.235C8.47215 445.289 7.53552 443.452 6.59888 441.615C8.21998 440.246 10.0212 441.471 11.4982 440.858C13.5156 442.624 12.615 444.569 12.2907 446.73C11.4262 446.875 10.4895 447.055 9.48084 447.235Z" fill="#CB10AC" fill-opacity="0.4"/>
<path d="M30.7713 663.526C35.5986 667.309 35.3104 670.479 28.7539 669.831C25.908 667.669 29.0782 665.219 30.7713 663.526Z" fill="#CB10AC" fill-opacity="0.4"/>
<path d="M294.507 716.843H290.148C288.491 714.141 288.419 714.069 291.733 711.079C293.138 711.979 294.507 712.88 295.804 713.708C295.191 715.185 294.831 716.05 294.507 716.807V716.843Z" fill="#CB10AC" fill-opacity="0.4"/>
<path d="M3.50101 383.327C3.14077 383.652 2.1681 384.588 1.12339 385.597H-1.43435C-2.94738 384.012 -1.93869 382.283 -2.33496 380.553C-1.5064 380.193 -0.641814 379.833 0.979291 379.148C1.77183 380.481 2.63642 381.886 3.50101 383.327Z" fill="#CB10AC" fill-opacity="0.4"/>
<path d="M32.1762 472.884C32.1762 472.884 31.0954 471.84 29.5464 470.363C30.8793 469.57 32.2122 468.741 34.1936 467.553C33.7973 467.553 34.4817 467.553 35.3824 467.553C35.7066 468.309 36.0668 469.174 36.6792 470.615C35.2383 471.335 33.7252 472.092 32.1762 472.848V472.884Z" fill="#CB10AC" fill-opacity="0.4"/>
<path d="M99.4339 416.29C98.101 415.137 97.1283 414.237 96.2277 413.444C96.0116 411.427 96.3718 410.058 99.8302 410.418C100.262 411.138 101.127 412.543 102.028 413.984C101.667 414.309 100.695 415.173 99.4699 416.29H99.4339Z" fill="#CB10AC" fill-opacity="0.4"/>
<path d="M244.253 712.592H237.948C237.732 711.547 237.552 710.646 237.372 709.818C239.173 707.836 241.227 708.773 243.496 709.061C243.676 709.89 243.856 710.79 244.217 712.592H244.253Z" fill="#CB10AC" fill-opacity="0.4"/>
<path d="M383.344 517.267V513.304C385.001 511.719 386.91 513.088 388.928 512.079C389.216 513.592 389.432 514.709 389.612 515.61C387.739 517.411 385.829 516.042 383.344 517.303V517.267Z" fill="#CB10AC" fill-opacity="0.4"/>
<path d="M107.972 404.185C109.197 405.879 112.187 406.671 110.782 409.913C109.989 410.057 109.053 410.274 108.044 410.454C107.107 409.445 106.207 408.472 105.198 407.356C105.414 405.915 107.107 405.338 108.008 404.149L107.972 404.185Z" fill="#CB10AC" fill-opacity="0.4"/>
<path d="M303.981 398.061C301.928 397.845 299.874 398.53 297.749 397.377C297.677 396.62 297.605 395.72 297.497 394.927C299.37 393.306 301.315 393.919 303.657 394.459C303.765 395.576 303.837 396.801 303.945 398.061H303.981Z" fill="#CB10AC" fill-opacity="0.4"/>
<path d="M190.432 359.227C192.629 359.479 193.458 361.244 195.007 362.901C194.25 364.306 193.386 365.855 192.557 367.405C188.63 367.332 191.008 361.677 190.432 359.227Z" fill="#CB10AC" fill-opacity="0.4"/>
<path d="M153.002 331.02C151.453 330.443 150.589 330.155 149.544 329.759C151.561 328.534 151.741 326.553 152.534 324.859C154.299 325.076 154.876 326.697 155.632 327.201C154.768 328.462 153.831 329.795 153.002 331.02Z" fill="#CB10AC" fill-opacity="0.4"/>
<path d="M126.381 702.721V698.902C127.389 698.686 128.326 698.506 129.191 698.326C130.343 699.551 131.892 700.235 132.253 701.856C130.74 703.189 128.938 702.181 126.381 702.721Z" fill="#CB10AC" fill-opacity="0.4"/>
<path d="M351.426 487.294C345.049 490.032 346.022 483.115 350.345 482.179C351.786 483.656 350.453 485.421 351.426 487.294Z" fill="#CB10AC" fill-opacity="0.4"/>
<path d="M373.509 504.334H376.103C376.319 505.379 376.571 506.495 376.895 507.936C375.49 508.189 374.554 508.405 373.689 508.549C371.924 507.072 371.96 505.739 373.509 504.334Z" fill="#CB10AC" fill-opacity="0.4"/>
<path d="M347.787 555.417H350.381C350.597 556.461 350.849 557.578 351.173 559.019C349.769 559.271 348.832 559.487 347.967 559.631C346.202 558.154 346.238 556.822 347.787 555.417Z" fill="#CB10AC" fill-opacity="0.4"/>
<path d="M230.924 671.704V675.162C228.87 676.351 226.997 676.243 224.583 675.054C226.601 673.974 228.402 673.037 230.924 671.668V671.704Z" fill="#CB10AC" fill-opacity="0.4"/>
<path d="M271.487 672.064H275.63C275.846 673.109 276.026 674.009 276.279 675.378C274.946 675.631 273.757 675.847 272.28 676.099C272.028 674.766 271.812 673.829 271.487 672.064Z" fill="#CB10AC" fill-opacity="0.4"/>
<path d="M316.95 708.845V705.567C317.419 705.062 317.635 704.81 317.851 704.594C318.607 706.9 322.03 705.711 322.75 708.052C321.237 709.277 319.436 708.341 316.914 708.845H316.95Z" fill="#CB10AC" fill-opacity="0.4"/>
<path d="M274.982 402.168H277.575C277.791 403.213 278.044 404.33 278.368 405.771C276.963 406.023 276.026 406.239 275.162 406.383C273.396 404.906 273.432 403.573 274.982 402.168Z" fill="#CB10AC" fill-opacity="0.4"/>
<path d="M31.9601 545.186C31.9601 543.168 34.0855 542.664 35.0582 541.151C36.283 542.088 37.4719 542.988 38.7687 543.961C36.1389 545.798 33.9775 544.897 31.9241 545.186H31.9601Z" fill="#CB10AC" fill-opacity="0.4"/>
<path d="M194.719 697.425V699.911C193.639 700.127 192.45 700.379 190.973 700.668C190.685 699.335 190.505 698.434 190.324 697.605C191.837 695.912 193.278 695.984 194.719 697.425Z" fill="#CB10AC" fill-opacity="0.4"/>
<path d="M166.692 685.897V689.86C165.611 690.076 164.639 690.22 163.198 690.509C162.946 689.248 162.729 688.095 162.441 686.69C163.846 686.438 164.819 686.258 166.656 685.933L166.692 685.897Z" fill="#CB10AC" fill-opacity="0.4"/>
<path d="M68.561 670.155V666.192C69.6418 665.976 70.6144 665.832 72.0554 665.544C72.3076 666.805 72.5237 667.957 72.8119 669.362C71.407 669.615 70.4343 669.795 68.5971 670.119L68.561 670.155Z" fill="#CB10AC" fill-opacity="0.4"/>
<path d="M65.1387 610.57H67.7325C67.9486 611.615 68.2008 612.732 68.525 614.173C67.1201 614.425 66.1834 614.641 65.3188 614.785C63.5536 613.308 63.5897 611.975 65.1387 610.57Z" fill="#CB10AC" fill-opacity="0.4"/>
<path d="M308.521 728.911H304.378C304.162 727.866 303.982 726.965 303.729 725.596C305.062 725.344 306.251 725.128 307.728 724.876C307.98 726.209 308.197 727.146 308.521 728.911Z" fill="#CB10AC" fill-opacity="0.4"/>
<path d="M221.701 360.524C219.251 360.956 218.063 361.136 217.09 361.316C215.721 359.803 215.721 358.687 216.766 357.498C218.639 357.642 218.963 359.623 221.701 360.524Z" fill="#CB10AC" fill-opacity="0.4"/>
<path d="M342.132 617.091C342.564 614.821 342.816 613.704 343.068 612.299C344.617 613.668 345.662 614.749 347.247 616.19C345.41 616.514 344.473 616.694 342.132 617.091Z" fill="#CB10AC" fill-opacity="0.4"/>
<path d="M164.71 324.355C166.62 324.643 167.809 324.823 169.394 325.039C167.737 326.624 167.268 327.561 165.431 328.246C164.674 326.516 164.638 326.913 164.71 324.319V324.355Z" fill="#CB10AC" fill-opacity="0.4"/>
<path d="M104.405 644.073C105.774 643.245 107.107 642.452 108.584 641.587C108.728 642.38 108.908 643.497 109.052 644.433C107.431 645.622 106.278 645.73 104.405 644.073Z" fill="#CB10AC" fill-opacity="0.4"/>
<path d="M146.086 345.357C145.798 343.844 145.581 342.728 145.437 341.791C147.022 340.458 148.175 340.494 149.4 341.467C149.076 343.124 147.455 343.772 146.086 345.357Z" fill="#CB10AC" fill-opacity="0.4"/>
<path d="M96.192 655.529C95.1833 655.529 94.2106 655.529 93.2019 655.529C91.3647 654.448 91.4727 653.151 92.6976 651.674C94.3547 652.575 95.8677 653.547 96.192 655.529Z" fill="#CB10AC" fill-opacity="0.4"/>
<path d="M-1.90277 542.88C-3.4158 538.593 1.01522 538.161 -0.533835 542.808C-1.00215 542.808 -1.43445 542.844 -1.90277 542.88Z" fill="#CB10AC" fill-opacity="0.4"/>
<path d="M383.812 604.914C385.613 605.995 385.685 607.112 384.532 608.3C381.686 607.58 384.244 605.923 383.812 604.914Z" fill="#CB10AC" fill-opacity="0.4"/>
<path d="M192.558 371.511C192.161 372.808 193.602 374.681 191.297 375.438C190.672 373.637 191.093 372.328 192.558 371.511Z" fill="#CB10AC" fill-opacity="0.4"/>
<path d="M323.003 644.289C324.768 642.956 325.957 642.884 327.182 644.001C326.281 646.234 324.948 645.622 323.003 644.289Z" fill="#CB10AC" fill-opacity="0.4"/>
<path d="M96.1919 655.529C97.5608 655.889 99.5062 654.556 100.299 656.718C98.4014 657.318 97.0325 656.922 96.1919 655.529Z" fill="#CB10AC" fill-opacity="0.4"/>
<path d="M101.956 373.096C100.155 372.016 100.083 370.899 101.235 369.71C104.081 370.431 101.524 372.088 101.956 373.096Z" fill="#CB10AC" fill-opacity="0.4"/>
<path d="M192.558 367.404C195.62 366.936 195.368 372.052 192.558 371.475V367.404Z" fill="#CB10AC" fill-opacity="0.4"/>
<path d="M10.5615 497.165C12.0025 495.688 13.4075 495.688 14.8485 497.165C13.4075 498.642 12.0025 498.642 10.5615 497.165Z" fill="#CB10AC" fill-opacity="0.4"/>
<path d="M78.7915 677.612C74.3245 679.053 73.8561 674.838 78.7195 676.315C78.7195 676.747 78.7555 677.179 78.7915 677.612Z" fill="#CB10AC" fill-opacity="0.4"/>
<path d="M40.5337 493.094C41.9747 491.617 43.3796 491.617 44.8206 493.094C43.3796 494.571 41.9747 494.571 40.5337 493.094Z" fill="#CB10AC" fill-opacity="0.4"/>
<path d="M367.853 689.896C363.386 691.337 362.917 687.122 367.78 688.599C367.78 689.032 367.817 689.464 367.853 689.896Z" fill="#CB10AC" fill-opacity="0.4"/>
<path d="M323.183 700.487C322.342 701.88 320.973 702.277 319.076 701.676C319.868 699.479 321.814 700.848 323.183 700.487Z" fill="#CB10AC" fill-opacity="0.4"/>
<path d="M326.389 708.665C327.938 710.034 327.938 711.403 326.389 712.772C324.84 711.403 324.84 710.034 326.389 708.665Z" fill="#CB10AC" fill-opacity="0.4"/>
<path d="M115.897 728.803C114.384 724.516 118.815 724.084 117.266 728.731C116.798 728.731 116.366 728.767 115.897 728.803Z" fill="#CB10AC" fill-opacity="0.4"/>
<path d="M100.479 732.153C99.0378 733.63 97.6329 733.63 96.1919 732.153C97.6329 730.676 99.0378 730.676 100.479 732.153Z" fill="#CB10AC" fill-opacity="0.4"/>
<path d="M297.497 732.153C296.056 733.63 294.651 733.63 293.21 732.153C294.651 730.676 296.056 730.676 297.497 732.153Z" fill="#CB10AC" fill-opacity="0.4"/>
<path d="M187.226 749.517C188.775 750.886 188.775 752.255 187.226 753.624C185.677 752.255 185.677 750.886 187.226 749.517Z" fill="#CB10AC" fill-opacity="0.4"/>
<path d="M218.675 344.673C217.162 340.386 221.593 339.954 220.044 344.601C219.576 344.601 219.144 344.637 218.675 344.673Z" fill="#CB10AC" fill-opacity="0.4"/>
<path d="M29.9783 444.785C29.0177 446.37 27.5887 446.863 25.6914 446.262C26.52 444.137 28.4653 445.578 29.9783 444.785Z" fill="#CB10AC" fill-opacity="0.4"/>
<path d="M63.013 453.251C63.4453 454.044 64.1297 454.692 63.013 455.304C62.5807 454.512 61.8962 453.863 63.013 453.251Z" fill="#CB10AC" fill-opacity="0.4"/>
<path d="M390.945 491.761C390.513 491.509 390.044 491.293 389.576 491.041C390.188 489.96 390.873 490.645 391.701 491.041C391.449 491.257 391.233 491.509 390.945 491.761Z" fill="#CB10AC" fill-opacity="0.4"/>
<path d="M80.9174 398.782C80.6653 399.214 80.4131 399.647 80.1609 400.115C79.0441 399.502 79.7286 398.89 80.1609 398.061C80.4131 398.278 80.6292 398.53 80.9174 398.782Z" fill="#CB10AC" fill-opacity="0.4"/>
<path d="M10.237 396.764C9.98483 397.197 9.73266 397.629 9.48049 398.097C8.36373 397.485 9.0482 396.872 9.48049 396.044C9.73266 396.26 9.94881 396.512 10.237 396.764Z" fill="#CB10AC" fill-opacity="0.4"/>
<path d="M115.176 393.27C114.888 393.558 114.636 393.774 114.42 393.991C113.988 393.198 113.303 392.55 114.42 391.937C114.672 392.369 114.924 392.838 115.176 393.27Z" fill="#CB10AC" fill-opacity="0.4"/>
<path d="M356.83 392.154C357.694 391.181 358.199 390.64 358.703 390.064C360.144 391.865 358.487 391.685 356.83 392.154Z" fill="#CB10AC" fill-opacity="0.4"/>
<path d="M357.118 386.534C356.865 386.966 356.613 387.398 356.361 387.867C355.244 387.254 355.929 386.642 356.361 385.813C356.613 386.029 356.829 386.281 357.118 386.534Z" fill="#CB10AC" fill-opacity="0.4"/>
<path d="M251.745 661.977C252.034 662.265 252.286 662.482 252.502 662.698C251.673 663.094 250.989 663.778 250.376 662.698C250.845 662.445 251.313 662.193 251.745 661.977Z" fill="#CB10AC" fill-opacity="0.4"/>
<path d="M222.53 664.751C221.701 665.147 221.017 665.832 220.404 664.751C221.233 664.355 221.917 663.67 222.53 664.751Z" fill="#CB10AC" fill-opacity="0.4"/>
<path d="M160.459 679.053C159.631 679.449 158.946 680.133 158.334 679.053C159.163 678.656 159.847 677.972 160.459 679.053Z" fill="#CB10AC" fill-opacity="0.4"/>
<path d="M302.36 681.863C301.495 682.835 300.991 683.376 300.487 683.952C299.046 682.151 300.703 682.331 302.36 681.863Z" fill="#CB10AC" fill-opacity="0.4"/>
<path d="M91.6162 689.536C91.328 689.824 91.0758 690.04 90.8596 690.256C90.4273 689.464 89.7429 688.815 90.8596 688.203C91.1118 688.635 91.364 689.104 91.6162 689.536Z" fill="#CB10AC" fill-opacity="0.4"/>
<path d="M324.731 698.686C325.596 697.713 326.1 697.173 326.604 696.597C328.045 698.398 326.388 698.218 324.731 698.686Z" fill="#CB10AC" fill-opacity="0.4"/>
<path d="M325.308 698.434C325.38 699.839 324.659 700.524 323.182 700.488C323.11 699.083 323.831 698.398 325.308 698.434Z" fill="#CB10AC" fill-opacity="0.4"/>
<path d="M120.508 700.776C120.94 701.028 121.409 701.244 121.877 701.496C121.265 702.577 120.58 701.893 119.751 701.496C120.004 701.28 120.22 701.028 120.508 700.776Z" fill="#CB10AC" fill-opacity="0.4"/>
<path d="M171.447 712.015C171.699 711.583 171.952 711.151 172.204 710.682C173.321 711.295 172.636 711.907 172.204 712.736C171.952 712.52 171.735 712.267 171.447 712.015Z" fill="#CB10AC" fill-opacity="0.4"/>
<path d="M32.5721 544.97C31.7075 545.942 31.2032 546.483 30.6988 547.059C29.2578 545.258 30.915 545.438 32.5721 544.97Z" fill="#CB10AC" fill-opacity="0.4"/>
</g>
<g filter="url(#filter1_f_2051_3614)">
<ellipse cx="194.5" cy="193.5" rx="143.5" ry="43.5" fill="#CB10AC"/>
</g>
<g filter="url(#filter2_f_2051_3614)">
<ellipse cx="70.2598" cy="204.635" rx="141.663" ry="207.658" transform="rotate(-10.863 70.2598 204.635)" fill="#4A1174"/>
</g>
<g filter="url(#filter3_f_2051_3614)">
<ellipse cx="326.663" cy="727.693" rx="124.5" ry="182.5" transform="rotate(-10.863 326.663 727.693)" fill="#4A1174"/>
</g>
</g>
<defs>
<filter id="filter0_f_2051_3614" x="-122.53" y="303.3" width="634.174" height="471.379" filterUnits="userSpaceOnUse" color-interpolation-filters="sRGB">
<feFlood flood-opacity="0" result="BackgroundImageFix"/>
<feBlend mode="normal" in="SourceGraphic" in2="BackgroundImageFix" result="shape"/>
<feGaussianBlur stdDeviation="2.35" result="effect1_foregroundBlur_2051_3614"/>
</filter>
<filter id="filter1_f_2051_3614" x="-49.4" y="49.6" width="487.8" height="287.8" filterUnits="userSpaceOnUse" color-interpolation-filters="sRGB">
<feFlood flood-opacity="0" result="BackgroundImageFix"/>
<feBlend mode="normal" in="SourceGraphic" in2="BackgroundImageFix" result="shape"/>
<feGaussianBlur stdDeviation="50.2" result="effect1_foregroundBlur_2051_3614"/>
</filter>
<filter id="filter2_f_2051_3614" x="-374.301" y="-301.065" width="889.122" height="1011.4" filterUnits="userSpaceOnUse" color-interpolation-filters="sRGB">
<feFlood flood-opacity="0" result="BackgroundImageFix"/>
<feBlend mode="normal" in="SourceGraphic" in2="BackgroundImageFix" result="shape"/>
<feGaussianBlur stdDeviation="150" result="effect1_foregroundBlur_2051_3614"/>
</filter>
<filter id="filter3_f_2051_3614" x="-100.384" y="246.914" width="854.094" height="961.559" filterUnits="userSpaceOnUse" color-interpolation-filters="sRGB">
<feFlood flood-opacity="0" result="BackgroundImageFix"/>
<feBlend mode="normal" in="SourceGraphic" in2="BackgroundImageFix" result="shape"/>
<feGaussianBlur stdDeviation="150" result="effect1_foregroundBlur_2051_3614"/>
</filter>
<clipPath id="clip0_2051_3614">
<rect width="390" height="844" fill="white"/>
</clipPath>
</defs>
</svg>
